<?xml version="1.0" encoding="utf-8"?>
<!-- Generator: Adobe Illustrator 19.0.0, SVG Export Plug-In . SVG Version: 6.00 Build 0)  -->
<svg version="1.1" id="Layer_1" xmlns="http://www.w3.org/2000/svg" xmlns:xlink="http://www.w3.org/1999/xlink" x="0px" y="0px"
	 viewBox="0 0 883 199.3" style="enable-background:new 0 0 883 199.3;" xml:space="preserve">
<style type="text/css">
	.st0{fill-rule:evenodd;clip-rule:evenodd;fill:#FFFFFF;}
	.st1{fill:#FFFFFF;}
</style>
<g id="XMLID_223_">
	<g id="XMLID_227_">
		<g id="XMLID_247_">
			<path id="XMLID_249_" class="st0" d="M352.8,131.8c-15.8,11.6-38.6,17.8-58.3,17.8c-27.6,0-52.5-10.2-71.3-27.2
				c-1.5-1.3-0.2-3.2,1.6-2.1c20.3,11.8,45.4,18.9,71.3,18.9c17.5,0,36.7-3.6,54.4-11.1C353.2,126.9,355.4,129.8,352.8,131.8z"/>
			<path id="XMLID_248_" class="st0" d="M359.4,124.3c-2-2.6-13.3-1.2-18.4-0.6c-1.5,0.2-1.8-1.2-0.4-2.1c9-6.3,23.8-4.5,25.5-2.4
				c1.7,2.1-0.5,17-8.9,24.1c-1.3,1.1-2.5,0.5-2-0.9C357.1,137.5,361.4,126.8,359.4,124.3z"/>
		</g>
		<path id="XMLID_246_" class="st0" d="M341.3,76.7v-6.2c0-0.9,0.7-1.6,1.6-1.6l27.6,0c0.9,0,1.6,0.6,1.6,1.6l0,5.3
			c0,0.9-0.8,2-2.1,3.9l-14.3,20.4c5.3-0.1,10.9,0.7,15.8,3.4c1.1,0.6,1.4,1.5,1.5,2.4v6.6c0,0.9-1,2-2,1.4
			c-8.5-4.5-19.8-4.9-29.2,0.1c-1,0.5-2-0.5-2-1.4v-6.3c0-1,0-2.7,1-4.2l16.6-23.8l-14.4,0C342,78.2,341.3,77.6,341.3,76.7z"/>
		<path id="XMLID_245_" class="st0" d="M240.6,115.2h-8.4c-0.8-0.1-1.4-0.7-1.5-1.4l0-43.1c0-0.9,0.7-1.6,1.6-1.6l7.8,0
			c0.8,0,1.5,0.7,1.5,1.4v5.6h0.2c2-5.4,5.9-8,11.1-8c5.3,0,8.6,2.5,10.9,8c2-5.4,6.7-8,11.6-8c3.5,0,7.4,1.5,9.7,4.7
			c2.7,3.6,2.1,8.9,2.1,13.5l0,27.2c0,0.9-0.7,1.6-1.6,1.6h-8.4c-0.8-0.1-1.5-0.7-1.5-1.5l0-22.9c0-1.8,0.2-6.4-0.2-8.1
			c-0.6-2.9-2.5-3.7-4.9-3.7c-2,0-4.2,1.4-5,3.5c-0.9,2.2-0.8,5.8-0.8,8.3v22.9c0,0.9-0.7,1.6-1.6,1.6h-8.4
			c-0.8-0.1-1.5-0.7-1.5-1.5l0-22.9c0-4.8,0.8-11.9-5.2-11.9c-6,0-5.8,6.9-5.8,11.9l0,22.9C242.2,114.5,241.5,115.2,240.6,115.2z"/>
		<path id="XMLID_242_" class="st0" d="M395.9,68.2c12.5,0,19.2,10.7,19.2,24.3c0,13.2-7.5,23.6-19.2,23.6
			c-12.2,0-18.9-10.7-18.9-24.1C377,78.6,383.7,68.2,395.9,68.2z M396,77c-6.2,0-6.6,8.4-6.6,13.7c0,5.3-0.1,16.5,6.5,16.5
			c6.5,0,6.8-9.1,6.8-14.6c0-3.6-0.2-8-1.3-11.4C400.5,78.2,398.6,77,396,77z"/>
		<path id="XMLID_241_" class="st0" d="M431.3,115.2h-8.4c-0.8-0.1-1.5-0.7-1.5-1.5l0-43.1c0.1-0.8,0.8-1.4,1.6-1.4l7.8,0
			c0.7,0,1.3,0.5,1.5,1.2v6.6h0.2c2.4-5.9,5.6-8.7,11.5-8.7c3.8,0,7.5,1.4,9.8,5.1c2.2,3.4,2.2,9.3,2.2,13.4v27.1
			c-0.1,0.8-0.8,1.4-1.6,1.4h-8.4c-0.8-0.1-1.4-0.6-1.5-1.4V90.4c0-4.7,0.5-11.6-5.3-11.6c-2,0-3.9,1.4-4.9,3.4
			c-1.2,2.6-1.3,5.3-1.3,8.2v23.2C432.9,114.5,432.2,115.2,431.3,115.2z"/>
		<path id="XMLID_238_" class="st0" d="M319.3,94.6c0,3.3,0.1,6-1.6,8.9c-1.3,2.4-3.5,3.8-5.8,3.8c-3.2,0-5.1-2.5-5.1-6.1
			c0-7.2,6.4-8.5,12.5-8.5V94.6z M327.8,115.1c-0.6,0.5-1.4,0.5-2,0.2c-2.8-2.3-3.3-3.4-4.8-5.6c-4.6,4.7-7.9,6.1-13.9,6.1
			c-7.1,0-12.6-4.4-12.6-13.1c0-6.8,3.7-11.5,9-13.7c4.6-2,10.9-2.4,15.8-2.9V85c0-2,0.2-4.4-1-6.1c-1-1.5-3-2.2-4.7-2.2
			c-3.2,0-6.1,1.6-6.8,5c-0.1,0.8-0.7,1.5-1.5,1.5l-8.1-0.9c-0.7-0.2-1.5-0.7-1.3-1.8c1.9-9.9,10.8-12.9,18.8-12.9
			c4.1,0,9.4,1.1,12.7,4.2c4.1,3.8,3.7,8.9,3.7,14.5v13.1c0,3.9,1.6,5.7,3.2,7.8c0.5,0.8,0.7,1.7,0,2.2
			C332.5,111,329.5,113.6,327.8,115.1L327.8,115.1z"/>
		<path id="XMLID_235_" class="st0" d="M209.1,94.6c0,3.3,0.1,6-1.6,8.9c-1.3,2.4-3.5,3.8-5.8,3.8c-3.2,0-5.1-2.5-5.1-6.1
			c0-7.2,6.4-8.5,12.5-8.5V94.6z M217.6,115.1c-0.6,0.5-1.4,0.5-2,0.2c-2.8-2.3-3.3-3.4-4.8-5.6c-4.6,4.7-7.9,6.1-13.9,6.1
			c-7.1,0-12.6-4.4-12.6-13.1c0-6.8,3.7-11.5,9-13.7c4.6-2,10.9-2.4,15.8-2.9V85c0-2,0.2-4.4-1-6.1c-1-1.5-3-2.2-4.7-2.2
			c-3.2,0-6.1,1.6-6.8,5c-0.1,0.8-0.7,1.5-1.5,1.5l-8.1-0.9c-0.7-0.2-1.5-0.7-1.3-1.8c1.9-9.9,10.8-12.9,18.8-12.9
			c4.1,0,9.4,1.1,12.7,4.2c4.1,3.8,3.7,8.9,3.7,14.5v13.1c0,3.9,1.6,5.7,3.2,7.8c0.5,0.8,0.7,1.7,0,2.2
			C222.4,111,219.3,113.6,217.6,115.1L217.6,115.1z"/>
		<path id="XMLID_228_" class="st0" d="M626.9,107.7c-1.5,1-3.9,1.8-6.7,1.8c-4.4,0-8.5-0.5-12.6-1.8c-1-0.3-1.8-0.5-2.3-0.5
			c-0.8,0-1,0.5-1,1.5v2.6c0,0.8,0.3,1.3,0.5,1.8c0.3,0.3,0.8,0.8,1.5,1c4.1,1.8,8.8,2.6,13.9,2.6c5.4,0,9.5-1.3,12.9-3.9
			c3.4-2.6,4.9-5.9,4.9-10.3c0-3.1-0.8-5.4-2.3-7.5c-1.5-1.8-4.1-3.6-7.7-4.9l-7.2-2.8c-2.8-1-4.9-2.1-5.7-3.1c-1-1-1.5-2.1-1.5-3.9
			c0-3.9,2.8-5.9,8.8-5.9c3.4,0,6.7,0.5,9.8,1.5c1,0.3,1.8,0.5,2.1,0.5c0.8,0,1.3-0.5,1.3-1.5v-2.6c0-0.8-0.3-1.3-0.5-1.8
			c-0.3-0.5-0.8-0.8-1.5-1c-3.9-1.3-7.7-2.1-11.6-2.1c-4.9,0-9,1.3-12.1,3.6c-3.1,2.3-4.6,5.7-4.6,9.5c0,5.9,3.4,10.3,10.1,12.9
			l7.7,2.8c2.6,1,4.1,1.8,5.2,2.8c1,1,1.3,2.1,1.3,3.6C629.3,104.9,628.5,106.7,626.9,107.7L626.9,107.7z M654.5,51.3
			c-1-1-2.6-1.5-4.4-1.5s-3.1,0.5-4.1,1.5c-1,1-1.5,2.3-1.5,3.9c0,1.5,0.5,3.1,1.5,3.9c1,1,2.3,1.5,4.1,1.5s3.1-0.5,4.1-1.5
			c1-1,1.5-2.3,1.5-3.9C655.8,53.6,655.5,52.1,654.5,51.3L654.5,51.3z M653,68.8h-5.4c-1.3,0-1.8,0.5-1.8,1.8v42.8
			c0,1.3,0.5,1.8,1.8,1.8h5.4c1.3,0,1.8-0.5,1.8-1.8V70.6C654.8,69.6,654.3,68.8,653,68.8L653,68.8z M677.2,79.1
			c2.3-2.6,5.9-3.9,11.1-3.9c2.6,0,5.2,0.3,7.5,1c0.8,0.3,1,0.3,1.5,0.3c0.8,0,1.3-0.5,1.3-1.8v-2.6c0-0.8-0.3-1.5-0.5-1.8
			c-0.3-0.3-0.8-0.8-1.3-1c-3.4-0.8-6.7-1.5-9.8-1.5c-7.2,0-12.6,2.1-16.8,6.4c-3.9,4.1-5.9,10.3-5.9,18c0,7.7,1.8,13.7,5.7,17.8
			c3.9,4.1,9.3,6.2,16.5,6.2c3.9,0,7.5-0.5,10.3-1.8c0.8-0.3,1.3-0.5,1.5-1c0.3-0.3,0.3-1,0.3-1.8V109c0-1.3-0.5-1.8-1.3-1.8
			c-0.3,0-0.8,0-1.3,0.3c-2.8,0.8-5.7,1.3-8.2,1.3c-4.9,0-8.5-1.3-10.8-3.9c-2.3-2.6-3.4-6.7-3.4-12.1v-1.3
			C673.8,85.8,674.9,81.7,677.2,79.1L677.2,79.1z M537.5,115.2h5.4c1.3,0,1.8-0.5,1.8-1.8V81.2c0-4.4-1-7.7-3.4-10.1
			c-2.3-2.3-5.4-3.6-9.8-3.6c-5.9,0-12.1,2.1-18,6.4c-2.1-4.4-5.9-6.4-11.6-6.4c-5.7,0-11.3,2.1-17,5.9l-0.5-2.8
			c0-0.8-0.3-1-0.8-1.3c-0.3-0.3-0.8-0.3-1.3-0.3l-4.1,0c-1.3,0-1.8,0.5-1.8,1.8v42.8c0,1.3,0.5,1.8,1.8,1.8h5.4
			c1.3,0,1.8-0.5,1.8-1.8V78.9c4.4-2.6,8.8-4.1,13.4-4.1c2.6,0,4.4,0.8,5.4,2.3c1,1.5,1.8,3.6,1.8,6.7v29.6c0,1.3,0.5,1.8,1.8,1.8
			h5.4c1.3,0,1.8-0.5,1.8-1.8V81.7v-1.5c0-0.5,0-1,0-1.3c4.6-2.8,9-4.1,13.4-4.1c2.6,0,4.4,0.8,5.4,2.3c1,1.5,1.8,3.6,1.8,6.7v29.6
			C535.7,114.7,536.2,115.2,537.5,115.2L537.5,115.2z M586.5,70.6v34.3c-4.4,2.8-8.8,4.4-13.1,4.4c-2.8,0-4.9-0.8-6.2-2.3
			c-1.3-1.5-1.8-3.9-1.8-7.2V70.6c0-1.3-0.5-1.8-1.8-1.8h-5.4c-1.3,0-1.8,0.5-1.8,1.8v32c0,4.4,1,8,3.4,10.3
			c2.3,2.3,5.7,3.6,10.1,3.6c5.9,0,11.9-2.1,17.5-6.2l0.5,3.1c0,0.8,0.3,1,0.8,1.3c0.3,0.3,0.8,0.3,1.5,0.3h3.9
			c1.3,0,1.8-0.5,1.8-1.8V70.6c0-1.3-0.5-1.8-1.8-1.8h-5.4C587,68.8,586.5,69.6,586.5,70.6L586.5,70.6z"/>
	</g>
	<path id="XMLID_224_" class="st1" d="M867.8,6.1c4.7,0,8.5,3.8,8.5,8.5v170.1c0,4.7-3.8,8.5-8.5,8.5H15.2c-4.7,0-8.5-3.8-8.5-8.5
		V14.6c0-4.7,3.8-8.5,8.5-8.5H867.8 M867.8,0.4H15.2C7.3,0.4,1,6.8,1,14.6v170.1c0,7.8,6.3,14.2,14.2,14.2h852.6
		c7.8,0,14.2-6.3,14.2-14.2V14.6C882,6.8,875.6,0.4,867.8,0.4L867.8,0.4z"/>
</g>
</svg>
