<?xml version="1.0" encoding="utf-8"?>
<!-- Generator: Adobe Illustrator 19.0.0, SVG Export Plug-In . SVG Version: 6.00 Build 0)  -->
<svg version="1.1" id="Layer_1" xmlns="http://www.w3.org/2000/svg" xmlns:xlink="http://www.w3.org/1999/xlink" x="0px" y="0px"
	 viewBox="0 0 883 199.3" style="enable-background:new 0 0 883 199.3;" xml:space="preserve">
<style type="text/css">
	.st0{fill:#FFFFFF;}
</style>
<g>
	<g>
		<path class="st0" d="M265.3,102.9c-0.2-9.9,4.1-17.7,12.9-23.2c-4.9-7.2-12.2-11.2-21.8-12.1c-3.4-0.3-7.8,0.5-13.1,2.4
			c-5.7,2.1-8.9,3.2-9.7,3.2c-1.5,0-4.4-0.9-8.7-2.7c-4.3-1.8-8-2.7-11-2.7c-5.1,0.1-9.8,1.5-14.2,4.2c-4.4,2.7-7.9,6.5-10.5,11.2
			c-3.3,5.9-5,12.9-5,21c0,7.3,1.2,14.7,3.7,22c2.3,7,5.3,13.2,8.8,18.5c3.2,4.8,6,8.3,8.3,10.5c3.4,3.4,6.9,5.1,10.5,4.9
			c2.3-0.1,5.3-0.9,9.1-2.6c3.5-1.5,7-2.3,10.5-2.3c3.3,0,6.6,0.8,10.1,2.3c3.9,1.6,7.1,2.4,9.5,2.4c3.7-0.2,7.1-1.8,10.3-4.8
			c1.1-1,2.3-2.3,3.6-4c1.5-2,3-4,4.4-6.1c1.2-1.8,2.3-3.6,3.3-5.5c1.1-2,2.1-4.1,2.9-6.2c0.4-0.9,0.8-1.8,1.1-2.7
			c0.3-0.9,0.6-1.9,1-2.9c-2.9-1.3-5.6-3.1-8-5.5C268.1,117,265.4,110.5,265.3,102.9L265.3,102.9z M351.8,118.7h-0.6L327,63.3h-19
			v89.3h16.6V94.8h0.8l20.2,45.9h11.6l20.2-45.9h0.8v57.9H395V63.3h-18.9L351.8,118.7z M250.3,57.6c4.2-5.3,6.3-11,6.3-17.1v-1.2
			c0-0.4,0-0.8-0.1-1.2c-2.9,0.2-6.1,1.1-9.4,2.8c-3.3,1.7-6,3.9-8.2,6.5c-4.3,5.1-6.4,10.6-6.4,16.5V65c0,0.4,0,0.8,0.1,1.2
			C239.2,66.8,245.1,64,250.3,57.6L250.3,57.6z M588.7,63.3h18.6v89.3h-18.6V63.3z M663.7,77.5c11.1,0,16.9,8.5,16.9,17.7h17.9v-1.9
			c0-17.3-13.2-31.7-34.9-31.7c-23.3,0-37.1,15.3-37.1,41.4v10.1c0,26.1,13.8,41.2,37.1,41.2c22.3,0,35-14.6,35-30.8v-2h-17.9
			c0,9.2-5.7,16.9-16.8,16.9c-11.3,0-18.5-8.1-18.5-25.3v-10.1C645.3,86,652.6,77.5,663.7,77.5L663.7,77.5z M466.2,119.7
			c0,12-7,18.6-17.3,18.6c-10.3,0-17.4-6.5-17.4-18.6V63.3h-18.5v59c0,19,13.5,32,35.9,32c22.3,0,35.9-13,35.9-32v-59h-18.6V119.7
			L466.2,119.7z M546.5,100.6l-13.3-3c-7.8-1.6-12-5.1-12-10.3c0-6.9,5.6-11.2,14.6-11.2c10.2,0,15.2,5.8,15.7,12.1h17.4
			c-0.2-15.8-13.4-26.8-33-26.8c-18.6,0-33.2,9.8-33.2,27.3c0,15.2,10.3,22.2,22.6,24.9l13.2,3.1c8.9,2,13.4,5,13.4,11.1
			c0,6.9-5.5,11.7-15.9,11.7c-11.1,0-17-5.9-17.5-12.5h-17.9c0.3,12.6,8.6,27.4,34.5,27.4c21.7,0,35.2-10.8,35.2-28.3
			C570.2,109.8,559.3,103.4,546.5,100.6L546.5,100.6z"/>
	</g>
	<path class="st0" d="M867.6,5.7c4.7,0,8.5,3.8,8.5,8.5v170.1c0,4.7-3.8,8.5-8.5,8.5H15c-4.7,0-8.5-3.8-8.5-8.5V14.2
		c0-4.7,3.8-8.5,8.5-8.5H867.6 M867.6,0H15C7.2,0,0.8,6.3,0.8,14.2v170.1c0,7.8,6.3,14.2,14.2,14.2h852.6c7.8,0,14.2-6.3,14.2-14.2
		V14.2C881.8,6.3,875.5,0,867.6,0L867.6,0z"/>
</g>
</svg>
