<svg width="5267" height="310" viewBox="0 0 5267 310" fill="none" xmlns="http://www.w3.org/2000/svg">
<path d="M180.011 147.761C183.563 155.087 185.339 164.411 185.339 175.733C185.339 186.833 183.452 196.49 179.678 204.704C174.35 216.914 165.248 226.238 152.372 232.676C139.496 238.892 123.734 242 105.086 242H0.857031V6.90199H106.085C122.735 6.90199 136.61 9.78799 147.71 15.56C158.81 21.11 166.691 29.102 171.353 39.536C173.129 43.532 174.461 47.528 175.349 51.524C176.237 55.52 176.681 59.96 176.681 64.844C176.681 69.728 176.237 74.057 175.349 77.831C174.683 81.605 173.573 85.268 172.019 88.82C166.691 101.696 155.48 110.687 138.386 115.793C149.042 118.901 157.7 123.119 164.36 128.447C171.242 133.553 176.459 139.991 180.011 147.761ZM60.797 101.141H80.444C96.428 101.141 106.529 96.479 110.747 87.155C111.635 84.935 112.301 82.826 112.745 80.828C113.189 78.608 113.411 75.944 113.411 72.836C113.411 70.172 113.189 67.841 112.745 65.843C112.301 63.845 111.635 61.847 110.747 59.849C106.529 50.525 96.317 45.863 80.111 45.863H60.797V101.141ZM117.407 186.389C119.405 181.949 120.404 177.065 120.404 171.737C120.404 166.853 119.405 162.08 117.407 157.418C114.965 151.868 110.747 147.872 104.753 145.43C98.759 142.766 91.1 141.434 81.776 141.434H60.797V202.373H81.443C90.989 202.373 98.759 201.152 104.753 198.71C110.747 196.046 114.965 191.939 117.407 186.389ZM316.796 199.043C318.794 197.489 320.348 195.602 321.458 193.382C322.568 190.94 323.345 188.498 323.789 186.056H380.066C378.734 201.818 372.407 214.805 361.085 225.017C353.093 232.343 343.325 237.782 331.781 241.334C320.459 244.886 308.027 246.662 294.485 246.662C274.061 246.662 256.523 242.777 241.871 235.007C227.219 227.015 216.563 215.582 209.903 200.708C204.575 188.72 201.911 174.623 201.911 158.417C201.911 149.759 202.577 142.211 203.909 135.773C205.241 129.113 207.239 122.786 209.903 116.792C216.341 102.14 226.553 90.818 240.539 82.826C254.525 74.834 271.286 70.838 290.822 70.838C310.58 70.838 327.452 74.945 341.438 83.159C355.646 91.373 366.08 102.806 372.74 117.458C376.292 125.228 378.623 133.109 379.733 141.101C380.843 149.093 381.398 159.527 381.398 172.403H258.188C258.854 180.395 260.186 186.278 262.184 190.052C266.846 200.708 277.28 206.036 293.486 206.036C303.698 206.036 311.468 203.705 316.796 199.043ZM291.821 110.132C284.495 110.132 278.279 111.575 273.173 114.461C268.289 117.125 264.626 121.121 262.184 126.449C261.074 128.669 260.186 130.889 259.52 133.109C259.076 135.107 258.743 137.66 258.521 140.768H324.788C324.566 137.66 324.233 135.107 323.789 133.109C323.345 130.889 322.568 128.669 321.458 126.449C316.574 115.571 306.695 110.132 291.821 110.132ZM631.426 111.131C637.42 124.895 640.417 140.768 640.417 158.75C640.417 176.954 637.42 192.938 631.426 206.702C625.432 219.356 616.885 229.235 605.785 236.339C594.907 243.221 581.92 246.662 566.824 246.662C544.846 246.662 528.196 239.003 516.874 223.685V309.266H461.263V75.833H515.542V95.813C527.308 79.163 544.402 70.838 566.824 70.838C581.92 70.838 594.907 74.39 605.785 81.494C616.885 88.376 625.432 98.255 631.426 111.131ZM577.147 184.391C579.811 178.397 581.143 169.85 581.143 158.75C581.143 147.428 579.811 138.77 577.147 132.776C574.705 127.226 571.042 123.119 566.158 120.455C561.274 117.569 555.391 116.126 548.509 116.126C538.075 116.126 530.083 119.345 524.533 125.783C518.983 132.221 516.208 141.656 516.208 154.088V163.079C516.208 175.511 518.983 184.946 524.533 191.384C530.083 197.822 538.075 201.041 548.509 201.041C555.391 201.041 561.274 199.709 566.158 197.045C571.042 194.159 574.705 189.941 577.147 184.391ZM815.12 105.47C819.782 116.348 822.113 130.001 822.113 146.429V242H766.502V222.353C760.73 230.345 753.404 236.45 744.524 240.668C735.644 244.664 724.655 246.662 711.557 246.662C698.237 246.662 686.804 244.331 677.258 239.669C667.934 234.785 661.274 227.792 657.278 218.69C654.17 212.474 652.616 204.593 652.616 195.047C652.616 186.167 653.948 178.619 656.612 172.403C662.162 160.193 672.041 151.868 686.249 147.428C700.457 142.766 718.883 140.435 741.527 140.435H766.502V137.771C766.502 132.887 766.28 129.224 765.836 126.782C765.614 124.34 764.948 122.009 763.838 119.789C760.508 112.463 752.849 108.8 740.861 108.8C734.423 108.8 729.317 109.688 725.543 111.464C721.769 113.018 718.994 115.682 717.218 119.456C716.552 121.01 716.108 122.564 715.886 124.118C715.664 125.672 715.442 127.448 715.22 129.446H658.61C658.832 120.566 660.497 112.796 663.605 106.136C668.933 94.37 678.146 85.601 691.244 79.829C704.564 73.835 720.881 70.838 740.195 70.838C760.397 70.838 776.492 73.613 788.48 79.163C800.69 84.713 809.57 93.482 815.12 105.47ZM734.534 207.035C749.408 207.035 759.065 202.04 763.505 192.05C764.615 189.83 765.392 187.388 765.836 184.724C766.28 182.06 766.502 178.397 766.502 173.735V171.404H745.19C736.088 171.404 728.762 172.181 723.212 173.735C717.884 175.067 714.332 177.731 712.556 181.727C711.446 183.947 710.891 186.389 710.891 189.053C710.891 192.161 711.446 194.825 712.556 197.045C715.664 203.705 722.99 207.035 734.534 207.035ZM848.246 75.833H903.524V90.818C907.742 83.936 912.293 78.941 917.177 75.833C922.283 72.725 928.166 71.171 934.826 71.171C944.816 71.171 952.697 74.168 958.469 80.162C964.463 85.934 967.46 93.704 967.46 103.472C967.46 109.688 966.128 115.238 963.464 120.122C960.8 125.006 957.026 128.891 952.142 131.777C947.258 134.441 941.708 135.773 935.492 135.773C929.72 135.773 924.503 134.441 919.841 131.777C915.179 128.891 911.738 125.228 909.518 120.788C907.076 121.898 905.522 123.452 904.856 125.45C904.19 127.448 903.857 131.333 903.857 137.105V242H848.246V75.833ZM1055.07 244.997C1041.53 244.997 1030.65 243.11 1022.43 239.336C1014.22 235.562 1008.11 229.568 1004.12 221.354C1000.34 213.14 998.457 202.04 998.457 188.054V119.123H976.146V75.833H998.457V36.206H1054.07V75.833H1093.03V119.123H1054.07V178.397C1054.07 186.611 1055.62 192.383 1058.73 195.713C1062.06 199.043 1067.28 200.708 1074.38 200.708C1079.93 200.708 1085.7 199.931 1091.7 198.377V241.334C1079.93 243.776 1067.72 244.997 1055.07 244.997ZM1255.08 246.662C1234.88 246.662 1217.56 242.666 1203.13 234.674C1188.92 226.46 1178.49 214.916 1171.83 200.042C1166.5 188.054 1163.84 174.29 1163.84 158.75C1163.84 143.432 1166.5 129.779 1171.83 117.791C1178.49 102.917 1188.92 91.373 1203.13 83.159C1217.56 74.945 1234.88 70.838 1255.08 70.838C1275.28 70.838 1292.49 74.945 1306.7 83.159C1320.9 91.151 1331.34 102.584 1338 117.458C1343.55 129.224 1346.32 142.988 1346.32 158.75C1346.32 174.734 1343.55 188.609 1338 200.375C1331.34 215.027 1320.9 226.46 1306.7 234.674C1292.49 242.666 1275.28 246.662 1255.08 246.662ZM1255.08 201.707C1268.84 201.707 1278.17 196.49 1283.05 186.056C1284.61 182.726 1285.61 178.952 1286.05 174.734C1286.72 170.294 1287.05 164.966 1287.05 158.75C1287.05 146.318 1285.72 137.327 1283.05 131.777C1278.39 121.343 1269.07 116.126 1255.08 116.126C1241.32 116.126 1231.99 121.343 1227.11 131.777C1224.44 137.993 1223.11 146.984 1223.11 158.75C1223.11 170.294 1224.44 179.396 1227.11 186.056C1231.99 196.49 1241.32 201.707 1255.08 201.707ZM1376.29 119.123H1355.97V75.833H1376.29V60.848C1376.29 46.862 1378.51 35.54 1382.95 26.882C1387.61 18.002 1394.82 11.453 1404.59 7.23499C1414.58 3.01699 1427.46 0.907988 1443.22 0.907988C1447.66 0.907988 1452.21 1.24099 1456.87 1.90699C1461.76 2.35099 1466.09 3.01699 1469.86 3.90499V47.861C1465.64 46.085 1460.2 45.197 1453.54 45.197C1446.44 45.197 1441 46.973 1437.23 50.525C1433.67 54.077 1431.9 59.294 1431.9 66.176V75.833H1468.86V119.123H1431.9V242H1376.29V119.123ZM1616.35 244.997C1602.81 244.997 1591.93 243.11 1583.72 239.336C1575.51 235.562 1569.4 229.568 1565.41 221.354C1561.63 213.14 1559.74 202.04 1559.74 188.054V119.123H1537.43V75.833H1559.74V36.206H1615.36V75.833H1654.32V119.123H1615.36V178.397C1615.36 186.611 1616.91 192.383 1620.02 195.713C1623.35 199.043 1628.56 200.708 1635.67 200.708C1641.22 200.708 1646.99 199.931 1652.98 198.377V241.334C1641.22 243.776 1629.01 244.997 1616.35 244.997ZM1779.18 70.838C1797.82 70.838 1812.25 76.388 1822.47 87.488C1832.9 98.588 1838.12 114.461 1838.12 135.107V242H1782.51V147.095C1782.51 136.217 1780.4 128.336 1776.18 123.452C1771.96 118.568 1765.41 116.126 1756.53 116.126C1747.21 116.126 1740.1 118.901 1735.22 124.451C1730.56 129.779 1728.23 137.882 1728.23 148.76V242H1672.62V6.90199H1728.23V96.479C1739.99 79.385 1756.98 70.838 1779.18 70.838ZM1971.39 199.043C1973.39 197.489 1974.94 195.602 1976.05 193.382C1977.16 190.94 1977.94 188.498 1978.38 186.056H2034.66C2033.33 201.818 2027 214.805 2015.68 225.017C2007.69 232.343 1997.92 237.782 1986.37 241.334C1975.05 244.886 1962.62 246.662 1949.08 246.662C1928.65 246.662 1911.12 242.777 1896.46 235.007C1881.81 227.015 1871.16 215.582 1864.5 200.708C1859.17 188.72 1856.5 174.623 1856.5 158.417C1856.5 149.759 1857.17 142.211 1858.5 135.773C1859.83 129.113 1861.83 122.786 1864.5 116.792C1870.93 102.14 1881.15 90.818 1895.13 82.826C1909.12 74.834 1925.88 70.838 1945.42 70.838C1965.17 70.838 1982.05 74.945 1996.03 83.159C2010.24 91.373 2020.67 102.806 2027.33 117.458C2030.89 125.228 2033.22 133.109 2034.33 141.101C2035.44 149.093 2035.99 159.527 2035.99 172.403H1912.78C1913.45 180.395 1914.78 186.278 1916.78 190.052C1921.44 200.708 1931.87 206.036 1948.08 206.036C1958.29 206.036 1966.06 203.705 1971.39 199.043ZM1946.41 110.132C1939.09 110.132 1932.87 111.575 1927.77 114.461C1922.88 117.125 1919.22 121.121 1916.78 126.449C1915.67 128.669 1914.78 130.889 1914.11 133.109C1913.67 135.107 1913.34 137.66 1913.11 140.768H1979.38C1979.16 137.66 1978.83 135.107 1978.38 133.109C1977.94 130.889 1977.16 128.669 1976.05 126.449C1971.17 115.571 1961.29 110.132 1946.41 110.132ZM2118.85 6.90199H2179.13V98.81H2265.04V6.90199H2325.31V242H2265.04V148.427H2179.13V242H2118.85V6.90199ZM2358.52 6.90199H2418.8L2511.7 152.09V6.90199H2570.31V242H2509.37L2417.13 97.145V242H2358.52V6.90199ZM2672.98 148.094H2663.99V242H2603.72V6.90199H2707.95C2745.25 6.90199 2769.44 19.001 2780.54 43.199C2784.76 52.967 2786.87 64.4 2786.87 77.498C2786.87 83.936 2786.32 90.152 2785.21 96.146C2784.1 102.14 2782.54 107.468 2780.54 112.13C2773 130.778 2758.34 142.1 2736.59 146.096L2804.85 242H2736.59L2672.98 148.094ZM2663.99 108.134H2690.3C2698.74 108.134 2705.62 107.024 2710.95 104.804C2716.27 102.584 2720.05 99.143 2722.27 94.481C2724.27 90.485 2725.27 85.49 2725.27 79.496C2725.27 73.724 2724.27 68.84 2722.27 64.844C2720.05 60.182 2716.27 56.852 2710.95 54.854C2705.62 52.856 2698.74 51.857 2690.3 51.857H2663.99V108.134ZM2862 140.768L2785.41 6.90199H2850.68L2891.97 83.825L2933.26 6.90199H2998.53L2922.27 140.768V242H2862V140.768ZM3161.54 248.327C3137.79 248.327 3118.14 244.331 3102.6 236.339C3087.06 228.125 3076.07 217.025 3069.63 203.039C3065.41 193.715 3063.3 182.726 3063.3 170.072H3129.57C3129.57 177.398 3130.57 183.059 3132.57 187.055C3137.23 197.933 3147.66 203.372 3163.87 203.372C3171.2 203.372 3177.41 202.151 3182.52 199.709C3187.62 197.267 3191.29 193.826 3193.51 189.386C3194.84 186.5 3195.51 182.948 3195.51 178.73C3195.51 174.734 3194.84 171.293 3193.51 168.407C3191.73 164.189 3188.62 160.637 3184.18 157.751C3179.74 154.865 3174.64 152.534 3168.87 150.758C3163.09 148.76 3155.66 146.54 3146.55 144.098C3144.56 143.654 3139.12 142.1 3130.24 139.436C3116.47 135.44 3104.71 130.334 3094.94 124.118C3085.39 117.68 3078.4 109.577 3073.96 99.809C3070.41 92.039 3068.63 83.048 3068.63 72.836C3068.63 63.068 3070.63 53.411 3074.63 43.865C3080.62 30.323 3091.17 19.778 3106.26 12.23C3121.58 4.45999 3139.89 0.574992 3161.21 0.574992C3181.85 0.574992 3199.5 4.23799 3214.15 11.564C3228.81 18.89 3239.24 29.435 3245.46 43.199C3247.68 48.305 3249.23 53.411 3250.12 58.517C3251.23 63.401 3251.78 69.062 3251.78 75.5H3189.18C3189.18 71.726 3188.96 68.507 3188.51 65.843C3188.07 63.179 3187.29 60.626 3186.18 58.184C3181.96 48.86 3172.86 44.198 3158.88 44.198C3151.99 44.198 3146.22 45.308 3141.56 47.528C3136.9 49.748 3133.68 52.856 3131.9 56.852C3130.79 59.294 3130.24 62.18 3130.24 65.51C3130.24 69.062 3130.79 72.059 3131.9 74.501C3133.46 78.053 3136.12 81.05 3139.89 83.492C3143.89 85.934 3148.55 88.043 3153.88 89.819C3159.21 91.373 3166.2 93.26 3174.86 95.48C3183.07 97.7 3188.29 99.143 3190.51 99.809C3207.6 104.471 3221.59 109.91 3232.47 116.126C3243.57 122.342 3251.45 130.889 3256.11 141.767C3259.89 150.425 3261.77 160.304 3261.77 171.404C3261.77 182.948 3259.66 193.604 3255.45 203.372C3248.79 217.802 3237.24 228.902 3220.81 236.672C3204.61 244.442 3184.85 248.327 3161.54 248.327ZM3317.4 56.519H3266.78V6.90199H3427.96V56.519H3377.67V242H3317.4V56.519ZM3715.25 70.838C3733.67 70.838 3747.77 76.388 3757.54 87.488C3767.3 98.588 3772.19 114.461 3772.19 135.107V242H3716.58V146.762C3716.58 136.106 3714.58 128.336 3710.58 123.452C3706.59 118.568 3700.37 116.126 3691.94 116.126C3683.28 116.126 3676.73 118.901 3672.29 124.451C3667.85 130.001 3665.63 138.104 3665.63 148.76V242H3610.35V146.762C3610.35 136.106 3608.24 128.336 3604.02 123.452C3600.03 118.568 3593.81 116.126 3585.38 116.126C3576.94 116.126 3570.5 118.901 3566.06 124.451C3561.62 129.779 3559.4 137.882 3559.4 148.76V242H3503.79V75.833H3559.4V95.813C3564.73 88.043 3571.72 81.938 3580.38 77.498C3589.04 73.058 3599.14 70.838 3610.68 70.838C3623.12 70.838 3633.55 73.169 3641.99 77.831C3650.64 82.493 3656.97 89.597 3660.97 99.143C3667.18 89.597 3674.73 82.493 3683.61 77.831C3692.49 73.169 3703.04 70.838 3715.25 70.838ZM3871.36 198.377H3943.29V242H3784.11L3862.7 119.123H3791.77V75.833H3946.29L3871.36 198.377ZM4068.24 242L4016.63 172.736V242H3961.02V6.90199H4016.63V130.112L4062.91 75.833H4131.84L4064.91 150.758L4139.17 242H4068.24ZM4211.49 6.90199H4344.35V56.519H4271.76V99.143H4343.69V147.761H4271.76V242H4211.49V6.90199ZM4516.82 105.47C4521.48 116.348 4523.81 130.001 4523.81 146.429V242H4468.2V222.353C4462.43 230.345 4455.1 236.45 4446.22 240.668C4437.34 244.664 4426.35 246.662 4413.26 246.662C4399.94 246.662 4388.5 244.331 4378.96 239.669C4369.63 234.785 4362.97 227.792 4358.98 218.69C4355.87 212.474 4354.31 204.593 4354.31 195.047C4354.31 186.167 4355.65 178.619 4358.31 172.403C4363.86 160.193 4373.74 151.868 4387.95 147.428C4402.16 142.766 4420.58 140.435 4443.23 140.435H4468.2V137.771C4468.2 132.887 4467.98 129.224 4467.53 126.782C4467.31 124.34 4466.65 122.009 4465.54 119.789C4462.21 112.463 4454.55 108.8 4442.56 108.8C4436.12 108.8 4431.02 109.688 4427.24 111.464C4423.47 113.018 4420.69 115.682 4418.92 119.456C4418.25 121.01 4417.81 122.564 4417.58 124.118C4417.36 125.672 4417.14 127.448 4416.92 129.446H4360.31C4360.53 120.566 4362.2 112.796 4365.3 106.136C4370.63 94.37 4379.84 85.601 4392.94 79.829C4406.26 73.835 4422.58 70.838 4441.89 70.838C4462.1 70.838 4478.19 73.613 4490.18 79.163C4502.39 84.713 4511.27 93.482 4516.82 105.47ZM4436.23 207.035C4451.11 207.035 4460.76 202.04 4465.2 192.05C4466.31 189.83 4467.09 187.388 4467.53 184.724C4467.98 182.06 4468.2 178.397 4468.2 173.735V171.404H4446.89C4437.79 171.404 4430.46 172.181 4424.91 173.735C4419.58 175.067 4416.03 177.731 4414.25 181.727C4413.14 183.947 4412.59 186.389 4412.59 189.053C4412.59 192.161 4413.14 194.825 4414.25 197.045C4417.36 203.705 4424.69 207.035 4436.23 207.035ZM4761.4 70.838C4779.83 70.838 4793.92 76.388 4803.69 87.488C4813.46 98.588 4818.34 114.461 4818.34 135.107V242H4762.73V146.762C4762.73 136.106 4760.73 128.336 4756.74 123.452C4752.74 118.568 4746.53 116.126 4738.09 116.126C4729.43 116.126 4722.88 118.901 4718.44 124.451C4714 130.001 4711.78 138.104 4711.78 148.76V242H4656.5V146.762C4656.5 136.106 4654.4 128.336 4650.18 123.452C4646.18 118.568 4639.97 116.126 4631.53 116.126C4623.09 116.126 4616.66 118.901 4612.22 124.451C4607.78 129.779 4605.56 137.882 4605.56 148.76V242H4549.94V75.833H4605.56V95.813C4610.88 88.043 4617.88 81.938 4626.53 77.498C4635.19 73.058 4645.29 70.838 4656.84 70.838C4669.27 70.838 4679.7 73.169 4688.14 77.831C4696.8 82.493 4703.12 89.597 4707.12 99.143C4713.34 89.597 4720.88 82.493 4729.76 77.831C4738.64 73.169 4749.19 70.838 4761.4 70.838ZM4871.89 58.517C4866.34 58.517 4861.35 57.407 4856.91 55.187C4852.47 52.745 4848.92 49.415 4846.25 45.197C4843.81 40.979 4842.59 36.206 4842.59 30.878C4842.59 25.55 4843.81 20.777 4846.25 16.559C4848.92 12.341 4852.47 9.12199 4856.91 6.90199C4861.35 4.45999 4866.34 3.239 4871.89 3.239C4877.44 3.239 4882.44 4.45999 4886.88 6.90199C4891.32 9.12199 4894.76 12.341 4897.2 16.559C4899.86 20.777 4901.2 25.55 4901.2 30.878C4901.2 36.206 4899.86 40.979 4897.2 45.197C4894.76 49.415 4891.32 52.745 4886.88 55.187C4882.44 57.407 4877.44 58.517 4871.89 58.517ZM4843.92 75.833H4899.53V242H4843.92V75.833ZM4926.85 6.90199H4982.46V242H4926.85V6.90199ZM5181.6 75.833L5114.67 242L5087.69 309.266H5032.08L5059.39 241.334L4994.79 75.833H5054.73L5089.02 182.06L5123.32 75.833H5181.6ZM5204.15 6.90199H5265.09L5256.43 164.744H5212.15L5204.15 6.90199ZM5234.79 248.327C5228.35 248.327 5222.69 246.995 5217.81 244.331C5212.92 241.667 5209.04 238.004 5206.15 233.342C5203.49 228.458 5202.16 222.908 5202.16 216.692C5202.16 207.146 5205.15 199.487 5211.15 193.715C5217.14 187.943 5225.02 185.057 5234.79 185.057C5244.34 185.057 5251.99 187.943 5257.77 193.715C5263.76 199.487 5266.76 207.146 5266.76 216.692C5266.76 226.238 5263.76 233.897 5257.77 239.669C5251.99 245.441 5244.34 248.327 5234.79 248.327Z" fill="white"/>
</svg>
