<?xml version="1.0" encoding="utf-8"?>
<!-- Generator: Adobe Illustrator 19.0.0, SVG Export Plug-In . SVG Version: 6.00 Build 0)  -->
<svg version="1.1" id="Layer_1" xmlns="http://www.w3.org/2000/svg" xmlns:xlink="http://www.w3.org/1999/xlink" x="0px" y="0px"
	 viewBox="0 0 105.4 228" style="enable-background:new 0 0 105.4 228;" xml:space="preserve">
<style type="text/css">
	.st0{fill:#FFFFFF;}
</style>
<g id="XMLID_2_">
	<g id="XMLID_73_">
		<path id="XMLID_79_" class="st0" d="M30.9,78.5c-4.7,0-8.8-0.8-12.3-2.4C13.4,73.8,9.4,70,6.7,64.5c-2.7-5.5-4-12.2-4-20.1V0
			h100.1v44.8c0,7.1-1.2,13-3.6,17.7c-2.4,4.7-5.8,8.1-10.3,10.1c-1.7,0.8-3.4,1.3-5.1,1.7c-1.7,0.4-3.6,0.6-5.7,0.6
			c-2.1,0-3.9-0.2-5.5-0.5c-1.6-0.3-3.2-0.8-4.7-1.5c-5.5-2.3-9.3-7-11.5-14.3c-1.3,4.5-3.1,8.2-5.3,11.1c-2.2,2.9-5,5.1-8.3,6.6
			C39.7,77.8,35.7,78.5,30.9,78.5z M32.6,50.9c2.1,0,4.1-0.4,6.1-1.3c2.4-1,4.1-2.8,5.2-5.4c1.1-2.6,1.6-5.8,1.6-9.8v-8.9H19.6v8.8
			c0,4.1,0.5,7.4,1.6,9.9c1.1,2.6,2.8,4.3,5.2,5.4C28.3,50.5,30.3,50.9,32.6,50.9z M62.6,25.5v8.4c0,6.8,2,11.1,6,12.9
			c0.9,0.4,1.9,0.7,2.8,0.9c0.9,0.2,2,0.3,3.3,0.3c1.1,0,2.1-0.1,3-0.3c0.9-0.2,1.7-0.5,2.6-0.9c4-1.8,6-6.1,6-13v-8.2H62.6z"/>
		<path id="XMLID_77_" class="st0" d="M102.8,89.3v25.7H2.7V89.3H102.8z"/>
		<path id="XMLID_74_" class="st0" d="M6.1,149.5c4.1-7.4,9.9-13,17.4-16.8c3.9-2.2,8.3-3.8,13.3-5c5-1.1,10.3-1.7,15.9-1.7
			c9.9,0,18.8,1.7,26.6,5.1c8.3,3.7,14.7,9.4,19.3,17.1c4.5,7.7,6.8,17.1,6.8,27.9c0,10.9-2.2,20.1-6.7,27.9
			c-4.5,7.7-10.8,13.4-19.1,17.1c-8,3.4-17,5.1-26.9,5.1c-10.2,0-19.2-1.7-27.1-5.2c-8.2-3.7-14.6-9.4-19-17
			C2.2,196.3,0,187,0,176.2C0,165.8,2,156.9,6.1,149.5z M25.8,188.6c2.1,3.3,5.1,5.7,8.9,7.4c2.4,1,5,1.8,7.8,2.3
			c2.8,0.5,6.2,0.7,10.2,0.7c4,0,7.4-0.2,10.2-0.6c2.8-0.4,5.5-1.2,7.9-2.2c7.9-3.8,11.9-10.4,11.9-20c0-9.7-4-16.4-11.9-20
			c-2.4-1-4.9-1.8-7.7-2.2c-2.8-0.4-6.3-0.6-10.4-0.6c-4,0-7.4,0.2-10.2,0.7c-2.8,0.5-5.4,1.2-7.8,2.3c-8,3.6-12,10.2-12,19.8
			C22.7,181.2,23.7,185.3,25.8,188.6z"/>
	</g>
</g>
</svg>
