<svg width="229" height="106" viewBox="0 0 229 106" fill="none" xmlns="http://www.w3.org/2000/svg">
<g clip-path="url(#clip0_79_176)">
<path d="M79.2 74.8C79.2 79.5 78.3999 83.6 76.7999 87.1C74.4999 92.3 70.7 96.3 65.2 99C59.7 101.7 53 103 45.1 103H0.699951L0.699951 2.89999H45.5C52.6 2.89999 58.5 4.1 63.2 6.5C67.9 8.9 71.2999 12.3 73.2999 16.8C74.0999 18.5 74.6 20.2 75 21.9C75.4 23.6 75.6 25.5 75.6 27.6C75.6 29.7 75.4 31.5 75.1 33.1C74.8 34.7 74.3 36.3 73.6 37.8C71.3 43.3 66.5999 47.1 59.2999 49.3C63.7999 50.6 67.4999 52.4 70.3999 54.6C73.2999 56.8 75.5 59.6 77 62.9C78.5 66 79.2 70 79.2 74.8ZM51.6 73.1C51.6 71 51.1999 69 50.2999 67C49.2999 64.6 47.5 62.9 44.9 61.8C42.3 60.7 39.1 60.2 35.1 60.2H26.2L26.2 86.1H35C39.1 86.1 42.4 85.6 44.9 84.5C47.5 83.4 49.1999 81.7 50.2999 79.3C51.1999 77.4 51.6 75.4 51.6 73.1ZM26.2 43.1H34.6C41.4 43.1 45.7 41.1 47.5 37.1C47.9 36.2 48.2 35.2 48.4 34.3C48.6 33.4 48.7 32.3 48.7 31C48.7 29.9 48.6 28.9 48.4 28C48.2 27.1 47.9 26.3 47.5 25.4C45.7 21.4 41.4 19.4 34.5 19.4H26.3V43.1H26.2Z" fill="white"/>
<path d="M90 2.89999H115.7L115.7 103H90L90 2.89999Z" fill="white"/>
<path d="M150.2 99.6C142.8 95.5 137.2 89.7 133.4 82.2C131.2 78.3 129.6 73.9 128.4 68.9C127.3 63.9 126.7 58.6 126.7 53C126.7 43.1 128.4 34.2 131.8 26.4C135.5 18.1 141.2 11.7 148.9 7.10001C156.6 2.60001 166 0.300011 176.8 0.300011C187.7 0.300011 196.9 2.50002 204.7 7.00002C212.4 11.5 218.1 17.8 221.8 26.1C225.2 34.1 226.9 43.1 226.9 53C226.9 63.2 225.2 72.2 221.7 80.1C218 88.3 212.3 94.7 204.7 99.1C197 103.5 187.7 105.7 176.9 105.7C166.5 105.7 157.6 103.7 150.2 99.6ZM189.3 79.9C192.6 77.8 195 74.8 196.7 71C197.7 68.6 198.5 66 199 63.2C199.5 60.4 199.7 57 199.7 53C199.7 49 199.5 45.6 199.1 42.8C198.7 40 197.9 37.3 196.9 34.9C193.1 27 186.5 23 176.9 23C167.2 23 160.5 27 156.9 34.9C155.9 37.3 155.1 39.8 154.7 42.6C154.3 45.4 154.1 48.9 154.1 53C154.1 57 154.3 60.4 154.8 63.2C155.3 66 156 68.6 157.1 71C160.7 79 167.3 83 176.9 83C181.9 83 186 82 189.3 79.9Z" fill="white"/>
</g>
<defs>
<clipPath id="clip0_79_176">
<rect width="105.4" height="228" fill="white" transform="translate(0.699951 105.7) rotate(-90)"/>
</clipPath>
</defs>
</svg>
