<?xml version="1.0" encoding="utf-8"?>
<!-- Generator: Adobe Illustrator 19.0.0, SVG Export Plug-In . SVG Version: 6.00 Build 0)  -->
<svg version="1.1" id="Layer_1" xmlns="http://www.w3.org/2000/svg" xmlns:xlink="http://www.w3.org/1999/xlink" x="0px" y="0px"
	 viewBox="0 0 883 199.3" style="enable-background:new 0 0 883 199.3;" xml:space="preserve">
<style type="text/css">
	.st0{fill:#FFFFFF;}
	.st1{fill-rule:evenodd;clip-rule:evenodd;fill:#FFFFFF;}
</style>
<g id="XMLID_223_">
	<g id="XMLID_227_">
		<path id="XMLID_249_" class="st0" d="M303.9,115.7c0,20.6,12.7,32.9,31.5,32.9c9.4,0,17.3-2.6,21.7-9.5v9.5h17.2V50.5h-17.9v41.7
			c-4-6.9-11.6-10-21-10C317.2,82.3,303.9,94.9,303.9,115.7z M357.1,115.7c0,11.8-8,19.1-17.6,19.1c-10,0-17.6-7.3-17.6-19.1
			c0-11.9,7.7-19.5,17.6-19.5C349.1,96.3,357.1,103.9,357.1,115.7z"/>
		<path id="XMLID_246_" class="st0" d="M430,123.4c-2.1,7.6-7.2,11.4-15.4,11.4c-9.5,0-17.3-5.7-17.5-15.9h45.1
			c0.6-2.5,0.8-5.2,0.8-8.1c0-18.3-12.4-28.5-30.8-28.5c-19.6,0-33,13.9-33,32.8c0,21.1,14.9,33.7,35.4,33.7
			c15.5,0,26.1-6.5,30.7-19.4L430,123.4z M397.1,106.9c1.7-7.3,7.8-11.7,15.1-11.7c8,0,13.5,4.3,13.5,11.1l-0.1,0.6L397.1,106.9z"/>
		<path id="XMLID_243_" class="st0" d="M496.3,123.4c-2.1,7.6-7.2,11.4-15.4,11.4c-9.5,0-17.3-5.7-17.5-15.9h45.1
			c0.6-2.5,0.8-5.2,0.8-8.1c0-18.3-12.4-28.5-30.8-28.5c-19.6,0-33,13.9-33,32.8c0,21.1,14.9,33.7,35.4,33.7
			c15.5,0,26.1-6.5,30.7-19.4L496.3,123.4z M463.4,106.9c1.7-7.3,7.8-11.7,15.1-11.7c8,0,13.5,4.3,13.5,11.1l-0.1,0.6L463.4,106.9z"
			/>
		<path id="XMLID_242_" class="st0" d="M572.4,148.8v-16.2h-37.5L571.3,97V82.3h-57.8v15.4h35.3l-36.4,35.7v15.4H572.4z"/>
		<path id="XMLID_239_" class="st0" d="M624.6,123.4c-2.1,7.6-7.2,11.4-15.4,11.4c-9.5,0-17.3-5.7-17.5-15.9h45.1
			c0.6-2.5,0.8-5.2,0.8-8.1c0-18.3-12.4-28.5-30.8-28.5c-19.6,0-33,13.9-33,32.8c0,21.1,14.9,33.7,35.4,33.7
			c15.5,0,26.1-6.5,30.7-19.4L624.6,123.4z M591.6,106.9c1.7-7.3,7.8-11.7,15.1-11.7c8,0,13.5,4.3,13.5,11.1l-0.1,0.6L591.6,106.9z"
			/>
		<path id="XMLID_238_" class="st0" d="M679.9,105.2c0,0.7,0,1.9,0,1.9h17.4c0,0,0-3.3,0-5.1c0-11.4-7.2-19.7-19.1-19.7
			c-7.7,0-13.2,3.8-16,10v-10h-18v66.4h18V106c0-6.8,3.7-10.5,9.2-10.5C676.6,95.5,679.9,100.3,679.9,105.2z"/>
		<rect id="XMLID_237_" x="263.6" y="82.3" class="st1" width="22" height="12.9"/>
		<rect id="XMLID_236_" x="263.6" y="100.1" class="st1" width="22" height="12.9"/>
		<rect id="XMLID_235_" x="263.6" y="118" class="st1" width="22" height="12.9"/>
		<rect id="XMLID_234_" x="183.7" y="135.9" class="st1" width="22" height="12.9"/>
		<rect id="XMLID_233_" x="210.3" y="135.9" class="st1" width="22" height="12.9"/>
		<rect id="XMLID_232_" x="236.9" y="135.9" class="st1" width="22" height="12.9"/>
		<rect id="XMLID_231_" x="263.6" y="135.9" class="st1" width="22" height="12.9"/>
		<rect id="XMLID_230_" x="236.9" y="118" class="st1" width="22" height="12.9"/>
		<rect id="XMLID_229_" x="210.3" y="118" class="st1" width="22" height="12.9"/>
		<rect id="XMLID_228_" x="210.3" y="100.1" class="st1" width="22" height="12.9"/>
	</g>
	<path id="XMLID_224_" class="st0" d="M866.8,6.1c4.7,0,8.5,3.8,8.5,8.5v170.1c0,4.7-3.8,8.5-8.5,8.5H14.2c-4.7,0-8.5-3.8-8.5-8.5
		V14.6c0-4.7,3.8-8.5,8.5-8.5H866.8 M866.8,0.4H14.2C6.3,0.4,0,6.8,0,14.6v170.1c0,7.8,6.3,14.2,14.2,14.2h852.6
		c7.8,0,14.2-6.3,14.2-14.2V14.6C881,6.8,874.6,0.4,866.8,0.4L866.8,0.4z"/>
</g>
</svg>
