<svg id="Layer_1" data-name="Layer 1" xmlns="http://www.w3.org/2000/svg" viewBox="0 0 247.5 102.9"><defs><style>.cls-1{fill:none;stroke:#fff;stroke-miterlimit:10;stroke-width:2.83px;}</style></defs><path class="cls-1" d="M18.3,16.5H57.1c16.3,0,28.1,4.5,35.6,13.6s11.2,21.2,11.2,36.4S100.1,94,92.6,103s-19.3,13.5-35.5,13.5H18.3ZM53,97.4q10.2,0,15.9-3.9a20.1,20.1,0,0,0,7.9-10.6A55.6,55.6,0,0,0,79,66.5a55.6,55.6,0,0,0-2.2-16.4,19.7,19.7,0,0,0-8-10.7C65,36.9,59.7,35.6,53,35.6H41.8V97.4Z" transform="translate(-16.9 -15.1)"/><path class="cls-1" d="M120.9,16.5h23.5V96H176v20.5H120.9Z" transform="translate(-16.9 -15.1)"/><path class="cls-1" d="M189.9,16.5h40.6c11.5,0,19.8,2.5,24.8,7.7s7.6,12.5,7.6,22-2.6,17.8-7.8,23.2-13.5,8.2-24.6,8.2h-17v38.9H189.9Zm33.6,43.3c5.3,0,9.2-1,11.6-3.1s3.6-5.4,3.6-9.9-1.2-7.7-3.6-9.6-6.3-3-11.6-3h-10V59.8Z" transform="translate(-16.9 -15.1)"/></svg>