<svg width="652" height="392" viewBox="0 0 652 392" fill="none" xmlns="http://www.w3.org/2000/svg">
<path d="M16.65 16.902H115.884C141.636 16.902 163.281 21.897 180.819 31.887C198.579 41.877 211.566 56.196 219.78 74.844C223.554 82.836 226.329 91.716 228.105 101.484C229.881 111.252 230.769 122.241 230.769 134.451C230.769 146.661 229.881 157.65 228.105 167.418C226.329 177.186 223.554 186.066 219.78 194.058C211.566 212.706 198.579 227.025 180.819 237.015C163.281 247.005 141.636 252 115.884 252H16.65V16.902ZM106.227 200.718C120.435 200.718 131.979 198.276 140.859 193.392C149.739 188.508 156.288 181.293 160.506 171.747C162.726 167.085 164.28 161.757 165.168 155.763C166.056 149.769 166.5 142.665 166.5 134.451C166.5 126.237 166.056 119.133 165.168 113.139C164.28 106.923 162.726 101.484 160.506 96.822C156.066 87.276 149.406 80.172 140.526 75.51C131.868 70.626 120.435 68.184 106.227 68.184H76.923V200.718H106.227ZM256.644 16.902H316.917L409.824 162.09V16.902H468.432V252H407.493L315.252 107.145V252H256.644V16.902ZM538.138 66.519H487.522V16.902H648.694V66.519H598.411V252H538.138V66.519Z" fill="white"/>
<path d="M165.896 291.1H190.996V303.7H180.096V377.6H190.996V390.2H165.896V291.1ZM218.15 332.2L195.15 299.4H216.35L229.15 318.9L241.95 299.4H263.15L240.15 332.5L266.15 370H244.75L229.15 346.4L213.55 370H191.95L218.15 332.2ZM280.425 314.3H265.225V299.4H313.625V314.3H298.525V370H280.425V314.3ZM319.33 299.4H337.43L365.33 343V299.4H382.93V370H364.63L336.93 326.5V370H319.33V299.4ZM392.963 299.4H422.763C430.496 299.4 436.996 300.9 442.263 303.9C447.596 306.9 451.496 311.2 453.963 316.8C455.096 319.2 455.93 321.867 456.463 324.8C456.996 327.733 457.263 331.033 457.263 334.7C457.263 338.367 456.996 341.667 456.463 344.6C455.93 347.533 455.096 350.2 453.963 352.6C451.496 358.2 447.596 362.5 442.263 365.5C436.996 368.5 430.496 370 422.763 370H392.963V299.4ZM419.863 354.6C424.13 354.6 427.596 353.867 430.263 352.4C432.93 350.933 434.896 348.767 436.163 345.9C436.83 344.5 437.296 342.9 437.563 341.1C437.83 339.3 437.963 337.167 437.963 334.7C437.963 332.233 437.83 330.1 437.563 328.3C437.296 326.433 436.83 324.8 436.163 323.4C434.83 320.533 432.83 318.4 430.163 317C427.563 315.533 424.13 314.8 419.863 314.8H411.063V354.6H419.863ZM461.05 390.2V377.6H471.95V303.7H461.05V291.1H486.15V390.2H461.05Z" fill="white"/>
</svg>
