<svg width="652" height="375" viewBox="0 0 652 375" fill="none" xmlns="http://www.w3.org/2000/svg">
<path d="M16.65 16.902H115.884C141.636 16.902 163.281 21.897 180.819 31.887C198.579 41.877 211.566 56.196 219.78 74.844C223.554 82.836 226.329 91.716 228.105 101.484C229.881 111.252 230.769 122.241 230.769 134.451C230.769 146.661 229.881 157.65 228.105 167.418C226.329 177.186 223.554 186.066 219.78 194.058C211.566 212.706 198.579 227.025 180.819 237.015C163.281 247.005 141.636 252 115.884 252H16.65V16.902ZM106.227 200.718C120.435 200.718 131.979 198.276 140.859 193.392C149.739 188.508 156.288 181.293 160.506 171.747C162.726 167.085 164.28 161.757 165.168 155.763C166.056 149.769 166.5 142.665 166.5 134.451C166.5 126.237 166.056 119.133 165.168 113.139C164.28 106.923 162.726 101.484 160.506 96.822C156.066 87.276 149.406 80.172 140.526 75.51C131.868 70.626 120.435 68.184 106.227 68.184H76.923V200.718H106.227ZM256.644 16.902H316.917L409.824 162.09V16.902H468.432V252H407.493L315.252 107.145V252H256.644V16.902ZM538.138 66.519H487.522V16.902H648.694V66.519H598.411V252H538.138V66.519Z" fill="white"/>
<path d="M165.896 274.1H190.996V286.7H180.096V360.6H190.996V373.2H165.896V274.1ZM218.15 315.2L195.15 282.4H216.35L229.15 301.9L241.95 282.4H263.15L240.15 315.5L266.15 353H244.75L229.15 329.4L213.55 353H191.95L218.15 315.2ZM280.425 297.3H265.225V282.4H313.625V297.3H298.525V353H280.425V297.3ZM319.33 282.4H337.43L365.33 326V282.4H382.93V353H364.63L336.93 309.5V353H319.33V282.4ZM392.963 282.4H422.763C430.496 282.4 436.996 283.9 442.263 286.9C447.596 289.9 451.496 294.2 453.963 299.8C455.096 302.2 455.93 304.867 456.463 307.8C456.996 310.733 457.263 314.033 457.263 317.7C457.263 321.367 456.996 324.667 456.463 327.6C455.93 330.533 455.096 333.2 453.963 335.6C451.496 341.2 447.596 345.5 442.263 348.5C436.996 351.5 430.496 353 422.763 353H392.963V282.4ZM419.863 337.6C424.13 337.6 427.596 336.867 430.263 335.4C432.93 333.933 434.896 331.767 436.163 328.9C436.83 327.5 437.296 325.9 437.563 324.1C437.83 322.3 437.963 320.167 437.963 317.7C437.963 315.233 437.83 313.1 437.563 311.3C437.296 309.433 436.83 307.8 436.163 306.4C434.83 303.533 432.83 301.4 430.163 300C427.563 298.533 424.13 297.8 419.863 297.8H411.063V337.6H419.863ZM461.05 373.2V360.6H471.95V286.7H461.05V274.1H486.15V373.2H461.05Z" fill="white"/>
</svg>
