<svg width="1013" height="266" viewBox="0 0 1013 266" fill="none" xmlns="http://www.w3.org/2000/svg">
<path d="M16.65 2.48707H115.884C141.636 2.48707 163.281 7.48207 180.819 17.4721C198.579 27.4621 211.566 41.7811 219.78 60.4291C223.554 68.4211 226.329 77.3011 228.105 87.0691C229.881 96.8371 230.769 107.826 230.769 120.036C230.769 132.246 229.881 143.235 228.105 153.003C226.329 162.771 223.554 171.651 219.78 179.643C211.566 198.291 198.579 212.61 180.819 222.6C163.281 232.59 141.636 237.585 115.884 237.585H16.65V2.48707ZM106.227 186.303C120.435 186.303 131.979 183.861 140.859 178.977C149.739 174.093 156.288 166.878 160.506 157.332C162.726 152.67 164.28 147.342 165.168 141.348C166.056 135.354 166.5 128.25 166.5 120.036C166.5 111.822 166.056 104.718 165.168 98.7241C164.28 92.5081 162.726 87.0691 160.506 82.4071C156.066 72.8611 149.406 65.7571 140.526 61.0951C131.868 56.2111 120.435 53.7691 106.227 53.7691H76.923V186.303H106.227ZM256.644 2.48707H316.917L409.824 147.675V2.48707H468.432V237.585H407.493L315.252 92.7301V237.585H256.644V2.48707ZM538.138 52.1041H487.522V2.48707H648.694V52.1041H598.411V237.585H538.138V52.1041Z" fill="white"/>
<path d="M683.896 0.0999966H708.996V12.7H698.096V86.6H708.996V99.2H683.896V0.0999966ZM736.15 41.2L713.15 8.4H734.35L747.15 27.9L759.95 8.4H781.15L758.15 41.5L784.15 79H762.75L747.15 55.4L731.55 79H709.95L736.15 41.2ZM798.425 23.3H783.225V8.4H831.625V23.3H816.525V79H798.425V23.3ZM837.33 8.4H855.43L883.33 52V8.4H900.93V79H882.63L854.93 35.5V79H837.33V8.4ZM910.963 8.4H940.763C948.496 8.4 954.996 9.9 960.263 12.9C965.596 15.9 969.496 20.2 971.963 25.8C973.096 28.2 973.93 30.8667 974.463 33.8C974.996 36.7333 975.263 40.0333 975.263 43.7C975.263 47.3667 974.996 50.6667 974.463 53.6C973.93 56.5333 973.096 59.2 971.963 61.6C969.496 67.2 965.596 71.5 960.263 74.5C954.996 77.5 948.496 79 940.763 79H910.963V8.4ZM937.863 63.6C942.13 63.6 945.596 62.8667 948.263 61.4C950.93 59.9333 952.896 57.7667 954.163 54.9C954.83 53.5 955.296 51.9 955.563 50.1C955.83 48.3 955.963 46.1667 955.963 43.7C955.963 41.2333 955.83 39.1 955.563 37.3C955.296 35.4333 954.83 33.8 954.163 32.4C952.83 29.5333 950.83 27.4 948.163 26C945.563 24.5333 942.13 23.8 937.863 23.8H929.063V63.6H937.863ZM979.05 99.2V86.6H989.95V12.7H979.05V0.0999966H1004.15V99.2H979.05Z" fill="white"/>
</svg>
