<svg width="633" height="236" viewBox="0 0 633 236" fill="none" xmlns="http://www.w3.org/2000/svg">
<path d="M0.65 0.90199H99.884C125.636 0.90199 147.281 5.89699 164.819 15.887C182.579 25.877 195.566 40.196 203.78 58.844C207.554 66.836 210.329 75.716 212.105 85.484C213.881 95.252 214.769 106.241 214.769 118.451C214.769 130.661 213.881 141.65 212.105 151.418C210.329 161.186 207.554 170.066 203.78 178.058C195.566 196.706 182.579 211.025 164.819 221.015C147.281 231.005 125.636 236 99.884 236H0.65V0.90199ZM90.227 184.718C104.435 184.718 115.979 182.276 124.859 177.392C133.739 172.508 140.288 165.293 144.506 155.747C146.726 151.085 148.28 145.757 149.168 139.763C150.056 133.769 150.5 126.665 150.5 118.451C150.5 110.237 150.056 103.133 149.168 97.139C148.28 90.923 146.726 85.484 144.506 80.822C140.066 71.276 133.406 64.172 124.526 59.51C115.868 54.626 104.435 52.184 90.227 52.184H60.923V184.718H90.227ZM240.644 0.90199H300.917L393.824 146.09V0.90199H452.432V236H391.493L299.252 91.145V236H240.644V0.90199ZM522.138 50.519H471.522V0.90199H632.694V50.519H582.411V236H522.138V50.519Z" fill="white"/>
</svg>
