<svg width="652" height="392" viewBox="0 0 652 392" fill="none" xmlns="http://www.w3.org/2000/svg">
<path d="M16.65 16.902H115.884C141.636 16.902 163.281 21.897 180.819 31.887C198.579 41.877 211.566 56.196 219.78 74.844C223.554 82.836 226.329 91.716 228.105 101.484C229.881 111.252 230.769 122.241 230.769 134.451C230.769 146.661 229.881 157.65 228.105 167.418C226.329 177.186 223.554 186.066 219.78 194.058C211.566 212.706 198.579 227.025 180.819 237.015C163.281 247.005 141.636 252 115.884 252H16.65V16.902ZM106.227 200.718C120.435 200.718 131.979 198.276 140.859 193.392C149.739 188.508 156.288 181.293 160.506 171.747C162.726 167.085 164.28 161.757 165.168 155.763C166.056 149.769 166.5 142.665 166.5 134.451C166.5 126.237 166.056 119.133 165.168 113.139C164.28 106.923 162.726 101.484 160.506 96.822C156.066 87.276 149.406 80.172 140.526 75.51C131.868 70.626 120.435 68.184 106.227 68.184H76.923V200.718H106.227ZM256.644 16.902H316.917L409.824 162.09V16.902H468.432V252H407.493L315.252 107.145V252H256.644V16.902ZM538.138 66.519H487.522V16.902H648.694V66.519H598.411V252H538.138V66.519Z" fill="white"/>
<path d="M203.604 291.1H228.704V303.7H217.804V377.6H228.704V390.2H203.604V291.1ZM277.757 370L253.457 338.5V370H235.357V299.4H253.457V325.1L274.557 299.4H295.957L269.057 331.1L300.057 370H277.757ZM320.829 339.6L297.829 299.4H317.429L329.829 322.5L342.229 299.4H361.829L338.929 339.6V370H320.829V339.6ZM392.007 314.3H363.807V299.4H420.107L390.507 355.1H421.307V370H362.107L392.007 314.3ZM424.343 390.2V377.6H435.243V303.7H424.343V291.1H449.443V390.2H424.343Z" fill="white"/>
</svg>
