<svg width="1013" height="266" viewBox="0 0 1013 266" fill="none" xmlns="http://www.w3.org/2000/svg">
<path d="M16.65 2.48707H115.884C141.636 2.48707 163.281 7.48207 180.819 17.4721C198.579 27.4621 211.566 41.7811 219.78 60.4291C223.554 68.4211 226.329 77.3011 228.105 87.0691C229.881 96.8371 230.769 107.826 230.769 120.036C230.769 132.246 229.881 143.235 228.105 153.003C226.329 162.771 223.554 171.651 219.78 179.643C211.566 198.291 198.579 212.61 180.819 222.6C163.281 232.59 141.636 237.585 115.884 237.585H16.65V2.48707ZM106.227 186.303C120.435 186.303 131.979 183.861 140.859 178.977C149.739 174.093 156.288 166.878 160.506 157.332C162.726 152.67 164.28 147.342 165.168 141.348C166.056 135.354 166.5 128.25 166.5 120.036C166.5 111.822 166.056 104.718 165.168 98.7241C164.28 92.5081 162.726 87.0691 160.506 82.4071C156.066 72.8611 149.406 65.7571 140.526 61.0951C131.868 56.2111 120.435 53.7691 106.227 53.7691H76.923V186.303H106.227ZM256.644 2.48707H316.917L409.824 147.675V2.48707H468.432V237.585H407.493L315.252 92.7301V237.585H256.644V2.48707ZM538.138 52.1041H487.522V2.48707H648.694V52.1041H598.411V237.585H538.138V52.1041Z" fill="white"/>
<path d="M721.104 0.0999966H746.204V12.7H735.304V86.6H746.204V99.2H721.104V0.0999966ZM795.257 79L770.957 47.5V79H752.857V8.4H770.957V34.1L792.057 8.4H813.457L786.557 40.1L817.557 79H795.257ZM838.329 48.6L815.329 8.4H834.929L847.329 31.5L859.729 8.4H879.329L856.429 48.6V79H838.329V48.6ZM909.507 23.3H881.307V8.4H937.607L908.007 64.1H938.807V79H879.607L909.507 23.3ZM941.843 99.2V86.6H952.743V12.7H941.843V0.0999966H966.943V99.2H941.843Z" fill="white"/>
</svg>
