<?xml version="1.0" encoding="utf-8"?>

<svg version="1.1" id="Layer_1" xmlns="http://www.w3.org/2000/svg" xmlns:xlink="http://www.w3.org/1999/xlink" x="0px" y="0px"
	 viewBox="0 0 256.7 100.1" style="enable-background:new 0 0 256.7 100.1;" xml:space="preserve">
<style type="text/css">
	.st0{fill:#FFFFFF;}
</style>
<path id="XMLID_11_" class="st0" d="M64.2,2.8v15.3H26.3h-2.8V21v18.3v2.8h2.8h37.4v14.5H26.3h-2.8v2.8v19.7v2.8h2.8h37.8v15.3H3.5
	V2.8H64.2 M67,0H0.7v100.1H67v-21H26.3V59.4h40.3V39.3H26.3V21H67V0L67,0z"/>
<path id="XMLID_6_" class="st0" d="M122.3,2.8c7.6,0,13.8,1.1,18.6,3.3c4.5,2.1,7.7,5.4,9.7,9.9c1.7,4.2,2.6,9.1,2.6,14.8
	c0,5.1-0.9,9.7-2.6,13.9c-2.1,4.6-5.4,8-10,10.4c-4.7,2.4-10.9,3.7-18.3,3.7h-18h-2.8v2.8v35.6h-20V2.8H122.3 M101.5,45.9h2.8h10.8
	c3.8,0,7.1-0.5,9.7-1.5c2.9-1.2,5.1-3.1,6.3-5.7l0-0.1l0-0.1c0.9-2.3,1.3-4.8,1.3-7.4c0-2.6-0.4-5.1-1.3-7.4l0-0.1l0-0.1
	c-1.3-2.7-3.4-4.6-6.3-5.7c-2.6-1-5.8-1.5-9.9-1.5h-10.6h-2.8v2.8v24V45.9 M122.3,0H78.6v100.1h25.7V61.7h18c7.9,0,14.5-1.3,19.6-4
	c5.1-2.6,8.9-6.6,11.3-11.8c1.9-4.5,2.8-9.5,2.8-15c0-6-0.9-11.3-2.8-15.9c-2.3-5.2-6-9-11.1-11.4C136.9,1.2,130.3,0,122.3,0
	L122.3,0z M104.3,43.1v-24h10.6c3.7,0,6.6,0.4,8.9,1.3c2.2,0.9,3.8,2.3,4.7,4.3c0.8,2,1.1,4.1,1.1,6.4s-0.4,4.4-1.1,6.4
	c-0.9,2-2.6,3.4-4.8,4.3c-2.3,0.9-5.2,1.3-8.6,1.3H104.3L104.3,43.1z"/>
<path id="XMLID_3_" class="st0" d="M244.7,2.8l-34.2,40.3l-1.5,1.8l1.5,1.8l40.3,50.5h-24.3l-33.6-43.5l-5.1-6.6v8.3v41.8h-20V2.8
	h20v33.6v7.9l5-6.1l29.1-35.4H244.7 M250.8,0h-30.3l-29.9,36.4V0H165v100.1h25.7V55.4l34.4,44.6h31.6l-43.9-55.1L250.8,0L250.8,0z"
	/>
</svg>
