<?xml version="1.0" encoding="utf-8"?>
<!-- Generator: Adobe Illustrator 19.0.0, SVG Export Plug-In . SVG Version: 6.00 Build 0)  -->
<svg version="1.1" id="Layer_2" xmlns="http://www.w3.org/2000/svg" xmlns:xlink="http://www.w3.org/1999/xlink" x="0px" y="0px"
	 viewBox="0 0 558 105.4" style="enable-background:new 0 0 558 105.4;" xml:space="preserve">
<style type="text/css">
	.st0{fill:#FFFFFF;}
</style>
<path id="XMLID_51_" class="st0" d="M0.7,2.7h25.7v39.1h36.6V2.7h25.7v100.1H62.9V62.9H26.3v39.8H0.7V2.7z"/>
<path id="XMLID_49_" class="st0" d="M102.7,2.7h25.7l39.5,61.8V2.7h24.9v100.1h-25.9l-39.3-61.7v61.7h-24.9V2.7z"/>
<path id="XMLID_46_" class="st0" d="M236.5,62.8h-3.8v40h-25.7V2.7h44.4c15.9,0,26.2,5.2,30.9,15.4c1.8,4.2,2.7,9,2.7,14.6
	c0,2.7-0.2,5.4-0.7,7.9c-0.5,2.6-1.1,4.8-2,6.8c-3.2,7.9-9.4,12.8-18.7,14.5l29.1,40.8h-29.1L236.5,62.8z M232.7,45.8h11.2
	c3.6,0,6.5-0.5,8.8-1.4c2.3-0.9,3.9-2.4,4.8-4.4c0.9-1.7,1.3-3.8,1.3-6.4c0-2.5-0.4-4.5-1.3-6.2c-0.9-2-2.6-3.4-4.8-4.3
	c-2.3-0.9-5.2-1.3-8.8-1.3h-11.2V45.8z"/>
<path id="XMLID_44_" class="st0" d="M317,59.7l-32.6-57h27.8l17.6,32.7l17.6-32.7h27.8l-32.5,57v43.1H317V59.7z"/>
<path id="XMLID_42_" class="st0" d="M419.5,100.3c-6.6-3.4-11.3-8.1-14-14.1c-1.8-4-2.7-8.6-2.7-14H431c0,3.1,0.4,5.5,1.3,7.2
	c2,4.6,6.4,6.9,13.3,6.9c3.1,0,5.8-0.5,7.9-1.6c2.2-1,3.7-2.5,4.7-4.4c0.6-1.2,0.9-2.7,0.9-4.5c0-1.7-0.3-3.2-0.9-4.4
	c-0.8-1.8-2.1-3.3-4-4.5c-1.9-1.2-4.1-2.2-6.5-3c-2.5-0.8-5.6-1.7-9.5-2.8c-0.9-0.2-3.2-0.9-6.9-2c-5.9-1.7-10.8-3.9-15-6.6
	c-4.1-2.7-7.1-6.1-9-10.3c-1.5-3.3-2.3-7.1-2.3-11.5c0-4.2,0.8-8.3,2.6-12.3c2.6-5.8,7.1-10.3,13.5-13.5c6.5-3.3,14.2-4.9,23.3-4.9
	c8.8,0,16.3,1.6,22.5,4.7c6.2,3.1,10.7,7.6,13.3,13.5c0.9,2.2,1.6,4.3,2.1,6.4c0.4,2.1,0.6,4.6,0.6,7.3h-26.6c0-1.6-0.1-3-0.3-4.1
	c-0.2-1.1-0.5-2.2-1-3.3c-1.8-4-5.7-6-11.6-6c-2.9,0-5.4,0.5-7.4,1.4c-2,0.9-3.4,2.3-4.1,4c-0.5,1-0.7,2.3-0.7,3.7
	c0,1.5,0.2,2.8,0.7,3.8c0.7,1.5,1.8,2.8,3.5,3.8c1.7,1,3.6,1.9,5.9,2.6c2.3,0.7,5.2,1.5,8.9,2.5c3.5,0.9,5.7,1.6,6.7,1.8
	c7.3,2,13.3,4.3,17.9,6.9c4.7,2.6,8,6.3,10,10.9c1.6,3.7,2.4,7.9,2.4,12.6c0,4.9-0.9,9.4-2.7,13.6c-2.8,6.1-7.7,10.9-14.7,14.2
	c-6.9,3.3-15.4,5-25.3,5C434.5,105.4,426.1,103.7,419.5,100.3z"/>
<path id="XMLID_40_" class="st0" d="M510.9,23.8h-21.5V2.7H558v21.1h-21.4v78.9h-25.7V23.8z"/>
</svg>
