<?xml version="1.0" encoding="utf-8"?>
<!-- Generator: Adobe Illustrator 19.0.0, SVG Export Plug-In . SVG Version: 6.00 Build 0)  -->
<svg version="1.1" id="Layer_1" xmlns="http://www.w3.org/2000/svg" xmlns:xlink="http://www.w3.org/1999/xlink" x="0px" y="0px"
	 viewBox="0 0 810.3 107.4" style="enable-background:new 0 0 810.3 107.4;" xml:space="preserve">
<style type="text/css">
	.st0{fill:#FFFFFF;}
</style>
<g>
	<path class="st0" d="M0,4.7h25.7v78h26.8v22.1H0V4.7z"/>
	<path class="st0" d="M60.5,4.7h25.7v100.1H60.5V4.7z"/>
	<path class="st0" d="M112.7,102.2c-6.6-3.4-11.3-8.1-14-14.1c-1.8-4-2.7-8.6-2.7-14h28.2c0,3.1,0.4,5.5,1.3,7.2
		c2,4.6,6.4,6.9,13.3,6.9c3.1,0,5.8-0.5,7.9-1.6c2.2-1,3.7-2.5,4.7-4.4c0.6-1.2,0.9-2.7,0.9-4.5c0-1.7-0.3-3.2-0.9-4.4
		c-0.8-1.8-2.1-3.3-4-4.5c-1.9-1.2-4.1-2.2-6.5-3c-2.5-0.8-5.6-1.7-9.5-2.8c-0.9-0.2-3.2-0.9-6.9-2c-5.9-1.7-10.8-3.9-15-6.6
		c-4.1-2.7-7.1-6.1-9-10.3c-1.5-3.3-2.3-7.1-2.3-11.5c0-4.2,0.9-8.3,2.6-12.3c2.6-5.8,7.1-10.3,13.5-13.5c6.5-3.3,14.2-4.9,23.3-4.9
		c8.8,0,16.3,1.6,22.5,4.7c6.2,3.1,10.7,7.6,13.3,13.5c0.9,2.2,1.6,4.3,2.1,6.4c0.4,2.1,0.6,4.6,0.6,7.3h-26.6c0-1.6-0.1-3-0.3-4.1
		c-0.2-1.1-0.5-2.2-1-3.3c-1.8-4-5.7-6-11.6-6c-2.9,0-5.4,0.5-7.4,1.4c-2,0.9-3.4,2.3-4.1,4c-0.5,1-0.7,2.3-0.7,3.7
		c0,1.5,0.2,2.8,0.7,3.8c0.7,1.5,1.8,2.8,3.5,3.8c1.7,1,3.6,1.9,5.9,2.6c2.3,0.7,5.2,1.5,8.9,2.5c3.5,0.9,5.7,1.6,6.7,1.8
		c7.3,2,13.3,4.3,17.9,6.9c4.7,2.6,8,6.3,10,10.9c1.6,3.7,2.4,7.9,2.4,12.6c0,4.9-0.9,9.4-2.7,13.6c-2.8,6.1-7.7,10.9-14.7,14.2
		c-6.9,3.3-15.4,5-25.3,5C127.6,107.4,119.3,105.7,112.7,102.2z"/>
	<path class="st0" d="M204.1,25.8h-21.5V4.7h68.6v21.1h-21.4v78.9h-25.7V25.8z"/>
	<path class="st0" d="M259.2,4.7h66.3v21h-40.7v18.3h40.3V64h-40.3v19.7h40.7v21h-66.3V4.7z"/>
	<path class="st0" d="M337.2,4.7h25.7l39.5,61.8V4.7h24.9v100.1h-25.9l-39.3-61.7v61.7h-24.9V4.7z"/>
	<path class="st0" d="M467,4.7h25.7l39.5,61.8V4.7h24.9v100.1h-25.9l-39.3-61.7v61.7H467V4.7z"/>
	<path class="st0" d="M591.7,101.3c-7.4-4.1-13-9.9-16.8-17.4c-2.2-3.9-3.8-8.3-5-13.3c-1.1-5-1.7-10.3-1.7-15.9
		c0-9.9,1.7-18.8,5.1-26.6c3.7-8.3,9.4-14.7,17.1-19.3c7.7-4.5,17.1-6.8,27.9-6.8c10.9,0,20.1,2.2,27.9,6.7
		c7.7,4.5,13.4,10.8,17.1,19.1c3.4,8,5.1,17,5.1,26.9c0,10.2-1.7,19.2-5.2,27.1c-3.7,8.2-9.4,14.6-17,19c-7.7,4.4-16.9,6.7-27.8,6.7
		C608,107.4,599.1,105.4,591.7,101.3z M630.8,81.6c3.3-2.1,5.7-5.1,7.4-8.9c1-2.4,1.8-5,2.3-7.8c0.5-2.8,0.7-6.2,0.7-10.2
		s-0.2-7.4-0.6-10.2c-0.4-2.8-1.2-5.5-2.2-7.9c-3.8-7.9-10.4-11.9-20-11.9c-9.7,0-16.4,4-20,11.9c-1,2.4-1.8,4.9-2.2,7.7
		c-0.4,2.8-0.6,6.3-0.6,10.4c0,4,0.2,7.4,0.7,10.2c0.5,2.8,1.2,5.4,2.3,7.8c3.6,8,10.2,12,19.8,12C623.4,84.7,627.5,83.7,630.8,81.6
		z"/>
	<path class="st0" d="M810.3,4.7l-27.6,100.1H756l-15.9-65.9l-15.9,65.9H698L669.8,4.7h25.7l16.2,63.6l15.2-63.6h26.9l15,63.5
		l16-63.5H810.3z"/>
</g>
</svg>
