<svg width="811" height="108" viewBox="0 0 811 108" fill="none" xmlns="http://www.w3.org/2000/svg">
<g clip-path="url(#clip0_303_197)">
<path d="M0 4.70001H25.7V82.7H52.5V104.8H0V4.70001Z" fill="#EB9B61"/>
<path d="M60.5 4.70001H86.2V104.8H60.5V4.70001Z" fill="#EB9B61"/>
<path d="M112.7 102.2C106.1 98.8 101.4 94.1 98.7 88.1C96.9 84.1 96 79.5 96 74.1H124.2C124.2 77.2 124.6 79.6 125.5 81.3C127.5 85.9 131.9 88.2 138.8 88.2C141.9 88.2 144.6 87.7 146.7 86.6C148.9 85.6 150.4 84.1 151.4 82.2C152 81 152.3 79.5 152.3 77.7C152.3 76 152 74.5 151.4 73.3C150.6 71.5 149.3 70 147.4 68.8C145.5 67.6 143.3 66.6 140.9 65.8C138.4 65 135.3 64.1 131.4 63C130.5 62.8 128.2 62.1 124.5 61C118.6 59.3 113.7 57.1 109.5 54.4C105.4 51.7 102.4 48.3 100.5 44.1C99 40.8 98.2 37 98.2 32.6C98.2 28.4 99.1 24.3 100.8 20.3C103.4 14.5 107.9 10 114.3 6.80002C120.8 3.50002 128.5 1.90002 137.6 1.90002C146.4 1.90002 153.9 3.50002 160.1 6.60002C166.3 9.70002 170.8 14.2 173.4 20.1C174.3 22.3 175 24.4 175.5 26.5C175.9 28.6 176.1 31.1 176.1 33.8H149.5C149.5 32.2 149.4 30.8 149.2 29.7C149 28.6 148.7 27.5 148.2 26.4C146.4 22.4 142.5 20.4 136.6 20.4C133.7 20.4 131.2 20.9 129.2 21.8C127.2 22.7 125.8 24.1 125.1 25.8C124.6 26.8 124.4 28.1 124.4 29.5C124.4 31 124.6 32.3 125.1 33.3C125.8 34.8 126.9 36.1 128.6 37.1C130.3 38.1 132.2 39 134.5 39.7C136.8 40.4 139.7 41.2 143.4 42.2C146.9 43.1 149.1 43.8 150.1 44C157.4 46 163.4 48.3 168 50.9C172.7 53.5 176 57.2 178 61.8C179.6 65.5 180.4 69.7 180.4 74.4C180.4 79.3 179.5 83.8 177.7 88C174.9 94.1 170 98.9 163 102.2C156.1 105.5 147.6 107.2 137.7 107.2C127.6 107.4 119.3 105.7 112.7 102.2Z" fill="#EB9B61"/>
<path d="M204.1 25.8H182.6V4.70001H251.2V25.8H229.8V104.7H204.1V25.8Z" fill="#EB9B61"/>
<path d="M259.2 4.70001H325.5V25.7H284.8V44H325.1V64H284.8V83.7H325.5V104.7H259.2V4.70001Z" fill="#EB9B61"/>
<path d="M337.2 4.70001H362.9L402.4 66.5V4.70001H427.3V104.8H401.4L362.1 43.1V104.8H337.2V4.70001Z" fill="#EB9B61"/>
<path d="M467 4.70001H492.7L532.2 66.5V4.70001H557.1V104.8H531.2L491.9 43.1V104.8H467V4.70001Z" fill="#EB9B61"/>
<path d="M591.7 101.3C584.3 97.2 578.7 91.4 574.9 83.9C572.7 80 571.1 75.6 569.9 70.6C568.8 65.6 568.2 60.3 568.2 54.7C568.2 44.8 569.9 35.9 573.3 28.1C577 19.8 582.7 13.4 590.4 8.8C598.1 4.3 607.5 2 618.3 2C629.2 2 638.4 4.2 646.2 8.7C653.9 13.2 659.6 19.5 663.3 27.8C666.7 35.8 668.4 44.8 668.4 54.7C668.4 64.9 666.7 73.9 663.2 81.8C659.5 90 653.8 96.4 646.2 100.8C638.5 105.2 629.3 107.5 618.4 107.5C608 107.4 599.1 105.4 591.7 101.3ZM630.8 81.6C634.1 79.5 636.5 76.5 638.2 72.7C639.2 70.3 640 67.7 640.5 64.9C641 62.1 641.2 58.7 641.2 54.7C641.2 50.7 641 47.3 640.6 44.5C640.2 41.7 639.4 39 638.4 36.6C634.6 28.7 628 24.7 618.4 24.7C608.7 24.7 602 28.7 598.4 36.6C597.4 39 596.6 41.5 596.2 44.3C595.8 47.1 595.6 50.6 595.6 54.7C595.6 58.7 595.8 62.1 596.3 64.9C596.8 67.7 597.5 70.3 598.6 72.7C602.2 80.7 608.8 84.7 618.4 84.7C623.4 84.7 627.5 83.7 630.8 81.6Z" fill="#EB9B61"/>
<path d="M810.3 4.70001L782.7 104.8H756L740.1 38.9L724.2 104.8H698L669.8 4.70001H695.5L711.7 68.3L726.9 4.70001H753.8L768.8 68.2L784.8 4.70001H810.3V4.70001Z" fill="#EB9B61"/>
</g>
<defs>
<clipPath id="clip0_303_197">
<rect width="810.3" height="107.4" fill="white"/>
</clipPath>
</defs>
</svg>
