<?xml version="1.0" encoding="utf-8"?>
<!-- Generator: Adobe Illustrator 19.0.0, SVG Export Plug-In . SVG Version: 6.00 Build 0)  -->
<svg version="1.1" id="Layer_3" xmlns="http://www.w3.org/2000/svg" xmlns:xlink="http://www.w3.org/1999/xlink" x="0px" y="0px"
	 viewBox="-241 336.4 127.2 121.6" style="enable-background:new -241 336.4 127.2 121.6;" xml:space="preserve">
<style type="text/css">
	.st0{fill:#FFFFFF;}
</style>
<g id="XMLID_248_">
	<path id="XMLID_249_" class="st0" d="M-169.1,379c0-1.8-1.5-3.3-3.4-3.3h-40.8c-1.9,0-3.4,1.5-3.4,3.3c0,1.8,1.5,3.3,3.4,3.3h40.7
		C-170.7,382.4-169.1,380.9-169.1,379z"/>
	<path id="XMLID_250_" class="st0" d="M-213.3,367.5h40.7c1.9,0,3.4-1.5,3.4-3.3c0-1.8-1.5-3.3-3.4-3.3h-40.7
		c-1.9,0-3.4,1.5-3.4,3.3C-216.7,366-215.2,367.5-213.3,367.5z"/>
	<path id="XMLID_253_" class="st0" d="M-116.6,349.7l-18.5-10.6l-0.1-0.1c-0.8-0.4-1.7-0.6-2.5-0.3c-0.4,0.1-0.7,0.3-1.1,0.5
		l-0.3-0.2l-0.6,1c0,0.1-0.1,0.1-0.1,0.2l-0.8,1.2l0,0l-4.3,7.4v-0.1c0-2.5-1-4.8-2.7-6.6c-1.7-1.8-4-2.7-6.5-2.7h-77.6
		c-2.5,0-4.8,1-6.6,2.7c-1.7,1.8-2.7,4.1-2.7,6.6v96.7c0,2.5,1,4.8,2.7,6.6c1.8,1.8,4.1,2.7,6.6,2.7h77.6c2.5,0,4.8-1,6.6-2.7
		c1.8-1.8,2.7-4.1,2.7-6.6v-40.1l29.3-50.8c0-0.1,0.1-0.1,0.1-0.2C-114.5,352.7-115,350.7-116.6,349.7z M-151,402.6
		c0,0,0,0.1-0.1,0.1l-0.5,0.9l0,0l-4.8,8.4l-12.9-7.4l27.7-48l12.9,7.4L-151,402.6z M-138.3,350.8l2.5-4.4l12.9,7.4l-2.5,4.4
		L-138.3,350.8z M-171.9,410.8l11.4,6.6l-13.4,10.2L-171.9,410.8z M-151.5,445.4c0,0.7-0.3,1.3-0.8,1.8s-1.1,0.8-1.8,0.8h-77.6
		c-0.7,0-1.3-0.3-1.8-0.8s-0.8-1.1-0.8-1.8v-96.7c0-0.7,0.3-1.3,0.8-1.8c0.4-0.5,1.1-0.8,1.8-0.8h77.6c0.7,0,1.3,0.3,1.8,0.8
		s0.8,1.1,0.8,1.8v11.7l-25.3,43.8l0,0l0,0l-0.9,1.6c-0.3,0.4-0.5,1-0.6,1.5l-3.1,27.1c-0.2,0.9,0.1,1.8,0.6,2.6
		c0.7,0.9,1.7,1.3,2.7,1.3c0.7,0,1.4-0.2,2-0.7l21.6-16.4c0.4-0.3,0.8-0.7,1.1-1.1l0.8-1.4l0,0l1.1-1.9
		C-151.5,416.8-151.5,445.4-151.5,445.4z"/>
</g>
</svg>
