<svg width="835" height="75" viewBox="0 0 835 75" fill="none" xmlns="http://www.w3.org/2000/svg">
<path d="M7.45058e-08 2.4H21L39.6 44.9L58.2 2.4H79.1V73H62V30.1L43.5 73H35.6L17.1 30.1V73H7.45058e-08V2.4ZM122.263 74.9C114.929 74.9 108.629 73.4667 103.363 70.6C98.1625 67.7333 94.2292 63.6333 91.5625 58.3C90.0292 55.5667 88.8625 52.4667 88.0625 49C87.2625 45.4667 86.8625 41.7 86.8625 37.7C86.8625 30.7 88.0625 24.4333 90.4625 18.9C93.0625 13.0333 97.0958 8.5 102.563 5.3C108.029 2.1 114.596 0.499998 122.263 0.499998C129.929 0.499998 136.463 2.1 141.863 5.3C147.329 8.43333 151.363 12.9 153.963 18.7C156.363 24.3667 157.563 30.7 157.563 37.7C157.563 44.9 156.329 51.2667 153.863 56.8C151.263 62.6 147.263 67.0667 141.863 70.2C136.463 73.3333 129.929 74.9 122.263 74.9ZM122.263 58.9C125.796 58.9 128.696 58.1667 130.963 56.7C133.296 55.2333 135.063 53.1333 136.263 50.4C136.996 48.7333 137.529 46.9 137.863 44.9C138.196 42.9 138.363 40.5 138.363 37.7C138.363 34.9 138.196 32.5 137.863 30.5C137.596 28.5 137.096 26.6333 136.363 24.9C133.696 19.3 128.996 16.5 122.263 16.5C115.396 16.5 110.696 19.3 108.163 24.9C107.429 26.5667 106.896 28.4 106.563 30.4C106.296 32.3333 106.163 34.7667 106.163 37.7C106.163 40.5 106.329 42.9 106.663 44.9C106.996 46.9 107.529 48.7333 108.263 50.4C110.796 56.0667 115.463 58.9 122.263 58.9ZM186.132 44.8H183.432V73H165.332V2.4H196.632C207.832 2.4 215.099 6.03333 218.432 13.3C219.699 16.2333 220.332 19.6667 220.332 23.6C220.332 25.5333 220.165 27.4 219.832 29.2C219.499 31 219.032 32.6 218.432 34C216.165 39.6 211.765 43 205.232 44.2L225.732 73H205.232L186.132 44.8ZM183.432 32.8H191.332C193.865 32.8 195.932 32.4667 197.532 31.8C199.132 31.1333 200.265 30.1 200.932 28.7C201.532 27.5 201.832 26 201.832 24.2C201.832 22.4667 201.532 21 200.932 19.8C200.265 18.4 199.132 17.4 197.532 16.8C195.932 16.2 193.865 15.9 191.332 15.9H183.432V32.8ZM229.59 2.4H276.39V17.2H247.69V30.1H276.09V44.3H247.69V58.2H276.39V73H229.59V2.4ZM356.339 44.7C357.406 46.9 357.939 49.7 357.939 53.1C357.939 56.4333 357.372 59.3333 356.239 61.8C354.639 65.4667 351.906 68.2667 348.039 70.2C344.172 72.0667 339.439 73 333.839 73H302.539V2.4H334.139C339.139 2.4 343.306 3.26666 346.639 5C349.972 6.66666 352.339 9.06666 353.739 12.2C354.272 13.4 354.672 14.6 354.939 15.8C355.206 17 355.339 18.3333 355.339 19.8C355.339 21.2667 355.206 22.5667 354.939 23.7C354.739 24.8333 354.406 25.9333 353.939 27C352.339 30.8667 348.972 33.5667 343.839 35.1C347.039 36.0333 349.639 37.3 351.639 38.9C353.706 40.4333 355.272 42.3667 356.339 44.7ZM320.539 30.7H326.439C331.239 30.7 334.272 29.3 335.539 26.5C335.806 25.8333 336.006 25.2 336.139 24.6C336.272 23.9333 336.339 23.1333 336.339 22.2C336.339 21.4 336.272 20.7 336.139 20.1C336.006 19.5 335.806 18.9 335.539 18.3C334.272 15.5 331.206 14.1 326.339 14.1H320.539V30.7ZM337.539 56.3C338.139 54.9667 338.439 53.5 338.439 51.9C338.439 50.4333 338.139 49 337.539 47.6C336.806 45.9333 335.539 44.7333 333.739 44C331.939 43.2 329.639 42.8 326.839 42.8H320.539V61.1H326.739C329.606 61.1 331.939 60.7333 333.739 60C335.539 59.2 336.806 57.9667 337.539 56.3ZM378.245 42.6L355.245 2.4H374.845L387.245 25.5L399.645 2.4H419.245L396.345 42.6V73H378.245V42.6ZM441.797 2.4H459.897V30H485.697V2.4H503.797V73H485.697V44.9H459.897V73H441.797V2.4ZM513.77 2.4H531.87L559.77 46V2.4H577.37V73H559.07L531.37 29.5V73H513.77V2.4ZM608.202 44.8H605.502V73H587.402V2.4H618.702C629.902 2.4 637.169 6.03333 640.502 13.3C641.769 16.2333 642.402 19.6667 642.402 23.6C642.402 25.5333 642.236 27.4 641.902 29.2C641.569 31 641.102 32.6 640.502 34C638.236 39.6 633.836 43 627.302 44.2L647.802 73H627.302L608.202 44.8ZM605.502 32.8H613.402C615.936 32.8 618.002 32.4667 619.602 31.8C621.202 31.1333 622.336 30.1 623.002 28.7C623.602 27.5 623.902 26 623.902 24.2C623.902 22.4667 623.602 21 623.002 19.8C622.336 18.4 621.202 17.4 619.602 16.8C618.002 16.2 615.936 15.9 613.402 15.9H605.502V32.8ZM664.963 42.6L641.963 2.4H661.563L673.963 25.5L686.363 2.4H705.963L683.063 42.6V73H664.963V42.6ZM754.916 74.9C747.782 74.9 741.882 73.7 737.216 71.3C732.549 68.8333 729.249 65.5 727.316 61.3C726.049 58.5 725.416 55.2 725.416 51.4H745.316C745.316 53.6 745.616 55.3 746.216 56.5C747.616 59.7667 750.749 61.4 755.616 61.4C757.816 61.4 759.682 61.0333 761.216 60.3C762.749 59.5667 763.849 58.5333 764.516 57.2C764.916 56.3333 765.116 55.2667 765.116 54C765.116 52.8 764.916 51.7667 764.516 50.9C763.982 49.6333 763.049 48.5667 761.716 47.7C760.382 46.8333 758.849 46.1333 757.116 45.6C755.382 45 753.149 44.3333 750.416 43.6C749.816 43.4667 748.182 43 745.516 42.2C741.382 41 737.849 39.4667 734.916 37.6C732.049 35.6667 729.949 33.2333 728.616 30.3C727.549 27.9667 727.016 25.2667 727.016 22.2C727.016 19.2667 727.616 16.3667 728.816 13.5C730.616 9.43333 733.782 6.26666 738.316 3.99999C742.916 1.66666 748.416 0.499998 754.816 0.499998C761.016 0.499998 766.316 1.6 770.716 3.8C775.116 6 778.249 9.16666 780.116 13.3C780.782 14.8333 781.249 16.3667 781.516 17.9C781.849 19.3667 782.016 21.0667 782.016 23H763.216C763.216 21.8667 763.149 20.9 763.016 20.1C762.882 19.3 762.649 18.5333 762.316 17.8C761.049 15 758.316 13.6 754.116 13.6C752.049 13.6 750.316 13.9333 748.916 14.6C747.516 15.2667 746.549 16.2 746.016 17.4C745.682 18.1333 745.516 19 745.516 20C745.516 21.0667 745.682 21.9667 746.016 22.7C746.482 23.7667 747.282 24.6667 748.416 25.4C749.616 26.1333 751.016 26.7667 752.616 27.3C754.216 27.7667 756.316 28.3333 758.916 29C761.382 29.6667 762.949 30.1 763.616 30.3C768.749 31.7 772.949 33.3333 776.216 35.2C779.549 37.0667 781.916 39.6333 783.316 42.9C784.449 45.5 785.016 48.4667 785.016 51.8C785.016 55.2667 784.382 58.4667 783.116 61.4C781.116 65.7333 777.649 69.0667 772.716 71.4C767.849 73.7333 761.916 74.9 754.916 74.9ZM801.72 17.3H786.52V2.4H834.92V17.3H819.82V73H801.72V17.3Z" fill="white"/>
</svg>
