<svg width="820" height="255" viewBox="0 0 820 255" fill="none" xmlns="http://www.w3.org/2000/svg">
<g clip-path="url(#clip0_42_125)">
<path d="M202.7 229.9H180.4L177.1 240.6H162L180.7 183.7H202.4L221.1 240.6H206L202.7 229.9ZM199.3 218.9L191.6 194.3H191.4L183.7 218.9H199.3Z" fill="white"/>
<path d="M225.2 183.7H250C254.6 183.7 258.3 184.4 261.2 185.8C264.1 187.2 266.2 189.3 267.5 192.3C268.6 194.9 269.1 197.9 269.1 201.3C269.1 204.4 268.6 207.3 267.5 209.8C266.2 212.8 264 215 261.1 216.5C258.2 218 254.5 218.8 249.9 218.8H239.7V240.6H225.1V183.7H225.2V183.7ZM245.9 208.2C247.9 208.2 249.5 207.9 250.8 207.4C252.1 206.9 253 206.1 253.5 204.9C253.9 203.8 254.1 202.6 254.1 201.3C254.1 200 253.9 198.8 253.5 197.7C253 196.6 252.1 195.8 250.8 195.3C249.5 194.8 247.9 194.6 245.8 194.6H239.8V208.2H245.9Z" fill="white"/>
<path d="M291 217.9H288.8V240.6H274.2V183.7H299.4C308.4 183.7 314.3 186.6 317 192.5C318 194.9 318.5 197.6 318.5 200.8C318.5 202.4 318.4 203.9 318.1 205.3C317.8 206.7 317.5 208 317 209.2C315.2 213.7 311.6 216.4 306.4 217.4L322.9 240.6H306.4L291 217.9ZM288.8 208.2H295.2C297.2 208.2 298.9 207.9 300.2 207.4C301.5 206.9 302.4 206 302.9 204.9C303.4 203.9 303.6 202.7 303.6 201.3C303.6 199.9 303.4 198.7 302.9 197.8C302.4 196.7 301.5 195.9 300.2 195.4C298.9 194.9 297.2 194.7 295.2 194.7H288.8V208.2Z" fill="white"/>
<path d="M326.1 183.7H340.7V240.6H326.1V183.7Z" fill="white"/>
<path d="M348.7 183.7H363.3V228H378.5V240.6H348.7V183.7V183.7Z" fill="white"/>
<path d="M404 196.4H394.1L396.8 183.7H418.2V240.6H404V196.4Z" fill="white"/>
<path d="M430.1 227.6H442.8L434.3 254.8H424.6L430.1 227.6Z" fill="white"/>
<path d="M460.7 240.3L484.5 212.5C487 209.7 488.7 207.4 489.7 205.7C490.7 204 491.2 202.3 491.2 200.6C491.2 199.5 491 198.5 490.6 197.6C490.1 196.4 489.3 195.5 488.2 194.9C487.1 194.3 485.7 194 484.1 194C480.7 194 478.4 195.3 477.2 197.9C476.5 199.3 476.2 201.3 476.2 203.8H462.3C462.3 199.5 463 195.9 464.3 192.8C465.9 189.2 468.4 186.5 471.9 184.7C475.3 182.9 479.6 182 484.5 182C489.4 182 493.6 182.9 497.1 184.7C500.6 186.5 503.1 189.1 504.8 192.6C505.8 195 506.3 197.6 506.3 200.7C506.3 203.4 505.8 205.8 504.8 208C503.8 210.2 502.2 212.5 500 214.9C496.3 218.9 491.9 223.4 486.7 228.3H506.9V240.5H460.9V240.3H460.7Z" fill="white"/>
<path d="M522 238.9C518.3 236.8 515.5 233.5 513.7 229.2C512.7 226.9 512 224.4 511.5 221.7C511 218.9 510.8 215.8 510.8 212.2C510.8 208.6 511 205.4 511.5 202.7C512 199.9 512.7 197.4 513.7 195.2C515.5 190.9 518.3 187.7 522 185.5C525.7 183.4 530.3 182.3 535.7 182.3C541 182.3 545.5 183.4 549.3 185.5C553 187.6 555.8 190.9 557.6 195.2C558.6 197.5 559.3 200 559.8 202.8C560.3 205.6 560.6 208.8 560.6 212.3C560.6 215.8 560.3 219 559.8 221.8C559.3 224.6 558.6 227.1 557.6 229.4C555.8 233.7 553 236.9 549.3 239.1C545.6 241.2 541 242.3 535.7 242.3C530.3 242.1 525.8 241 522 238.9ZM544 224.9C544.5 223.8 544.9 222.3 545 220.4C545.2 218.5 545.2 215.8 545.2 212.1C545.2 208.4 545.1 205.7 545 203.8C544.8 201.9 544.5 200.4 544 199.2C542.6 196 539.8 194.4 535.7 194.4C531.6 194.4 528.8 196 527.3 199.2C526.8 200.4 526.5 201.9 526.3 203.9C526.1 205.8 526 208.6 526 212.1C526 215.6 526.1 218.4 526.3 220.3C526.5 222.2 526.8 223.8 527.3 224.9C528.7 228.1 531.5 229.7 535.7 229.7C539.8 229.7 542.5 228.1 544 224.9Z" fill="white"/>
<path d="M563.1 240.3L586.9 212.5C589.4 209.7 591.1 207.4 592.1 205.7C593.1 204 593.6 202.3 593.6 200.6C593.6 199.5 593.4 198.5 593 197.6C592.5 196.4 591.7 195.5 590.6 194.9C589.5 194.3 588.1 194 586.5 194C583.1 194 580.8 195.3 579.6 197.9C578.9 199.3 578.6 201.3 578.6 203.8H564.7C564.7 199.5 565.4 195.9 566.7 192.8C568.3 189.2 570.8 186.5 574.3 184.7C577.7 182.9 582 182 586.9 182C591.8 182 596 182.9 599.5 184.7C603 186.5 605.5 189.1 607.2 192.6C608.2 195 608.7 197.6 608.7 200.7C608.7 203.4 608.2 205.8 607.2 208C606.2 210.2 604.6 212.5 602.4 214.9C598.7 218.9 594.3 223.4 589.1 228.3H609.3V240.5H563.3V240.3H563.1Z" fill="white"/>
<path d="M610.8 240.3L634.6 212.5C637.1 209.7 638.8 207.4 639.8 205.7C640.8 204 641.3 202.3 641.3 200.6C641.3 199.5 641.1 198.5 640.7 197.6C640.2 196.4 639.4 195.5 638.3 194.9C637.2 194.3 635.8 194 634.2 194C630.8 194 628.5 195.3 627.3 197.9C626.6 199.3 626.3 201.3 626.3 203.8H612.4C612.4 199.5 613.1 195.9 614.4 192.8C616 189.2 618.5 186.5 622 184.7C625.4 182.9 629.7 182 634.6 182C639.5 182 643.7 182.9 647.2 184.7C650.7 186.5 653.2 189.1 654.9 192.6C655.9 195 656.4 197.6 656.4 200.7C656.4 203.4 655.9 205.8 654.9 208C653.9 210.2 652.3 212.5 650.1 214.9C646.4 218.9 642 223.4 636.8 228.3H657V240.5H611V240.3H610.8Z" fill="white"/>
<path d="M0 95.7H24C30.2 95.7 35.5 96.8999 39.7 99.2999C43.9 101.7 47.1 105.2 49.1 109.7C50 111.6 50.7 113.8 51.1 116.1C51.5 118.5 51.7 121.1 51.7 124.1C51.7 127.1 51.5 129.7 51.1 132.1C50.7 134.5 50 136.6 49.1 138.5C47.1 143 44 146.5 39.7 148.9C35.4 151.3 30.2 152.5 24 152.5H0V95.7V95.7ZM21.6 140.2C25 140.2 27.8 139.6 30 138.4C32.1 137.2 33.7 135.5 34.8 133.2C35.3 132.1 35.7 130.8 35.9 129.3C36.1 127.9 36.2 126.1 36.2 124.1C36.2 122.1 36.1 120.4 35.9 118.9C35.7 117.4 35.3 116.1 34.8 115C33.7 112.7 32.1 111 30 109.8C27.9 108.6 25.1 108.1 21.7 108.1H14.6V140.2C14.6 140.2 21.6 140.2 21.6 140.2Z" fill="white"/>
<path d="M58 95.7H95.7V107.6H72.6V118H95.5V129.5H72.6V140.7H95.7V152.6H58V95.7Z" fill="white"/>
<path d="M147 136.6C147 139.3 146.5 141.6 145.6 143.6C144.3 146.6 142.1 148.8 139 150.3C135.9 151.8 132.1 152.6 127.6 152.6H102.4V95.7H127.9C131.9 95.7 135.3 96.3999 138 97.7999C140.7 99.1999 142.6 101.1 143.7 103.6C144.1 104.6 144.5 105.5 144.7 106.5C144.9 107.5 145 108.5 145 109.7C145 110.9 144.9 111.9 144.7 112.8C144.5 113.7 144.2 114.6 143.9 115.5C142.6 118.6 139.9 120.8 135.8 122C138.4 122.8 140.5 123.8 142.1 125C143.7 126.3 145 127.8 145.8 129.7C146.5 131.6 147 133.8 147 136.6ZM116.8 118.5H121.6C125.5 118.5 127.9 117.4 128.9 115.1C129.1 114.6 129.3 114 129.4 113.5C129.5 113 129.6 112.4 129.6 111.6C129.6 111 129.5 110.4 129.4 109.9C129.3 109.4 129.1 108.9 128.9 108.5C127.9 106.2 125.4 105.1 121.5 105.1H116.8V118.5ZM131.3 135.6C131.3 134.4 131.1 133.3 130.6 132.1C130 130.8 129 129.8 127.5 129.2C126.1 128.6 124.2 128.3 121.9 128.3H116.8V143H121.8C124.1 143 126 142.7 127.4 142.1C128.8 141.5 129.9 140.5 130.5 139.2C131 138.1 131.3 136.9 131.3 135.6Z" fill="white"/>
<path d="M162.6 151.8C159 150.2 156.4 147.9 154.7 144.6C153 141.4 152.1 137.3 152.1 132.3V95.7H166.7V131.3C166.7 134.7 167.5 137.2 169.1 139C170.7 140.7 173.1 141.6 176.4 141.6C179.8 141.6 182.3 140.7 183.9 139C185.5 137.3 186.3 134.7 186.3 131.3V95.7H200.9V132.3C200.9 137.3 200 141.5 198.3 144.7C196.6 147.9 193.9 150.3 190.3 151.8C186.7 153.4 182.1 154.1 176.4 154.1C170.8 154.1 166.2 153.3 162.6 151.8Z" fill="white"/>
<path d="M216.7 107.7H204.5V95.7H243.5V107.7H231.3V152.6H216.7V107.7V107.7Z" fill="white"/>
<path d="M279.3 129.9H277.1V152.6H262.5V95.7H287.7C296.7 95.7 302.6 98.5999 305.3 104.5C306.3 106.9 306.8 109.6 306.8 112.8C306.8 114.4 306.7 115.9 306.4 117.3C306.1 118.7 305.8 120 305.3 121.2C303.5 125.7 299.9 128.4 294.7 129.4L311.2 152.6H294.7L279.3 129.9ZM277.1 120.2H283.5C285.5 120.2 287.2 119.9 288.5 119.4C289.8 118.9 290.7 118 291.2 116.9C291.7 115.9 291.9 114.7 291.9 113.3C291.9 111.9 291.7 110.7 291.2 109.8C290.7 108.7 289.8 107.9 288.5 107.4C287.2 106.9 285.5 106.7 283.5 106.7H277.1V120.2Z" fill="white"/>
<path d="M314.3 95.7H352V107.6H328.9V118H351.8V129.5H328.9V140.7H352V152.6H314.3V95.7Z" fill="white"/>
<path d="M358.6 95.7H373.2V140H388.4V152.6H358.6V95.7V95.7Z" fill="white"/>
<path d="M393 95.7H430.7V107.6H407.6V118H430.5V129.5H407.6V140.7H430.7V152.6H393V95.7Z" fill="white"/>
<path d="M473.5 141.9H451.2L447.9 152.6H432.8L451.5 95.7H473.2L491.9 152.6H476.8L473.5 141.9ZM470.1 130.9L462.4 106.3H462.2L454.5 130.9H470.1Z" fill="white"/>
<path d="M501.4 151.2C497.6 149.2 495 146.6 493.4 143.2C492.4 140.9 491.9 138.3 491.9 135.2H507.9C507.9 137 508.1 138.3 508.6 139.3C509.7 141.9 512.3 143.2 516.2 143.2C518 143.2 519.5 142.9 520.7 142.3C521.9 141.7 522.8 140.9 523.4 139.8C523.7 139.1 523.9 138.2 523.9 137.2C523.9 136.2 523.7 135.4 523.4 134.7C523 133.7 522.2 132.8 521.1 132.1C520 131.4 518.8 130.8 517.4 130.4C516 129.9 514.2 129.4 512 128.8C511.5 128.7 510.2 128.3 508.1 127.7C504.8 126.7 501.9 125.5 499.6 124C497.3 122.5 495.6 120.5 494.5 118.2C493.6 116.3 493.2 114.1 493.2 111.7C493.2 109.3 493.7 107 494.6 104.7C496 101.4 498.6 98.8999 502.3 96.9999C506 95.0999 510.4 94.2 515.5 94.2C520.5 94.2 524.8 95.0999 528.3 96.8999C531.8 98.6999 534.4 101.2 535.9 104.6C536.4 105.8 536.8 107.1 537.1 108.3C537.3 109.5 537.5 110.9 537.5 112.4H522.4C522.4 111.5 522.3 110.7 522.2 110.1C522.1 109.5 521.9 108.8 521.6 108.2C520.6 105.9 518.4 104.8 515 104.8C513.3 104.8 511.9 105.1 510.8 105.6C509.7 106.1 508.9 106.9 508.5 107.9C508.2 108.5 508.1 109.2 508.1 110C508.1 110.9 508.2 111.6 508.5 112.2C508.9 113.1 509.5 113.8 510.5 114.4C511.4 115 512.6 115.5 513.8 115.9C515.1 116.3 516.8 116.8 518.9 117.3C520.9 117.8 522.1 118.2 522.7 118.3C526.8 119.4 530.2 120.7 532.9 122.2C535.6 123.7 537.5 125.8 538.6 128.4C539.5 130.5 540 132.9 540 135.6C540 138.4 539.5 141 538.5 143.3C536.9 146.8 534.1 149.5 530.2 151.4C526.3 153.3 521.5 154.2 515.8 154.2C509.9 154.1 505.2 153.1 501.4 151.2Z" fill="white"/>
<path d="M545.5 95.7H583.2V107.6H560.1V118H583V129.5H560.1V140.7H583.2V152.6H545.5V95.7Z" fill="white"/>
<path d="M603.7 123.3H628.8V134.4H603.7V123.3Z" fill="white"/>
<path d="M657.3 108.5H647.4L650.1 95.7999H671.5V152.7H657.3V108.5Z" fill="white"/>
<path d="M680.2 95.7H694.8L717.3 130.8V95.7H731.5V152.6H716.8L694.5 117.6V152.6H680.2V95.7Z" fill="white"/>
<path d="M739.5 95.7H754.1V140H769.3V152.6H739.5V95.7Z" fill="white"/>
<path d="M819.8 95.7L798.5 152.6H783.8L762.4 95.7H777.9L791.2 134.9L804.6 95.7C804.7 95.7 819.8 95.7 819.8 95.7Z" fill="white"/>
<path d="M252 1.5H266.6V23.7H287.4V1.5H302V58.4H287.4V35.8H266.6V58.4H252V1.5Z" fill="white"/>
<path d="M310 1.5H324.6L347 36.6V1.5H361.2V58.4H346.5L324.2 23.4V58.4H310V1.5Z" fill="white"/>
<path d="M386 35.7H383.8V58.4H369.2V1.5H394.4C403.4 1.5 409.3 4.4 412 10.3C413 12.7 413.5 15.4 413.5 18.6C413.5 20.2 413.4 21.7 413.1 23.1C412.8 24.5 412.5 25.8 412 27C410.2 31.5 406.6 34.2 401.4 35.2L417.9 58.4H401.4L386 35.7ZM383.8 26H390.2C392.2 26 393.9 25.7 395.2 25.2C396.5 24.7 397.4 23.8 397.9 22.7C398.4 21.7 398.6 20.5 398.6 19.1C398.6 17.7 398.4 16.5 397.9 15.6C397.4 14.5 396.5 13.7 395.2 13.2C393.9 12.7 392.2 12.5 390.2 12.5H383.8V26Z" fill="white"/>
<path d="M431.8 33.9L413.2 1.5H429L439 20.1L449 1.5H464.8L446.4 33.9V58.4H431.8V33.9V33.9Z" fill="white"/>
<path d="M490 57C486.2 55 483.6 52.4 482 49C481 46.7 480.5 44.1 480.5 41H496.5C496.5 42.8 496.7 44.1 497.2 45.1C498.3 47.7 500.9 49 504.8 49C506.6 49 508.1 48.7 509.3 48.1C510.5 47.5 511.4 46.7 512 45.6C512.3 44.9 512.5 44 512.5 43C512.5 42 512.3 41.2 512 40.5C511.6 39.5 510.8 38.6 509.7 37.9C508.6 37.2 507.4 36.6 506 36.2C504.6 35.7 502.8 35.2 500.6 34.6C500.1 34.5 498.8 34.1 496.7 33.5C493.4 32.5 490.5 31.3 488.2 29.8C485.9 28.3 484.2 26.3 483.1 24C482.2 22.1 481.8 19.9 481.8 17.5C481.8 15.1 482.3 12.8 483.2 10.5C484.6 7.2 487.2 4.7 490.9 2.8C494.6 0.900003 499 0 504.1 0C509.1 0 513.4 0.899997 516.9 2.7C520.4 4.5 523 6.99999 524.5 10.4C525 11.6 525.4 12.9 525.7 14.1C525.9 15.3 526.1 16.7 526.1 18.2H511C511 17.3 510.9 16.5 510.8 15.9C510.7 15.3 510.5 14.6 510.2 14C509.2 11.7 507 10.6 503.6 10.6C501.9 10.6 500.5 10.9 499.4 11.4C498.3 11.9 497.5 12.7 497.1 13.7C496.8 14.3 496.7 15 496.7 15.8C496.7 16.7 496.8 17.4 497.1 18C497.5 18.9 498.1 19.6 499.1 20.2C500 20.8 501.2 21.3 502.4 21.7C503.7 22.1 505.4 22.6 507.5 23.1C509.5 23.6 510.7 24 511.3 24.1C515.4 25.2 518.8 26.5 521.5 28C524.2 29.5 526.1 31.6 527.2 34.2C528.1 36.3 528.6 38.7 528.6 41.4C528.6 44.2 528.1 46.8 527.1 49.1C525.5 52.6 522.7 55.3 518.8 57.2C514.9 59.1 510.1 60 504.4 60C498.5 59.9 493.8 58.9 490 57Z" fill="white"/>
<path d="M541.9 13.5H529.7V1.5H568.7V13.5H556.5V58.4H541.9V13.5V13.5Z" fill="white"/>
</g>
<defs>
<clipPath id="clip0_42_125">
<rect width="819.9" height="254.8" fill="white"/>
</clipPath>
</defs>
</svg>
