<?xml version="1.0" encoding="utf-8"?>
<!-- Generator: Adobe Illustrator 19.0.0, SVG Export Plug-In . SVG Version: 6.00 Build 0)  -->
<svg version="1.1" xmlns="http://www.w3.org/2000/svg" xmlns:xlink="http://www.w3.org/1999/xlink" x="0px" y="0px"
	 viewBox="475 206.5 819.9 254.8" style="enable-background:new 475 206.5 819.9 254.8;" xml:space="preserve">
<style type="text/css">
	.st0{fill:#FFFFFF;}
</style>
<g id="Layer_1">
	<g>
		<path id="XMLID_362_" class="st0" d="M640.3,436.4H618l-3.3,10.7h-15.1l18.7-56.9H640l18.7,56.9h-15.1L640.3,436.4z M636.9,425.4
			l-7.7-24.6H629l-7.7,24.6H636.9z"/>
		<path id="XMLID_359_" class="st0" d="M662.8,390.2h24.8c4.6,0,8.3,0.7,11.2,2.1c2.9,1.4,5,3.5,6.3,6.5c1.1,2.6,1.6,5.6,1.6,9
			c0,3.1-0.5,6-1.6,8.5c-1.3,3-3.5,5.2-6.4,6.7c-2.9,1.5-6.6,2.3-11.2,2.3h-10.2v21.8h-14.6v-56.9H662.8z M683.5,414.7
			c2,0,3.6-0.3,4.9-0.8c1.3-0.5,2.2-1.3,2.7-2.5c0.4-1.1,0.6-2.3,0.6-3.6c0-1.3-0.2-2.5-0.6-3.6c-0.5-1.1-1.4-1.9-2.7-2.4
			c-1.3-0.5-2.9-0.7-5-0.7h-6v13.6H683.5z"/>
		<path id="XMLID_356_" class="st0" d="M728.6,424.4h-2.2v22.7h-14.6v-56.9H737c9,0,14.9,2.9,17.6,8.8c1,2.4,1.5,5.1,1.5,8.3
			c0,1.6-0.1,3.1-0.4,4.5s-0.6,2.7-1.1,3.9c-1.8,4.5-5.4,7.2-10.6,8.2l16.5,23.2H744L728.6,424.4z M726.4,414.7h6.4
			c2,0,3.7-0.3,5-0.8s2.2-1.4,2.7-2.5c0.5-1,0.7-2.2,0.7-3.6c0-1.4-0.2-2.6-0.7-3.5c-0.5-1.1-1.4-1.9-2.7-2.4s-3-0.7-5-0.7h-6.4
			V414.7z"/>
		<path id="XMLID_354_" class="st0" d="M763.7,390.2h14.6v56.9h-14.6V390.2z"/>
		<path id="XMLID_352_" class="st0" d="M786.3,390.2h14.6v44.3h15.2v12.6h-29.8V390.2z"/>
		<path id="XMLID_350_" class="st0" d="M841.6,402.9h-9.9l2.7-12.7h21.4v56.9h-14.2V402.9z"/>
		<path id="XMLID_348_" class="st0" d="M867.7,434.1h12.7l-8.5,27.2h-9.7L867.7,434.1z"/>
		<path id="XMLID_346_" class="st0" d="M898.3,446.8l23.8-27.8c2.5-2.8,4.2-5.1,5.2-6.8c1-1.7,1.5-3.4,1.5-5.1c0-1.1-0.2-2.1-0.6-3
			c-0.5-1.2-1.3-2.1-2.4-2.7c-1.1-0.6-2.5-0.9-4.1-0.9c-3.4,0-5.7,1.3-6.9,3.9c-0.7,1.4-1,3.4-1,5.9h-13.9c0-4.3,0.7-7.9,2-11
			c1.6-3.6,4.1-6.3,7.6-8.1c3.4-1.8,7.7-2.7,12.6-2.7c4.9,0,9.1,0.9,12.6,2.7c3.5,1.8,6,4.4,7.7,7.9c1,2.4,1.5,5,1.5,8.1
			c0,2.7-0.5,5.1-1.5,7.3c-1,2.2-2.6,4.5-4.8,6.9c-3.7,4-8.1,8.5-13.3,13.4h20.2V447h-46v-0.2H898.3z"/>
		<path id="XMLID_343_" class="st0" d="M959.6,445.4c-3.7-2.1-6.5-5.4-8.3-9.7c-1-2.3-1.7-4.8-2.2-7.5c-0.5-2.8-0.7-5.9-0.7-9.5
			s0.2-6.8,0.7-9.5c0.5-2.8,1.2-5.3,2.2-7.5c1.8-4.3,4.6-7.5,8.3-9.7c3.7-2.1,8.3-3.2,13.7-3.2c5.3,0,9.8,1.1,13.6,3.2
			c3.7,2.1,6.5,5.4,8.3,9.7c1,2.3,1.7,4.8,2.2,7.6c0.5,2.8,0.8,6,0.8,9.5s-0.3,6.7-0.8,9.5c-0.5,2.8-1.2,5.3-2.2,7.6
			c-1.8,4.3-4.6,7.5-8.3,9.7c-3.7,2.1-8.3,3.2-13.6,3.2C967.9,448.6,963.4,447.5,959.6,445.4z M981.6,431.4c0.5-1.1,0.9-2.6,1-4.5
			c0.2-1.9,0.2-4.6,0.2-8.3c0-3.7-0.1-6.4-0.2-8.3c-0.2-1.9-0.5-3.4-1-4.6c-1.4-3.2-4.2-4.8-8.3-4.8s-6.9,1.6-8.4,4.8
			c-0.5,1.2-0.8,2.7-1,4.7c-0.2,1.9-0.3,4.7-0.3,8.2s0.1,6.3,0.3,8.2s0.5,3.5,1,4.6c1.4,3.2,4.2,4.8,8.4,4.8
			C977.4,436.2,980.1,434.6,981.6,431.4z"/>
		<path id="XMLID_341_" class="st0" d="M1000.7,446.8l23.8-27.8c2.5-2.8,4.2-5.1,5.2-6.8c1-1.7,1.5-3.4,1.5-5.1c0-1.1-0.2-2.1-0.6-3
			c-0.5-1.2-1.3-2.1-2.4-2.7c-1.1-0.6-2.5-0.9-4.1-0.9c-3.4,0-5.7,1.3-6.9,3.9c-0.7,1.4-1,3.4-1,5.9h-13.9c0-4.3,0.7-7.9,2-11
			c1.6-3.6,4.1-6.3,7.6-8.1c3.4-1.8,7.7-2.7,12.6-2.7c4.9,0,9.1,0.9,12.6,2.7c3.5,1.8,6,4.4,7.7,7.9c1,2.4,1.5,5,1.5,8.1
			c0,2.7-0.5,5.1-1.5,7.3c-1,2.2-2.6,4.5-4.8,6.9c-3.7,4-8.1,8.5-13.3,13.4h20.2V447h-46v-0.2H1000.7z"/>
		<path id="XMLID_339_" class="st0" d="M1048.4,446.8l23.8-27.8c2.5-2.8,4.2-5.1,5.2-6.8c1-1.7,1.5-3.4,1.5-5.1c0-1.1-0.2-2.1-0.6-3
			c-0.5-1.2-1.3-2.1-2.4-2.7s-2.5-0.9-4.1-0.9c-3.4,0-5.7,1.3-6.9,3.9c-0.7,1.4-1,3.4-1,5.9H1050c0-4.3,0.7-7.9,2-11
			c1.6-3.6,4.1-6.3,7.6-8.1c3.4-1.8,7.7-2.7,12.6-2.7c4.9,0,9.1,0.9,12.6,2.7c3.5,1.8,6,4.4,7.7,7.9c1,2.4,1.5,5,1.5,8.1
			c0,2.7-0.5,5.1-1.5,7.3c-1,2.2-2.6,4.5-4.8,6.9c-3.7,4-8.1,8.5-13.3,13.4h20.2V447h-46v-0.2H1048.4z"/>
	</g>
</g>
<g id="Layer_2_1_">
	<g>
		<path id="XMLID_585_" class="st0" d="M475,302.2h24c6.2,0,11.5,1.2,15.7,3.6c4.2,2.4,7.4,5.9,9.4,10.4c0.9,1.9,1.6,4.1,2,6.4
			c0.4,2.4,0.6,5,0.6,8s-0.2,5.6-0.6,8c-0.4,2.4-1.1,4.5-2,6.4c-2,4.5-5.1,8-9.4,10.4c-4.3,2.4-9.5,3.6-15.7,3.6h-24V302.2z
			 M496.6,346.7c3.4,0,6.2-0.6,8.4-1.8c2.1-1.2,3.7-2.9,4.8-5.2c0.5-1.1,0.9-2.4,1.1-3.9c0.2-1.4,0.3-3.2,0.3-5.2s-0.1-3.7-0.3-5.2
			c-0.2-1.5-0.6-2.8-1.1-3.9c-1.1-2.3-2.7-4-4.8-5.2c-2.1-1.2-4.9-1.7-8.3-1.7h-7.1v32.1C489.6,346.7,496.6,346.7,496.6,346.7z"/>
		<path id="XMLID_583_" class="st0" d="M533,302.2h37.7v11.9h-23.1v10.4h22.9V336h-22.9v11.2h23.1v11.9H533V302.2z"/>
		<path id="XMLID_579_" class="st0" d="M622,343.1c0,2.7-0.5,5-1.4,7c-1.3,3-3.5,5.2-6.6,6.7c-3.1,1.5-6.9,2.3-11.4,2.3h-25.2v-56.9
			h25.5c4,0,7.4,0.7,10.1,2.1c2.7,1.4,4.6,3.3,5.7,5.8c0.4,1,0.8,1.9,1,2.9c0.2,1,0.3,2,0.3,3.2c0,1.2-0.1,2.2-0.3,3.1
			c-0.2,0.9-0.5,1.8-0.8,2.7c-1.3,3.1-4,5.3-8.1,6.5c2.6,0.8,4.7,1.8,6.3,3c1.6,1.3,2.9,2.8,3.7,4.7
			C621.5,338.1,622,340.3,622,343.1z M591.8,325h4.8c3.9,0,6.3-1.1,7.3-3.4c0.2-0.5,0.4-1.1,0.5-1.6s0.2-1.1,0.2-1.9
			c0-0.6-0.1-1.2-0.2-1.7s-0.3-1-0.5-1.4c-1-2.3-3.5-3.4-7.4-3.4h-4.7L591.8,325L591.8,325z M606.3,342.1c0-1.2-0.2-2.3-0.7-3.5
			c-0.6-1.3-1.6-2.3-3.1-2.9c-1.4-0.6-3.3-0.9-5.6-0.9h-5.1v14.7h5c2.3,0,4.2-0.3,5.6-0.9c1.4-0.6,2.5-1.6,3.1-2.9
			C606,344.6,606.3,343.4,606.3,342.1z"/>
		<path id="XMLID_577_" class="st0" d="M637.6,358.3c-3.6-1.6-6.2-3.9-7.9-7.2c-1.7-3.2-2.6-7.3-2.6-12.3v-36.6h14.6v35.6
			c0,3.4,0.8,5.9,2.4,7.7c1.6,1.7,4,2.6,7.3,2.6c3.4,0,5.9-0.9,7.5-2.6c1.6-1.7,2.4-4.3,2.4-7.7v-35.6h14.6v36.6
			c0,5-0.9,9.2-2.6,12.4c-1.7,3.2-4.4,5.6-8,7.1c-3.6,1.6-8.2,2.3-13.9,2.3C645.8,360.6,641.2,359.8,637.6,358.3z"/>
		<path id="XMLID_575_" class="st0" d="M691.7,314.2h-12.2v-12h39v12h-12.2v44.9h-14.6V314.2z"/>
		<path id="XMLID_572_" class="st0" d="M754.3,336.4h-2.2v22.7h-14.6v-56.9h25.2c9,0,14.9,2.9,17.6,8.8c1,2.4,1.5,5.1,1.5,8.3
			c0,1.6-0.1,3.1-0.4,4.5c-0.3,1.4-0.6,2.7-1.1,3.9c-1.8,4.5-5.4,7.2-10.6,8.2l16.5,23.2h-16.5L754.3,336.4z M752.1,326.7h6.4
			c2,0,3.7-0.3,5-0.8c1.3-0.5,2.2-1.4,2.7-2.5c0.5-1,0.7-2.2,0.7-3.6s-0.2-2.6-0.7-3.5c-0.5-1.1-1.4-1.9-2.7-2.4
			c-1.3-0.5-3-0.7-5-0.7h-6.4V326.7z"/>
		<path id="XMLID_570_" class="st0" d="M789.3,302.2H827v11.9h-23.1v10.4h22.9V336h-22.9v11.2H827v11.9h-37.7V302.2z"/>
		<path id="XMLID_568_" class="st0" d="M833.6,302.2h14.6v44.3h15.2v12.6h-29.8V302.2z"/>
		<path id="XMLID_566_" class="st0" d="M868,302.2h37.7v11.9h-23.1v10.4h22.9V336h-22.9v11.2h23.1v11.9H868V302.2z"/>
		<path id="XMLID_563_" class="st0" d="M948.5,348.4h-22.3l-3.3,10.7h-15.1l18.7-56.9h21.7l18.7,56.9h-15.1L948.5,348.4z
			 M945.1,337.4l-7.7-24.6h-0.2l-7.7,24.6H945.1z"/>
		<path id="XMLID_561_" class="st0" d="M976.4,357.7c-3.8-2-6.4-4.6-8-8c-1-2.3-1.5-4.9-1.5-8h16c0,1.8,0.2,3.1,0.7,4.1
			c1.1,2.6,3.7,3.9,7.6,3.9c1.8,0,3.3-0.3,4.5-0.9c1.2-0.6,2.1-1.4,2.7-2.5c0.3-0.7,0.5-1.6,0.5-2.6s-0.2-1.8-0.5-2.5
			c-0.4-1-1.2-1.9-2.3-2.6c-1.1-0.7-2.3-1.3-3.7-1.7c-1.4-0.5-3.2-1-5.4-1.6c-0.5-0.1-1.8-0.5-3.9-1.1c-3.3-1-6.2-2.2-8.5-3.7
			c-2.3-1.5-4-3.5-5.1-5.8c-0.9-1.9-1.3-4.1-1.3-6.5c0-2.4,0.5-4.7,1.4-7c1.4-3.3,4-5.8,7.7-7.7c3.7-1.9,8.1-2.8,13.2-2.8
			c5,0,9.3,0.9,12.8,2.7s6.1,4.3,7.6,7.7c0.5,1.2,0.9,2.5,1.2,3.7c0.2,1.2,0.4,2.6,0.4,4.1h-15.1c0-0.9-0.1-1.7-0.2-2.3
			c-0.1-0.6-0.3-1.3-0.6-1.9c-1-2.3-3.2-3.4-6.6-3.4c-1.7,0-3.1,0.3-4.2,0.8c-1.1,0.5-1.9,1.3-2.3,2.3c-0.3,0.6-0.4,1.3-0.4,2.1
			c0,0.9,0.1,1.6,0.4,2.2c0.4,0.9,1,1.6,2,2.2c0.9,0.6,2.1,1.1,3.3,1.5c1.3,0.4,3,0.9,5.1,1.4c2,0.5,3.2,0.9,3.8,1
			c4.1,1.1,7.5,2.4,10.2,3.9c2.7,1.5,4.6,3.6,5.7,6.2c0.9,2.1,1.4,4.5,1.4,7.2c0,2.8-0.5,5.4-1.5,7.7c-1.6,3.5-4.4,6.2-8.3,8.1
			s-8.7,2.8-14.4,2.8C984.9,360.6,980.2,359.6,976.4,357.7z"/>
		<path id="XMLID_559_" class="st0" d="M1020.5,302.2h37.7v11.9h-23.1v10.4h22.9V336h-22.9v11.2h23.1v11.9h-37.7V302.2z"/>
		<path id="XMLID_557_" class="st0" d="M1078.7,329.8h25.1v11.1h-25.1V329.8z"/>
		<path id="XMLID_555_" class="st0" d="M1132.3,315h-9.9l2.7-12.7h21.4v56.9h-14.2V315z"/>
		<path id="XMLID_553_" class="st0" d="M1155.2,302.2h14.6l22.5,35.1v-35.1h14.2v56.9h-14.7l-22.3-35v35h-14.3V302.2z"/>
		<path id="XMLID_551_" class="st0" d="M1214.5,302.2h14.6v44.3h15.2v12.6h-29.8L1214.5,302.2L1214.5,302.2z"/>
		<path id="XMLID_549_" class="st0" d="M1294.8,302.2l-21.3,56.9h-14.7l-21.4-56.9h15.5l13.3,39.2l13.4-39.2
			C1279.7,302.2,1294.8,302.2,1294.8,302.2z"/>
	</g>
</g>
<g id="Layer_3">
	<g>
		<path id="XMLID_599_" class="st0" d="M685.4,208H700v22.2h20.8V208h14.6v56.9h-14.6v-22.6H700v22.6h-14.6V208z"/>
		<path id="XMLID_597_" class="st0" d="M743.4,208H758l22.4,35.1V208h14.2v56.9h-14.7l-22.3-35v35h-14.2V208z"/>
		<path id="XMLID_594_" class="st0" d="M819.4,242.2h-2.2v22.7h-14.6V208h25.2c9,0,14.9,2.9,17.6,8.8c1,2.4,1.5,5.1,1.5,8.3
			c0,1.6-0.1,3.1-0.4,4.5c-0.3,1.4-0.6,2.7-1.1,3.9c-1.8,4.5-5.4,7.2-10.6,8.2l16.5,23.2h-16.5L819.4,242.2z M817.2,232.5h6.4
			c2,0,3.7-0.3,5-0.8c1.3-0.5,2.2-1.4,2.7-2.5c0.5-1,0.7-2.2,0.7-3.6c0-1.4-0.2-2.6-0.7-3.5c-0.5-1.1-1.4-1.9-2.7-2.4
			c-1.3-0.5-3-0.7-5-0.7h-6.4V232.5z"/>
		<path id="XMLID_592_" class="st0" d="M865.2,240.4L846.6,208h15.8l10,18.6l10-18.6h15.8l-18.4,32.4v24.5h-14.6V240.4z"/>
		<path id="XMLID_590_" class="st0" d="M923.4,263.5c-3.8-2-6.4-4.6-8-8c-1-2.3-1.5-4.9-1.5-8h16c0,1.8,0.2,3.1,0.7,4.1
			c1.1,2.6,3.7,3.9,7.6,3.9c1.8,0,3.3-0.3,4.5-0.9c1.2-0.6,2.1-1.4,2.7-2.5c0.3-0.7,0.5-1.6,0.5-2.6s-0.2-1.8-0.5-2.5
			c-0.4-1-1.2-1.9-2.3-2.6s-2.3-1.3-3.7-1.7c-1.4-0.5-3.2-1-5.4-1.6c-0.5-0.1-1.8-0.5-3.9-1.1c-3.3-1-6.2-2.2-8.5-3.7
			c-2.3-1.5-4-3.5-5.1-5.8c-0.9-1.9-1.3-4.1-1.3-6.5s0.5-4.7,1.4-7c1.4-3.3,4-5.8,7.7-7.7c3.7-1.9,8.1-2.8,13.2-2.8
			c5,0,9.3,0.9,12.8,2.7s6.1,4.3,7.6,7.7c0.5,1.2,0.9,2.5,1.2,3.7c0.2,1.2,0.4,2.6,0.4,4.1h-15.1c0-0.9-0.1-1.7-0.2-2.3
			c-0.1-0.6-0.3-1.3-0.6-1.9c-1-2.3-3.2-3.4-6.6-3.4c-1.7,0-3.1,0.3-4.2,0.8s-1.9,1.3-2.3,2.3c-0.3,0.6-0.4,1.3-0.4,2.1
			c0,0.9,0.1,1.6,0.4,2.2c0.4,0.9,1,1.6,2,2.2c0.9,0.6,2.1,1.1,3.3,1.5c1.3,0.4,3,0.9,5.1,1.4c2,0.5,3.2,0.9,3.8,1
			c4.1,1.1,7.5,2.4,10.2,3.9s4.6,3.6,5.7,6.2c0.9,2.1,1.4,4.5,1.4,7.2c0,2.8-0.5,5.4-1.5,7.7c-1.6,3.5-4.4,6.2-8.3,8.1
			c-3.9,1.9-8.7,2.8-14.4,2.8C931.9,266.4,927.2,265.4,923.4,263.5z"/>
		<path id="XMLID_588_" class="st0" d="M975.3,220h-12.2v-12h39v12h-12.2v44.9h-14.6V220L975.3,220z"/>
	</g>
</g>
</svg>
