<svg width="1278" height="249" viewBox="0 0 1278 249" fill="none" xmlns="http://www.w3.org/2000/svg">
<path d="M98.8379 248.327C75.0839 248.327 55.4369 244.331 39.8969 236.339C24.3569 228.125 13.3679 217.025 6.92988 203.039C2.71188 193.715 0.602879 182.726 0.602879 170.072H66.8699C66.8699 177.398 67.8689 183.059 69.8669 187.055C74.5289 197.933 84.9629 203.372 101.169 203.372C108.495 203.372 114.711 202.151 119.817 199.709C124.923 197.267 128.586 193.826 130.806 189.386C132.138 186.5 132.804 182.948 132.804 178.73C132.804 174.734 132.138 171.293 130.806 168.407C129.03 164.189 125.922 160.637 121.482 157.751C117.042 154.865 111.936 152.534 106.164 150.758C100.392 148.76 92.9549 146.54 83.8529 144.098C81.8549 143.654 76.4159 142.1 67.5359 139.436C53.7719 135.44 42.0059 130.334 32.2379 124.118C22.6919 117.68 15.6989 109.577 11.2589 99.809C7.70688 92.039 5.93088 83.048 5.93088 72.836C5.93088 63.068 7.92888 53.411 11.9249 43.865C17.9189 30.323 28.4639 19.778 43.5599 12.23C58.8779 4.45999 77.1929 0.574992 98.5049 0.574992C119.151 0.574992 136.8 4.23799 151.452 11.564C166.104 18.89 176.538 29.435 182.754 43.199C184.974 48.305 186.528 53.411 187.416 58.517C188.526 63.401 189.081 69.062 189.081 75.5H126.477C126.477 71.726 126.255 68.507 125.811 65.843C125.367 63.179 124.59 60.626 123.48 58.184C119.262 48.86 110.16 44.198 96.1739 44.198C89.2919 44.198 83.5199 45.308 78.8579 47.528C74.1959 49.748 70.9769 52.856 69.2009 56.852C68.0909 59.294 67.5359 62.18 67.5359 65.51C67.5359 69.062 68.0909 72.059 69.2009 74.501C70.7549 78.053 73.4189 81.05 77.1929 83.492C81.1889 85.934 85.8509 88.043 91.1789 89.819C96.5069 91.373 103.5 93.26 112.158 95.48C120.372 97.7 125.589 99.143 127.809 99.809C144.903 104.471 158.889 109.91 169.767 116.126C180.867 122.342 188.748 130.889 193.41 141.767C197.184 150.425 199.071 160.304 199.071 171.404C199.071 182.948 196.962 193.604 192.744 203.372C186.084 217.802 174.54 228.902 158.112 236.672C141.906 244.442 122.148 248.327 98.8379 248.327ZM221.978 6.90199H282.251V242H221.978V6.90199ZM538.078 112.796V128.114C538.078 152.09 533.971 173.069 525.757 191.051C517.321 210.143 504.778 224.462 488.128 234.008C471.478 243.554 451.054 248.327 426.856 248.327C400.882 248.327 378.793 242.999 360.589 232.343C342.385 221.465 328.732 206.147 319.63 186.389C312.082 168.851 308.308 148.205 308.308 124.451C308.308 101.141 312.193 80.495 319.963 62.513C329.065 42.533 342.718 27.215 360.922 16.559C379.126 5.90299 401.104 0.574992 426.856 0.574992C443.284 0.574992 458.269 2.90599 471.811 7.56798C485.575 12.008 497.23 18.668 506.776 27.548C515.212 35.318 521.983 44.531 527.089 55.187C532.195 65.621 535.192 76.832 536.08 88.82H473.809C472.033 77.72 467.815 69.284 461.155 63.512C457.159 59.738 452.164 56.963 446.17 55.187C440.398 53.189 433.738 52.19 426.19 52.19C403.546 52.19 388.006 61.181 379.57 79.163C377.128 84.935 375.352 91.262 374.242 98.144C373.132 104.804 372.577 113.573 372.577 124.451C372.577 135.107 373.132 143.876 374.242 150.758C375.352 157.418 377.128 163.634 379.57 169.406C387.784 187.61 404.101 196.712 428.521 196.712C439.621 196.712 448.945 194.714 456.493 190.718C464.263 186.722 469.924 180.839 473.476 173.069C475.918 167.741 477.25 161.636 477.472 154.754H425.524V112.796H538.078ZM563.758 6.90199H624.031L716.938 152.09V6.90199H775.546V242H714.607L622.366 97.145V242H563.758V6.90199ZM965.028 248.327C941.94 248.327 922.959 245.108 908.085 238.67C893.433 232.232 882.555 222.353 875.451 209.033C868.347 195.713 864.795 178.73 864.795 158.084V6.90199H925.068V154.088C925.068 168.074 928.287 178.619 934.725 185.723C941.385 192.827 951.486 196.379 965.028 196.379C979.014 196.379 989.337 192.827 995.997 185.723C1002.66 178.619 1005.99 168.074 1005.99 154.088V6.90199H1066.26V158.084C1066.26 178.952 1062.6 196.046 1055.27 209.366C1048.17 222.464 1037.18 232.232 1022.3 238.67C1007.43 245.108 988.338 248.327 965.028 248.327ZM1095.45 6.90199H1198.02C1216.89 6.90199 1232.32 9.78799 1244.3 15.56C1256.51 21.11 1265.28 29.99 1270.61 42.2C1275.05 52.856 1277.27 65.288 1277.27 79.496C1277.27 92.372 1275.05 104.138 1270.61 114.794C1265.06 127.004 1256.18 136.217 1243.97 142.433C1231.98 148.649 1216.66 151.757 1198.02 151.757H1155.73V242H1095.45V6.90199ZM1181.03 108.134C1189.25 108.134 1196.02 107.135 1201.35 105.137C1206.67 102.917 1210.45 99.476 1212.67 94.814C1214.44 90.152 1215.33 85.157 1215.33 79.829C1215.33 74.501 1214.44 69.506 1212.67 64.844C1210.45 60.182 1206.67 56.852 1201.35 54.854C1196.24 52.856 1189.36 51.857 1180.7 51.857H1155.73V108.134H1181.03Z" fill="white"/>
</svg>
