<?xml version="1.0" encoding="utf-8"?>
<!-- Generator: Adobe Illustrator 19.0.0, SVG Export Plug-In . SVG Version: 6.00 Build 0)  -->
<svg version="1.1" id="Layer_1" xmlns="http://www.w3.org/2000/svg" xmlns:xlink="http://www.w3.org/1999/xlink" x="0px" y="0px"
	 viewBox="0 0 555 65.2" style="enable-background:new 0 0 555 65.2;" xml:space="preserve">
<style type="text/css">
	.st0{fill:#FFFFFF;}
</style>
<g id="XMLID_2_">
	<g id="XMLID_692_">
		<path id="XMLID_776_" class="st0" d="M174.3,18.3c-1-0.5-1.8-1.3-2.2-2.2c-0.3-0.6-0.4-1.4-0.4-2.2h4.5c0,0.5,0.1,0.9,0.2,1.1
			c0.3,0.7,1,1.1,2.1,1.1c0.5,0,0.9-0.1,1.3-0.2c0.3-0.2,0.6-0.4,0.7-0.7c0.1-0.2,0.1-0.4,0.1-0.7c0-0.3,0-0.5-0.1-0.7
			c-0.1-0.3-0.3-0.5-0.6-0.7c-0.3-0.2-0.6-0.4-1-0.5c-0.4-0.1-0.9-0.3-1.5-0.4c-0.1,0-0.5-0.1-1.1-0.3c-0.9-0.3-1.7-0.6-2.4-1
			c-0.6-0.4-1.1-1-1.4-1.6C172.1,8.6,172,8,172,7.3c0-0.7,0.1-1.3,0.4-1.9c0.4-0.9,1.1-1.6,2.1-2.1c1-0.5,2.2-0.8,3.7-0.8
			c1.4,0,2.6,0.2,3.6,0.7c1,0.5,1.7,1.2,2.1,2.1c0.1,0.3,0.3,0.7,0.3,1c0.1,0.3,0.1,0.7,0.1,1.2h-4.2c0-0.3,0-0.5,0-0.6
			c0-0.2-0.1-0.4-0.2-0.5c-0.3-0.6-0.9-0.9-1.8-0.9c-0.5,0-0.8,0.1-1.2,0.2c-0.3,0.1-0.5,0.4-0.6,0.6c-0.1,0.2-0.1,0.4-0.1,0.6
			c0,0.2,0,0.4,0.1,0.6c0.1,0.2,0.3,0.4,0.5,0.6c0.3,0.2,0.6,0.3,0.9,0.4c0.4,0.1,0.8,0.2,1.4,0.4c0.6,0.1,0.9,0.2,1.1,0.3
			c1.1,0.3,2.1,0.7,2.8,1.1c0.7,0.4,1.3,1,1.6,1.7c0.3,0.6,0.4,1.2,0.4,2c0,0.8-0.1,1.5-0.4,2.1c-0.4,1-1.2,1.7-2.3,2.2
			c-1.1,0.5-2.4,0.8-4,0.8C176.7,19.1,175.3,18.9,174.3,18.3z"/>
		<path id="XMLID_774_" class="st0" d="M186.5,2.9h4l6.2,9.8V2.9h3.9v15.8h-4.1L190.5,9v9.7h-3.9V2.9z"/>
		<path id="XMLID_772_" class="st0" d="M203,2.9h10.5v3.3H207v2.9h6.4v3.2H207v3.1h6.4v3.3H203V2.9z"/>
		<path id="XMLID_769_" class="st0" d="M225.3,15.7h-6.2l-0.9,3H214l5.2-15.8h6l5.2,15.8h-4.2L225.3,15.7z M224.4,12.7l-2.1-6.8h0
			l-2.1,6.8H224.4z"/>
		<path id="XMLID_767_" class="st0" d="M241.1,18.7l-5.4-7v7h-4V2.9h4v5.7l4.7-5.7h4.8l-6,7.1l6.9,8.7H241.1z"/>
		<path id="XMLID_764_" class="st0" d="M251.1,2.9h6.9c1.3,0,2.3,0.2,3.1,0.6c0.8,0.4,1.4,1,1.8,1.8c0.3,0.7,0.4,1.6,0.4,2.5
			c0,0.9-0.1,1.7-0.4,2.4c-0.4,0.8-1,1.4-1.8,1.9c-0.8,0.4-1.8,0.6-3.1,0.6h-2.8v6.1h-4V2.9z M256.8,9.7c0.6,0,1-0.1,1.4-0.2
			c0.4-0.1,0.6-0.4,0.8-0.7c0.1-0.3,0.2-0.6,0.2-1c0-0.4-0.1-0.7-0.2-1c-0.1-0.3-0.4-0.5-0.7-0.7c-0.4-0.1-0.8-0.2-1.4-0.2h-1.7v3.8
			H256.8z"/>
		<path id="XMLID_762_" class="st0" d="M264.7,2.9h10.5v3.3h-6.4v2.9h6.4v3.2h-6.4v3.1h6.4v3.3h-10.5V2.9z"/>
		<path id="XMLID_760_" class="st0" d="M277,2.9h10.5v3.3H281v2.9h6.4v3.2H281v3.1h6.4v3.3H277V2.9z"/>
		<path id="XMLID_758_" class="st0" d="M298.8,18.7l-5.4-7v7h-4V2.9h4v5.7l4.7-5.7h4.8l-6,7.1l6.9,8.7H298.8z"/>
		<path id="XMLID_754_" class="st0" d="M321.2,14.3c0,0.7-0.1,1.4-0.4,1.9c-0.4,0.8-1,1.4-1.8,1.9c-0.9,0.4-1.9,0.6-3.2,0.6h-7V2.9
			h7.1c1.1,0,2,0.2,2.8,0.6c0.7,0.4,1.3,0.9,1.6,1.6c0.1,0.3,0.2,0.5,0.3,0.8c0.1,0.3,0.1,0.6,0.1,0.9c0,0.3,0,0.6-0.1,0.9
			c-0.1,0.3-0.1,0.5-0.2,0.7c-0.4,0.9-1.1,1.5-2.3,1.8c0.7,0.2,1.3,0.5,1.8,0.8c0.5,0.4,0.8,0.8,1,1.3
			C321,12.9,321.2,13.5,321.2,14.3z M312.8,9.2h1.3c1.1,0,1.8-0.3,2-0.9c0.1-0.1,0.1-0.3,0.1-0.4c0-0.1,0-0.3,0-0.5
			c0-0.2,0-0.3,0-0.5c0-0.1-0.1-0.3-0.1-0.4c-0.3-0.6-1-0.9-2.1-0.9h-1.3V9.2z M316.8,14c0-0.3-0.1-0.6-0.2-1
			c-0.2-0.4-0.4-0.6-0.8-0.8c-0.4-0.2-0.9-0.3-1.5-0.3h-1.4V16h1.4c0.6,0,1.2-0.1,1.6-0.3c0.4-0.2,0.7-0.4,0.8-0.8
			C316.7,14.7,316.8,14.3,316.8,14z"/>
		<path id="XMLID_752_" class="st0" d="M322.9,2.9h10.5v3.3h-6.4v2.9h6.4v3.2h-6.4v3.1h6.4v3.3h-10.5V2.9z"/>
		<path id="XMLID_750_" class="st0" d="M335.2,2.9h4v12.3h4.2v3.5h-8.3V2.9z"/>
		<path id="XMLID_747_" class="st0" d="M347.7,18.2c-1.2-0.6-2.1-1.6-2.7-2.8c-0.3-0.6-0.6-1.3-0.8-2.1c-0.2-0.8-0.3-1.6-0.3-2.5
			c0-1.6,0.3-3,0.8-4.2c0.6-1.3,1.5-2.3,2.7-3c1.2-0.7,2.7-1.1,4.4-1.1c1.7,0,3.2,0.4,4.4,1.1c1.2,0.7,2.1,1.7,2.7,3
			c0.5,1.3,0.8,2.7,0.8,4.2c0,1.6-0.3,3-0.8,4.3c-0.6,1.3-1.5,2.3-2.7,3c-1.2,0.7-2.7,1.1-4.4,1.1C350.2,19.1,348.8,18.8,347.7,18.2
			z M353.8,15.1c0.5-0.3,0.9-0.8,1.2-1.4c0.2-0.4,0.3-0.8,0.4-1.2c0.1-0.4,0.1-1,0.1-1.6s0-1.2-0.1-1.6c-0.1-0.4-0.2-0.9-0.3-1.3
			c-0.6-1.3-1.6-1.9-3.2-1.9c-1.5,0-2.6,0.6-3.2,1.9c-0.2,0.4-0.3,0.8-0.3,1.2c-0.1,0.4-0.1,1-0.1,1.6c0,0.6,0,1.2,0.1,1.6
			c0.1,0.4,0.2,0.9,0.4,1.2c0.6,1.3,1.6,1.9,3.1,1.9C352.7,15.6,353.3,15.4,353.8,15.1z"/>
		<path id="XMLID_745_" class="st0" d="M382.2,2.9l-4.4,15.8h-4.2l-2.5-10.4l-2.5,10.4h-4.1L360,2.9h4l2.5,10l2.4-10h4.2l2.4,10
			l2.5-10H382.2z"/>
		<path id="XMLID_743_" class="st0" d="M2,37.1h14.9v5.6H8.8v4.8h8.1v5.4H8.8v10.5H2V37.1z"/>
		<path id="XMLID_740_" class="st0" d="M25,62.5c-2-1.1-3.4-2.6-4.4-4.6c-0.6-1-1-2.2-1.3-3.5c-0.3-1.3-0.4-2.7-0.4-4.2
			c0-2.6,0.4-4.9,1.3-7c1-2.2,2.5-3.9,4.5-5.1c2-1.2,4.5-1.8,7.3-1.8c2.9,0,5.3,0.6,7.3,1.8c2,1.2,3.5,2.9,4.5,5
			c0.9,2.1,1.3,4.5,1.3,7.1c0,2.7-0.5,5.1-1.4,7.1c-1,2.2-2.5,3.8-4.5,5c-2,1.2-4.4,1.8-7.3,1.8C29.3,64.1,27,63.6,25,62.5z
			 M35.3,57.4c0.9-0.5,1.5-1.3,2-2.3c0.3-0.6,0.5-1.3,0.6-2.1c0.1-0.7,0.2-1.6,0.2-2.7c0-1-0.1-1.9-0.2-2.7
			c-0.1-0.7-0.3-1.4-0.6-2.1c-1-2.1-2.7-3.1-5.3-3.1c-2.6,0-4.3,1-5.3,3.1c-0.3,0.6-0.5,1.3-0.6,2c-0.1,0.7-0.2,1.6-0.2,2.7
			c0,1,0.1,1.9,0.2,2.7c0.1,0.7,0.3,1.4,0.6,2.1c0.9,2.1,2.7,3.2,5.2,3.2C33.4,58.2,34.5,57.9,35.3,57.4z"/>
		<path id="XMLID_738_" class="st0" d="M48.1,37.1h6.7v20.5h7v5.8H48.1V37.1z"/>
		<path id="XMLID_736_" class="st0" d="M64,37.1h6.7v20.5h7v5.8H64V37.1z"/>
		<path id="XMLID_733_" class="st0" d="M84.8,62.5c-2-1.1-3.4-2.6-4.4-4.6c-0.6-1-1-2.2-1.3-3.5c-0.3-1.3-0.4-2.7-0.4-4.2
			c0-2.6,0.4-4.9,1.3-7c1-2.2,2.5-3.9,4.5-5.1c2-1.2,4.5-1.8,7.3-1.8c2.9,0,5.3,0.6,7.3,1.8c2,1.2,3.5,2.9,4.5,5
			c0.9,2.1,1.3,4.5,1.3,7.1c0,2.7-0.5,5.1-1.4,7.1c-1,2.2-2.5,3.8-4.5,5c-2,1.2-4.4,1.8-7.3,1.8C89.1,64.1,86.8,63.6,84.8,62.5z
			 M95.1,57.4c0.9-0.5,1.5-1.3,2-2.3c0.3-0.6,0.5-1.3,0.6-2.1c0.1-0.7,0.2-1.6,0.2-2.7c0-1-0.1-1.9-0.2-2.7
			c-0.1-0.7-0.3-1.4-0.6-2.1c-1-2.1-2.7-3.1-5.3-3.1c-2.6,0-4.3,1-5.3,3.1c-0.3,0.6-0.5,1.3-0.6,2c-0.1,0.7-0.2,1.6-0.2,2.7
			c0,1,0.1,1.9,0.2,2.7c0.1,0.7,0.3,1.4,0.6,2.1c0.9,2.1,2.7,3.2,5.2,3.2C93.2,58.2,94.3,57.9,95.1,57.4z"/>
		<path id="XMLID_731_" class="st0" d="M142.3,37.1l-7.3,26.3h-7l-4.2-17.3l-4.2,17.3h-6.9l-7.4-26.3h6.7l4.2,16.7l4-16.7h7.1
			l4,16.7l4.2-16.7H142.3z"/>
		<path id="XMLID_729_" class="st0" d="M155.2,63.1c-1.7-0.7-2.9-1.8-3.7-3.3c-0.8-1.5-1.2-3.4-1.2-5.7V37.1h6.7v16.5
			c0,1.6,0.4,2.7,1.1,3.5c0.7,0.8,1.9,1.2,3.4,1.2c1.6,0,2.7-0.4,3.5-1.2c0.7-0.8,1.1-2,1.1-3.5V37.1h6.7V54c0,2.3-0.4,4.2-1.2,5.7
			c-0.8,1.5-2,2.6-3.7,3.3c-1.7,0.7-3.8,1.1-6.4,1.1C159,64.1,156.8,63.8,155.2,63.1z"/>
		<path id="XMLID_726_" class="st0" d="M176.2,37.1h11.5c2.1,0,3.8,0.3,5.2,1c1.4,0.6,2.3,1.6,2.9,3c0.5,1.2,0.7,2.6,0.7,4.2
			c0,1.4-0.2,2.8-0.7,4c-0.6,1.4-1.6,2.4-3,3.1c-1.4,0.7-3.1,1-5.2,1h-4.7v10.1h-6.7V37.1z M185.7,48.5c0.9,0,1.7-0.1,2.3-0.4
			c0.6-0.2,1-0.6,1.3-1.1c0.2-0.5,0.3-1.1,0.3-1.7c0-0.6-0.1-1.2-0.3-1.7c-0.2-0.5-0.7-0.9-1.2-1.1c-0.6-0.2-1.4-0.3-2.3-0.3h-2.8
			v6.3H185.7z"/>
		<path id="XMLID_723_" class="st0" d="M213.3,52.9h-1v10.5h-6.7V37.1h11.7c4.2,0,6.9,1.4,8.1,4.1c0.5,1.1,0.7,2.4,0.7,3.8
			c0,0.7-0.1,1.4-0.2,2.1c-0.1,0.7-0.3,1.3-0.5,1.8c-0.8,2.1-2.5,3.4-4.9,3.8l7.6,10.7h-7.6L213.3,52.9z M212.3,48.5h2.9
			c0.9,0,1.7-0.1,2.3-0.4c0.6-0.2,1-0.6,1.3-1.2c0.2-0.4,0.3-1,0.3-1.7c0-0.6-0.1-1.2-0.3-1.6c-0.2-0.5-0.7-0.9-1.3-1.1
			c-0.6-0.2-1.4-0.3-2.3-0.3h-2.9V48.5z"/>
		<path id="XMLID_721_" class="st0" d="M229.5,37.1H247v5.5h-10.7v4.8h10.6v5.3h-10.6v5.2H247v5.5h-17.4V37.1z"/>
		<path id="XMLID_719_" class="st0" d="M250,37.1h6.7v20.5h7v5.8H250V37.1z"/>
		<path id="XMLID_717_" class="st0" d="M265.9,37.1h17.4v5.5h-10.7v4.8h10.6v5.3h-10.6v5.2h10.7v5.5h-17.4V37.1z"/>
		<path id="XMLID_714_" class="st0" d="M303.2,58.5h-10.3l-1.5,5h-7l8.6-26.3h10.1l8.6,26.3h-7L303.2,58.5z M301.6,53.4L298.1,42
			H298l-3.5,11.4H301.6z"/>
		<path id="XMLID_712_" class="st0" d="M316.1,62.8c-1.7-0.9-3-2.1-3.7-3.7c-0.5-1-0.7-2.3-0.7-3.7h7.4c0,0.8,0.1,1.5,0.3,1.9
			c0.5,1.2,1.7,1.8,3.5,1.8c0.8,0,1.5-0.1,2.1-0.4c0.6-0.3,1-0.7,1.2-1.2c0.1-0.3,0.2-0.7,0.2-1.2c0-0.4-0.1-0.8-0.2-1.2
			c-0.2-0.5-0.5-0.9-1-1.2c-0.5-0.3-1.1-0.6-1.7-0.8c-0.6-0.2-1.5-0.5-2.5-0.7c-0.2,0-0.8-0.2-1.8-0.5c-1.5-0.4-2.9-1-3.9-1.7
			c-1.1-0.7-1.9-1.6-2.4-2.7c-0.4-0.9-0.6-1.9-0.6-3c0-1.1,0.2-2.2,0.7-3.2c0.7-1.5,1.9-2.7,3.6-3.6c1.7-0.9,3.7-1.3,6.1-1.3
			c2.3,0,4.3,0.4,5.9,1.2c1.6,0.8,2.8,2,3.5,3.5c0.2,0.6,0.4,1.1,0.5,1.7s0.2,1.2,0.2,1.9h-7c0-0.4,0-0.8-0.1-1.1
			c-0.1-0.3-0.1-0.6-0.3-0.9c-0.5-1-1.5-1.6-3.1-1.6c-0.8,0-1.4,0.1-1.9,0.4c-0.5,0.2-0.9,0.6-1.1,1c-0.1,0.3-0.2,0.6-0.2,1
			c0,0.4,0.1,0.7,0.2,1c0.2,0.4,0.5,0.7,0.9,1c0.4,0.3,1,0.5,1.5,0.7c0.6,0.2,1.4,0.4,2.3,0.7c0.9,0.2,1.5,0.4,1.8,0.5
			c1.9,0.5,3.5,1.1,4.7,1.8c1.2,0.7,2.1,1.7,2.6,2.9c0.4,1,0.6,2.1,0.6,3.3c0,1.3-0.2,2.5-0.7,3.6c-0.7,1.6-2,2.9-3.9,3.7
			c-1.8,0.9-4,1.3-6.7,1.3C320.1,64.1,317.9,63.7,316.1,62.8z"/>
		<path id="XMLID_710_" class="st0" d="M336.5,37.1H354v5.5h-10.7v4.8h10.6v5.3h-10.6v5.2H354v5.5h-17.4V37.1z"/>
		<path id="XMLID_708_" class="st0" d="M363.5,49.9h11.6V55h-11.6V49.9z"/>
		<path id="XMLID_706_" class="st0" d="M389.3,42.7h-5.7v-5.6h18v5.6h-5.6v20.8h-6.7V42.7z"/>
		<path id="XMLID_704_" class="st0" d="M419.6,63.4l-9.1-11.7v11.7h-6.7V37.1h6.7v9.6l7.9-9.6h8l-10,11.8l11.6,14.5H419.6z"/>
		<path id="XMLID_702_" class="st0" d="M429.4,37.1h7.8l6.9,15.8l6.9-15.8h7.8v26.3h-6.4v-16l-6.9,16h-2.9l-6.9-16v16h-6.4V37.1z"/>
		<path id="XMLID_700_" class="st0" d="M469.2,52.1l-8.6-15h7.3l4.6,8.6l4.6-8.6h7.3l-8.5,15v11.3h-6.7V52.1z"/>
		<path id="XMLID_698_" class="st0" d="M486.2,37.1h6.7v10.3h9.6V37.1h6.7v26.3h-6.7V53h-9.6v10.5h-6.7V37.1z"/>
		<path id="XMLID_695_" class="st0" d="M520.8,52.9h-1v10.5H513V37.1h11.7c4.2,0,6.9,1.4,8.1,4.1c0.5,1.1,0.7,2.4,0.7,3.8
			c0,0.7-0.1,1.4-0.2,2.1c-0.1,0.7-0.3,1.3-0.5,1.8c-0.8,2.1-2.5,3.4-4.9,3.8l7.6,10.7h-7.6L520.8,52.9z M519.8,48.5h2.9
			c0.9,0,1.7-0.1,2.3-0.4c0.6-0.2,1-0.6,1.3-1.2c0.2-0.4,0.3-1,0.3-1.7c0-0.6-0.1-1.2-0.3-1.6c-0.2-0.5-0.7-0.9-1.3-1.1
			s-1.4-0.3-2.3-0.3h-2.9V48.5z"/>
		<path id="XMLID_693_" class="st0" d="M540.5,42.7h-5.7v-5.6h18v5.6h-5.6v20.8h-6.7V42.7z"/>
	</g>
</g>
</svg>
