<svg width="551" height="63" viewBox="0 0 551 63" fill="none" xmlns="http://www.w3.org/2000/svg">
<path d="M211.6 16.3C210.6 15.8 209.8 15 209.4 14.1C209.1 13.5 209 12.7 209 11.9H213.5C213.5 12.4 213.6 12.8 213.7 13C214 13.7 214.7 14.1 215.8 14.1C216.3 14.1 216.7 14 217.1 13.9C217.4 13.7 217.7 13.5 217.8 13.2C217.9 13 217.9 12.8 217.9 12.5C217.9 12.2 217.9 12 217.8 11.8C217.7 11.5 217.5 11.3 217.2 11.1C216.9 10.9 216.6 10.7 216.2 10.6C215.8 10.5 215.3 10.3 214.7 10.2C214.6 10.2 214.2 10.1 213.6 9.9C212.7 9.6 211.9 9.3 211.2 8.9C210.6 8.5 210.1 7.9 209.8 7.3C209.4 6.6 209.3 6 209.3 5.3C209.3 4.6 209.4 4 209.7 3.4C210.1 2.5 210.8 1.8 211.8 1.3C212.8 0.8 214 0.5 215.5 0.5C216.9 0.5 218.1 0.7 219.1 1.2C220.1 1.7 220.8 2.4 221.2 3.3C221.3 3.6 221.5 4 221.5 4.3C221.6 4.6 221.6 5 221.6 5.5H217.4C217.4 5.2 217.4 5 217.4 4.9C217.4 4.7 217.3 4.5 217.2 4.4C216.9 3.8 216.3 3.5 215.4 3.5C214.9 3.5 214.6 3.6 214.2 3.7C213.9 3.8 213.7 4.1 213.6 4.3C213.5 4.5 213.5 4.7 213.5 4.9C213.5 5.1 213.5 5.3 213.6 5.5C213.7 5.7 213.9 5.9 214.1 6.1C214.4 6.3 214.7 6.4 215 6.5C215.4 6.6 215.8 6.7 216.4 6.9C217 7 217.3 7.1 217.5 7.2C218.6 7.5 219.6 7.9 220.3 8.3C221 8.7 221.6 9.3 221.9 10C222.2 10.6 222.3 11.2 222.3 12C222.3 12.8 222.2 13.5 221.9 14.1C221.5 15.1 220.7 15.8 219.6 16.3C218.5 16.8 217.2 17.1 215.6 17.1C214 17.1 212.6 16.9 211.6 16.3Z" fill="white"/>
<path d="M223.8 0.900024H227.8L234 10.7V0.900024H237.9V16.7H233.8L227.8 7.00002V16.7H223.9V0.900024H223.8Z" fill="white"/>
<path d="M240.3 0.900024H250.8V4.20002H244.3V7.10002H250.7V10.3H244.3V13.4H250.7V16.7H240.3V0.900024Z" fill="white"/>
<path d="M262.6 13.7H256.4L255.5 16.7H251.3L256.5 0.900024H262.5L267.7 16.7H263.5L262.6 13.7ZM261.7 10.7L259.6 3.90002L257.5 10.7H261.7Z" fill="white"/>
<path d="M278.4 16.7L273 9.70002V16.7H269V0.900024H273V6.60002L277.7 0.900024H282.5L276.5 8.00002L283.4 16.7H278.4Z" fill="white"/>
<path d="M288.4 0.900024H295.3C296.6 0.900024 297.6 1.10002 298.4 1.50002C299.2 1.90002 299.8 2.50002 300.2 3.30002C300.5 4.00002 300.6 4.90002 300.6 5.80002C300.6 6.70002 300.5 7.50002 300.2 8.20002C299.8 9.00002 299.2 9.60003 298.4 10.1C297.6 10.5 296.6 10.7 295.3 10.7H292.5V16.8H288.5V0.900024H288.4ZM294.1 7.70002C294.7 7.70002 295.1 7.60002 295.5 7.50002C295.9 7.40002 296.1 7.10002 296.3 6.80002C296.4 6.50002 296.5 6.20002 296.5 5.80002C296.5 5.40002 296.4 5.10002 296.3 4.80002C296.2 4.50002 295.9 4.30002 295.6 4.10002C295.2 4.00002 294.8 3.90002 294.2 3.90002H292.5V7.70002H294.1Z" fill="white"/>
<path d="M302 0.900024H312.5V4.20002H306.1V7.10002H312.5V10.3H306.1V13.4H312.5V16.7H302V0.900024Z" fill="white"/>
<path d="M314.3 0.900024H324.8V4.20002H318.3V7.10002H324.7V10.3H318.3V13.4H324.7V16.7H314.3V0.900024Z" fill="white"/>
<path d="M336.1 16.7L330.7 9.70002V16.7H326.7V0.900024H330.7V6.60002L335.4 0.900024H340.2L334.2 8.00002L341.1 16.7H336.1Z" fill="white"/>
<path d="M0 35.1H14.9V40.7H6.8V45.5H14.9V50.9H6.8V61.4H0V35.1Z" fill="white"/>
<path d="M23 60.5C21 59.4 19.6 57.9001 18.6 55.9001C18 54.9001 17.6 53.7001 17.3 52.4001C17 51.1001 16.9 49.7001 16.9 48.2001C16.9 45.6001 17.3 43.3001 18.2 41.2001C19.2 39.0001 20.7 37.3 22.7 36.1C24.7 34.9 27.2 34.3 30 34.3C32.9 34.3 35.3 34.9 37.3 36.1C39.3 37.3 40.8 39 41.8 41.1C42.7 43.2 43.1 45.6001 43.1 48.2001C43.1 50.9001 42.6 53.3 41.7 55.3C40.7 57.5 39.2 59.1 37.2 60.3C35.2 61.5 32.8 62.1 29.9 62.1C27.3 62.1 25 61.6 23 60.5ZM33.3 55.4001C34.2 54.9001 34.8 54.1 35.3 53.1C35.6 52.5 35.8 51.8 35.9 51C36 50.3 36.1 49.4 36.1 48.3C36.1 47.3 36 46.4 35.9 45.6C35.8 44.9 35.6 44.2 35.3 43.5C34.3 41.4 32.6 40.4001 30 40.4001C27.4 40.4001 25.7 41.4 24.7 43.5C24.4 44.1 24.2 44.8 24.1 45.5C24 46.2 23.9 47.1001 23.9 48.2001C23.9 49.2001 24 50.1001 24.1 50.9001C24.2 51.6001 24.4 52.3 24.7 53C25.6 55.1 27.4 56.2001 29.9 56.2001C31.4 56.2001 32.5 55.9001 33.3 55.4001Z" fill="white"/>
<path d="M46.1 35.1H52.8V55.6H59.8V61.4H46.1V35.1Z" fill="white"/>
<path d="M62 35.1H68.7V55.6H75.7V61.4H62V35.1Z" fill="white"/>
<path d="M82.8 60.5C80.8 59.4 79.4 57.9001 78.4 55.9001C77.8 54.9001 77.4 53.7001 77.1 52.4001C76.8 51.1001 76.7 49.7001 76.7 48.2001C76.7 45.6001 77.1 43.3001 78 41.2001C79 39.0001 80.5 37.3 82.5 36.1C84.5 34.9 87 34.3 89.8 34.3C92.7 34.3 95.1 34.9 97.1 36.1C99.1 37.3 100.6 39 101.6 41.1C102.5 43.2 102.9 45.6001 102.9 48.2001C102.9 50.9001 102.4 53.3 101.5 55.3C100.5 57.5 99 59.1 97 60.3C95 61.5 92.6 62.1 89.7 62.1C87.1 62.1 84.8 61.6 82.8 60.5ZM93.1 55.4001C94 54.9001 94.6 54.1 95.1 53.1C95.4 52.5 95.6 51.8 95.7 51C95.8 50.3 95.9 49.4 95.9 48.3C95.9 47.3 95.8 46.4 95.7 45.6C95.6 44.9 95.4 44.2 95.1 43.5C94.1 41.4 92.4 40.4001 89.8 40.4001C87.2 40.4001 85.5 41.4 84.5 43.5C84.2 44.1 84 44.8 83.9 45.5C83.8 46.2 83.7 47.1001 83.7 48.2001C83.7 49.2001 83.8 50.1001 83.9 50.9001C84 51.6001 84.2 52.3 84.5 53C85.4 55.1 87.2 56.2001 89.7 56.2001C91.2 56.2001 92.3 55.9001 93.1 55.4001Z" fill="white"/>
<path d="M140.3 35.1L133 61.4H126L121.8 44.1L117.6 61.4H110.7L103.3 35.1H110L114.2 51.8L118.2 35.1H125.3L129.3 51.8L133.5 35.1H140.3V35.1Z" fill="white"/>
<path d="M153.2 61.1C151.5 60.4 150.3 59.3 149.5 57.8C148.7 56.3 148.3 54.4 148.3 52.1V35.1H155V51.6C155 53.2 155.4 54.3 156.1 55.1C156.8 55.9 158 56.3 159.5 56.3C161.1 56.3 162.2 55.9 163 55.1C163.7 54.3 164.1 53.1 164.1 51.6V35.1H170.8V52C170.8 54.3 170.4 56.2 169.6 57.7C168.8 59.2 167.6 60.3 165.9 61C164.2 61.7 162.1 62.1 159.5 62.1C157 62.1 154.8 61.8 153.2 61.1Z" fill="white"/>
<path d="M174.2 35.1H185.7C187.8 35.1 189.5 35.4 190.9 36.1C192.3 36.7 193.2 37.7 193.8 39.1C194.3 40.3 194.5 41.7 194.5 43.3C194.5 44.7 194.3 46.1 193.8 47.3C193.2 48.7 192.2 49.7 190.8 50.4C189.4 51.1 187.7 51.4 185.6 51.4H180.9V61.5H174.2V35.1V35.1ZM183.7 46.5C184.6 46.5 185.4 46.4 186 46.1C186.6 45.9 187 45.5 187.3 45C187.5 44.5 187.6 43.9 187.6 43.3C187.6 42.7 187.5 42.1 187.3 41.6C187.1 41.1 186.6 40.7 186.1 40.5C185.5 40.3 184.7 40.2 183.8 40.2H181V46.5H183.7V46.5Z" fill="white"/>
<path d="M211.3 50.9H210.3V61.4H203.6V35.1H215.3C219.5 35.1 222.2 36.5 223.4 39.2C223.9 40.3 224.1 41.6 224.1 43C224.1 43.7 224 44.4 223.9 45.1C223.8 45.8 223.6 46.4 223.4 46.9C222.6 49 220.9 50.3 218.5 50.7L226.1 61.4H218.5L211.3 50.9ZM210.3 46.5H213.2C214.1 46.5 214.9 46.4 215.5 46.1C216.1 45.9 216.5 45.5 216.8 44.9C217 44.5 217.1 43.9 217.1 43.2C217.1 42.6 217 42 216.8 41.6C216.6 41.1 216.1 40.7 215.5 40.5C214.9 40.3 214.1 40.2 213.2 40.2H210.3V46.5Z" fill="white"/>
<path d="M227.5 35.1H245V40.6H234.3V45.4H244.9V50.7H234.3V55.9H245V61.4H227.6V35.1H227.5Z" fill="white"/>
<path d="M248 35.1H254.7V55.6H261.7V61.4H248V35.1Z" fill="white"/>
<path d="M263.9 35.1H281.3V40.6H270.6V45.4H281.2V50.7H270.6V55.9H281.3V61.4H263.9V35.1Z" fill="white"/>
<path d="M301.2 56.5H290.9L289.4 61.5H282.4L291 35.2H301.1L309.7 61.5H302.7L301.2 56.5ZM299.6 51.4L296.1 40H296L292.5 51.4H299.6Z" fill="white"/>
<path d="M314.1 60.8C312.4 59.9 311.1 58.7 310.4 57.1C309.9 56.1 309.7 54.8 309.7 53.4H317.1C317.1 54.2 317.2 54.9 317.4 55.3C317.9 56.5 319.1 57.1 320.9 57.1C321.7 57.1 322.4 57 323 56.7C323.6 56.4 324 56 324.2 55.5C324.3 55.2 324.4 54.8 324.4 54.3C324.4 53.9 324.3 53.5 324.2 53.1C324 52.6 323.7 52.2 323.2 51.9C322.7 51.6 322.1 51.3 321.5 51.1C320.9 50.9 320 50.6 319 50.4C318.8 50.4 318.2 50.2 317.2 49.9C315.7 49.5 314.3 48.9 313.3 48.2C312.2 47.5 311.4 46.6 310.9 45.5C310.5 44.6 310.3 43.6 310.3 42.5C310.3 41.4 310.5 40.3 311 39.3C311.7 37.8 312.9 36.6 314.6 35.7C316.3 34.8 318.3 34.4 320.7 34.4C323 34.4 325 34.8 326.6 35.6C328.2 36.4 329.4 37.6 330.1 39.1C330.3 39.7 330.5 40.2 330.6 40.8C330.7 41.4 330.8 42 330.8 42.7H323.8C323.8 42.3 323.8 41.9 323.7 41.6C323.6 41.3 323.6 41 323.4 40.7C322.9 39.7 321.9 39.1 320.3 39.1C319.5 39.1 318.9 39.2 318.4 39.5C317.9 39.7 317.5 40.1 317.3 40.5C317.2 40.8 317.1 41.1 317.1 41.5C317.1 41.9 317.2 42.2 317.3 42.5C317.5 42.9 317.8 43.2 318.2 43.5C318.6 43.8 319.2 44 319.7 44.2C320.3 44.4 321.1 44.6 322 44.9C322.9 45.1 323.5 45.3 323.8 45.4C325.7 45.9 327.3 46.5 328.5 47.2C329.7 47.9 330.6 48.9 331.1 50.1C331.5 51.1 331.7 52.2 331.7 53.4C331.7 54.7 331.5 55.9 331 57C330.3 58.6 329 59.9 327.1 60.7C325.3 61.6 323.1 62 320.4 62C318.1 62.1 315.9 61.7 314.1 60.8Z" fill="white"/>
<path d="M334.5 35.1H352V40.6H341.3V45.4H351.9V50.7H341.3V55.9H352V61.4H334.6V35.1H334.5Z" fill="white"/>
<path d="M361.5 47.9H373.1V53H361.5V47.9Z" fill="white"/>
<path d="M387.3 40.7H381.6V35.1H399.6V40.7H394V61.5H387.3V40.7Z" fill="white"/>
<path d="M417.6 61.4L408.5 49.7V61.4H401.8V35.1H408.5V44.7L416.4 35.1H424.4L414.4 46.9L426 61.4H417.6V61.4Z" fill="white"/>
<path d="M427.4 35.1H435.2L442.1 50.9L449 35.1H456.8V61.4H450.4V45.4L443.5 61.4H440.6L433.7 45.4V61.4H427.3V35.1H427.4Z" fill="white"/>
<path d="M467.2 50.1L458.6 35.1H465.9L470.5 43.7L475.1 35.1H482.4L473.9 50.1V61.4H467.2V50.1V50.1Z" fill="white"/>
<path d="M484.2 35.1H490.9V45.4H500.5V35.1H507.2V61.4H500.5V51H490.9V61.5H484.2V35.1Z" fill="white"/>
<path d="M518.8 50.9H517.8V61.4H511V35.1H522.7C526.9 35.1 529.6 36.5 530.8 39.2C531.3 40.3 531.5 41.6 531.5 43C531.5 43.7 531.4 44.4 531.3 45.1C531.2 45.8 531 46.4 530.8 46.9C530 49 528.3 50.3 525.9 50.7L533.5 61.4H525.9L518.8 50.9ZM517.8 46.5H520.7C521.6 46.5 522.4 46.4 523 46.1C523.6 45.9 524 45.5 524.3 44.9C524.5 44.5 524.6 43.9 524.6 43.2C524.6 42.6 524.5 42 524.3 41.6C524.1 41.1 523.6 40.7 523 40.5C522.4 40.3 521.6 40.2 520.7 40.2H517.8V46.5Z" fill="white"/>
<path d="M538.5 40.7H532.8V35.1H550.8V40.7H545.2V61.5H538.5V40.7V40.7Z" fill="white"/>
</svg>
