<?xml version="1.0" encoding="utf-8"?>
<!-- Generator: Adobe Illustrator 19.0.0, SVG Export Plug-In . SVG Version: 6.00 Build 0)  -->
<svg version="1.1" id="Layer_1" xmlns="http://www.w3.org/2000/svg" xmlns:xlink="http://www.w3.org/1999/xlink" x="0px" y="0px"
	 viewBox="0 0 883 199.3" style="enable-background:new 0 0 883 199.3;" xml:space="preserve">
<style type="text/css">
	.st0{fill:#FFFFFF;}
</style>
<g id="XMLID_223_">
	<path id="XMLID_249_" class="st0" d="M867.8,6.1c4.7,0,8.5,3.8,8.5,8.5v170.1c0,4.7-3.8,8.5-8.5,8.5H15.2c-4.7,0-8.5-3.8-8.5-8.5
		V14.6c0-4.7,3.8-8.5,8.5-8.5H867.8 M867.8,0.4H15.2C7.3,0.4,1,6.8,1,14.6v170.1c0,7.8,6.3,14.2,14.2,14.2h852.6
		c7.8,0,14.2-6.3,14.2-14.2V14.6C882,6.8,875.6,0.4,867.8,0.4L867.8,0.4z"/>
	<g id="XMLID_224_">
		<path id="XMLID_248_" class="st0" d="M389,63.7c2.4,0,12.6-0.8,25.2,8.7c0.6,0.4,0.7,1.2,0.3,1.8l-6,8.4c-0.4,0.6-1.3,0.7-1.9,0.3
			c-1.1-0.9-3-2.2-5.2-3.3c-3.6-1.8-8.3-3.4-12.4-3.4c-4.1,0-10.6,1.3-10.6,7.8c0,5.2,4.6,7.1,18.7,10.6c9.2,2.4,19.9,6.8,19.9,20.8
			c0,12.9-10.7,21.1-25.6,21.1c-8.9,0-21.2-3.4-28.9-11.2c-0.5-0.5-0.5-1.2,0-1.8l6.8-8c0.5-0.6,1.3-0.6,1.9-0.1
			c2.6,2.4,10.1,8.5,20.3,8.5c12.2,0,11.7-7.3,11.7-8.4c0-2.3-1.7-5.6-7.7-7.3s-21.1-4.5-26.8-11.1c-3.5-4.1-4-8.7-4-12.1
			C364.6,77.2,369.6,63.7,389,63.7z"/>
		<path id="XMLID_245_" class="st0" d="M451.9,80.5c-10.9,0-16.7,8-16.7,8V83c0-0.7-0.6-1.3-1.3-1.3h-11.2c-0.7,0-1.3,0.6-1.3,1.3
			v67c0,0.7,0.6,1.3,1.3,1.3h11.2c0.7,0,1.3-0.6,1.3-1.3v-20.9c0,0,5.4,7.3,17.3,7.3c9.4,0,24.5-7.5,24.5-27.7
			C477,88.5,462.8,80.5,451.9,80.5z M449.1,124.5c-7.6,0-14-6.6-14-16c0-5.8,3.6-15.8,13.9-15.8s14.2,8.3,14.2,15.8
			C463.1,116,458.9,124.5,449.1,124.5z"/>
		<path id="XMLID_242_" class="st0" d="M509.3,80.5c-17.6,0-28.5,14.4-28.5,28.1c0,14.9,11.6,28,28.6,28c17,0,28.6-13.4,28.6-28
			C537.9,94.1,526.8,80.5,509.3,80.5z M509.4,124.5c-7.2,0-15-6-15-16s7.1-15.9,15-15.9c6.1,0,14.8,5,14.8,15.9
			S516.5,124.5,509.4,124.5z"/>
		<path id="XMLID_241_" class="st0" d="M573.1,92.4v-9.5c0-0.7-0.6-1.3-1.3-1.3H559V68.7c0-0.7-0.6-1.3-1.3-1.3h-11
			c-0.7,0-1.3,0.6-1.3,1.3v12.9h-5.4c-0.7,0-1.3,0.6-1.3,1.3v9.5c0,0.7,0.6,1.3,1.3,1.3h5.4c0,0,0,20.9,0,26.9s2.8,15.6,14.8,15.6
			c5.5,0,10.3-1.9,12.1-2.8c0.5-0.2,0.8-0.7,0.8-1.2V123c0-0.8-0.9-1.3-1.6-0.9c-1.3,0.9-3.3,1.8-6.3,1.8c-5.8,0-6.1-3.9-6.1-6.7
			s0-23.5,0-23.5h12.7C572.5,93.7,573.1,93.1,573.1,92.4z"/>
		<circle id="XMLID_240_" class="st0" cx="585.5" cy="66.6" r="8.5"/>
		<path id="XMLID_239_" class="st0" d="M591,135.3h-11c-0.7,0-1.3-0.6-1.3-1.3V82.9c0-0.7,0.6-1.3,1.3-1.3h11c0.7,0,1.3,0.6,1.3,1.3
			V134C592.3,134.7,591.7,135.3,591,135.3z"/>
		<path id="XMLID_238_" class="st0" d="M604.4,93.7h-5.3c-0.7,0-1.3-0.6-1.3-1.3v-9.5c0-0.7,0.6-1.3,1.3-1.3h5.3c0,0,0-1.2,0-3.5
			s0.4-16.8,16.6-16.8c8.1,0,10.7,1.8,10.7,1.8s0,8.8,0,9.8s-0.3,1.8-1.4,1.4s-4.1-1.2-6.6-1.2c-2.5,0-5.9,1.4-5.9,5.8
			c0,1.6,0,2.7,0,2.7h19.9c0.5,0,1,0.3,1.2,0.8l13.9,36.1l12.5-35.9c0.2-0.5,0.7-0.9,1.2-0.9h12.2c0.6,0,1,0.6,0.8,1.1
			c-2.9,7.4-19.2,49.6-21.3,54.9c-2.3,5.9-6.2,13.9-17.4,13.9c-6.5,0-10.7-2.2-12.4-3.3c-0.5-0.4-0.7-1.1-0.5-1.6l4-8.6
			c0.2-0.4,0.6-0.5,0.9-0.3c1.1,0.7,3.7,2.1,6.8,2.1c4.5,0,6.4-5.3,6.4-5.3l-17.1-40.8h-11.2v40.4c0,0.7-0.6,1.3-1.3,1.3h-11
			c-0.7,0-1.3-0.6-1.3-1.3L604.4,93.7z"/>
		<g id="XMLID_234_">
			<path id="XMLID_235_" class="st0" d="M686.5,85.3h4.1c1.1,0,2,0.3,2.6,0.9c0.5,0.5,0.8,1.2,0.8,2v0c0,1.4-0.8,2.3-1.9,2.8
				l2.2,3.2h-2.3l-1.9-2.9h0h-1.5v2.9h-2V85.3z M690.5,89.6c1,0,1.5-0.5,1.5-1.3v0c0-0.8-0.6-1.3-1.5-1.3h-1.9v2.6H690.5z"/>
		</g>
		<g id="XMLID_230_">
			<path id="XMLID_231_" class="st0" d="M690.1,98.4c-4.6,0-8.4-3.8-8.4-8.4s3.8-8.4,8.4-8.4c4.6,0,8.4,3.8,8.4,8.4
				S694.7,98.4,690.1,98.4z M690.1,82.5c-4.1,0-7.5,3.4-7.5,7.5c0,4.1,3.4,7.5,7.5,7.5s7.5-3.4,7.5-7.5
				C697.6,85.8,694.2,82.5,690.1,82.5z"/>
		</g>
		<path id="XMLID_225_" class="st0" d="M261.5,22.6c-42.6,0-77.1,34.5-77.1,77.1s34.5,77.1,77.1,77.1s77.1-34.5,77.1-77.1
			S304.1,22.6,261.5,22.6z M296.8,133.9c-0.9,1.6-2.6,2.5-4.3,2.5c-0.9,0-1.8-0.2-2.6-0.7c-30.3-18.3-66.3-7.7-66.7-7.6
			c-2.7,0.8-5.5-0.7-6.3-3.4c-0.8-2.7,0.7-5.5,3.4-6.3c1.6-0.5,40.6-12,74.9,8.6C297.5,128.4,298.3,131.5,296.8,133.9z M306.4,112.5
			c-1.1,1.9-3.1,3-5.2,3c-1,0-2-0.3-3-0.8c-38.1-21.9-76.5-9.2-76.9-9c-3.1,1.1-6.5-0.6-7.6-3.7c-1.1-3.1,0.6-6.5,3.7-7.6
			c1.8-0.6,44-14.6,86.8,10C307.1,106,308,109.7,306.4,112.5z M310.7,92c-1.2,0-2.3-0.3-3.4-0.8c-43.9-23.1-89.1-9.3-89.5-9.1
			c-3.9,1.2-8-0.9-9.2-4.8c-1.2-3.9,0.9-8,4.8-9.2c2.1-0.7,51.5-15.8,100.8,10.1c3.6,1.9,5,6.3,3.1,9.9
			C315.9,90.5,313.3,92,310.7,92z"/>
	</g>
</g>
</svg>
