<?xml version="1.0" encoding="utf-8"?>
<!-- Generator: Adobe Illustrator 19.0.0, SVG Export Plug-In . SVG Version: 6.00 Build 0)  -->
<svg version="1.1" id="Layer_1" xmlns="http://www.w3.org/2000/svg" xmlns:xlink="http://www.w3.org/1999/xlink" x="0px" y="0px"
	 viewBox="0 0 883 199.3" style="enable-background:new 0 0 883 199.3;" xml:space="preserve">
<style type="text/css">
	.st0{fill:#FFFFFF;}
</style>
<g id="XMLID_223_">
	<g id="XMLID_227_">
		<polygon id="XMLID_240_" class="st0" points="371.5,132.3 358.3,132.3 358.3,85.5 341.2,85.5 341.2,74.2 388.5,74.2 388.5,85.5 
			371.5,85.5 		"/>
		<rect id="XMLID_239_" x="428" y="74.2" class="st0" width="13.3" height="58.1"/>
		<polygon id="XMLID_238_" class="st0" points="675.6,120.8 698.6,120.8 698.6,132.3 662.4,132.3 662.4,74.2 675.6,74.2 		"/>
		<path id="XMLID_235_" class="st0" d="M498.4,120.9h8.2c11.1,0,18.5-6.9,18.5-17.9c0-10.5-7.5-17.5-18.2-17.5h-8.5V120.9z
			 M485.5,74.2H507c15.9,0,31.7,8.4,31.7,28.9c0,19.3-15.5,29.2-30.9,29.2h-22.3V74.2z"/>
		<path id="XMLID_232_" class="st0" d="M587.2,110.5l8.8-22.7l8.7,22.7H587.2z M612.4,132.3H627L603,74.2h-13.7l-24.2,58.1h14.2
			l4.3-11.5h24.5L612.4,132.3z"/>
		<polygon id="XMLID_231_" class="st0" points="252.4,82.6 235.4,99.7 218.4,82.6 235.4,65.6 		"/>
		
			<rect id="XMLID_230_" x="223.4" y="104.6" transform="matrix(0.7071 -0.7071 0.7071 0.7071 -13.5519 200.6372)" class="st0" width="24.1" height="24.1"/>
		
			<rect id="XMLID_229_" x="189.4" y="70.6" transform="matrix(0.7071 -0.7071 0.7071 0.7071 0.5471 166.6059)" class="st0" width="24.1" height="24.1"/>
		
			<rect id="XMLID_228_" x="257.4" y="70.6" transform="matrix(0.707 -0.7072 0.7072 0.707 20.4994 214.7654)" class="st0" width="24.1" height="24.1"/>
	</g>
	<path id="XMLID_224_" class="st0" d="M867.8,6.1c4.7,0,8.5,3.8,8.5,8.5v170.1c0,4.7-3.8,8.5-8.5,8.5H15.2c-4.7,0-8.5-3.8-8.5-8.5
		V14.6c0-4.7,3.8-8.5,8.5-8.5H867.8 M867.8,0.4H15.2C7.3,0.4,1,6.8,1,14.6v170.1c0,7.8,6.3,14.2,14.2,14.2h852.6
		c7.8,0,14.2-6.3,14.2-14.2V14.6C882,6.8,875.6,0.4,867.8,0.4L867.8,0.4z"/>
</g>
</svg>
