<?xml version="1.0" encoding="utf-8"?>
<!-- Generator: Adobe Illustrator 19.0.0, SVG Export Plug-In . SVG Version: 6.00 Build 0)  -->
<svg version="1.1" id="Layer_1" xmlns="http://www.w3.org/2000/svg" xmlns:xlink="http://www.w3.org/1999/xlink" x="0px" y="0px"
	 viewBox="-134 335.8 341.5 100.6" style="enable-background:new -134 335.8 341.5 100.6;" xml:space="preserve">
<style type="text/css">
	.st0{fill:#FFFFFF;}
</style>
<g>
	<g id="XMLID_14_">
		<path id="XMLID_21_" class="st0" d="M-68,343.1h-7.5v-7.3h24v7.3H-59v27.5h-9C-68,370.7-68,343.1-68,343.1z"/>
		<path id="XMLID_20_" class="st0" d="M-27.7,370.7l-12-15.6v15.6h-9v-34.9h9v12.7l10.4-12.7h10.6L-32,351.5l15.3,19.3h-11V370.7z"
			/>
		<path id="XMLID_19_" class="st0" d="M-14.7,335.8h10.4l9.2,21l9.2-21h10.3v34.9h-8.5v-21.2l-9.2,21.2H2.8l-9.2-21.2v21.2h-8.5
			v-34.9H-14.7z"/>
		<path id="XMLID_18_" class="st0" d="M38,355.7l-11.3-19.9h9.7l6.1,11.4l6.1-11.4h9.7l-11.3,19.9v15h-9V355.7z"/>
		<path id="XMLID_17_" class="st0" d="M60.6,335.8h9v13.7h12.7v-13.7h9v34.9h-9v-13.9H69.6v13.9h-9V335.8z"/>
		<path id="XMLID_16_" class="st0" d="M106.5,356.7h-1.3v14h-9v-34.9h15.5c5.5,0,9.2,1.8,10.8,5.4c0.6,1.4,0.9,3.2,0.9,5.1
			c0,0.9-0.1,1.8-0.2,2.8c-0.2,0.9-0.4,1.6-0.7,2.3c-1.1,2.8-3.3,4.5-6.5,5l10.1,14.3H116L106.5,356.7z M105.2,350.8h3.9
			c1.2,0,2.2-0.2,3.1-0.5c0.8-0.3,1.3-0.8,1.6-1.5c0.3-0.6,0.4-1.3,0.4-2.2c0-0.8-0.1-1.6-0.4-2.1c-0.3-0.7-0.9-1.2-1.6-1.5
			c-0.8-0.3-1.8-0.4-3.1-0.4h-3.9V350.8z"/>
		<path id="XMLID_15_" class="st0" d="M132.6,343.1h-7.5v-7.3h24v7.3h-7.4v27.5h-9V343.1z"/>
	</g>
</g>
<g>
	<g id="XMLID_1_">
		<path id="XMLID_13_" class="st0" d="M-109.3,421.2h-13.5l-2,6.6h-9.2l11.4-34.5h13.2l11.4,34.5h-9.2L-109.3,421.2z M-111.4,414.5
			l-4.6-14.9h-0.1l-4.6,14.9H-111.4z"/>
		<path id="XMLID_12_" class="st0" d="M-95.5,393.1h15c2.7,0,5,0.4,6.9,1.2c1.8,0.8,3,2.1,3.8,3.9c0.6,1.6,1,3.4,1,5.5
			c0,1.9-0.3,3.6-1,5.1c-0.8,1.8-2.1,3.1-3.9,4s-4,1.4-6.8,1.4h-6.3v13.2h-8.9v-34.4H-95.5z M-83,408c1.2,0,2.2-0.2,3-0.5
			c0.8-0.3,1.3-0.8,1.6-1.5c0.3-0.7,0.4-1.4,0.4-2.2s-0.1-1.4-0.4-2.1c-0.3-0.7-0.9-1.2-1.6-1.5c-0.8-0.3-1.8-0.4-3-0.4h-3.6v8.3
			H-83z"/>
		<path id="XMLID_11_" class="st0" d="M-55.6,413.9h-1.3v13.8h-8.9v-34.6h15.3c5.5,0,9.1,1.8,10.7,5.4c0.6,1.4,0.9,3.1,0.9,5
			c0,0.9-0.1,1.8-0.2,2.7c-0.2,0.9-0.4,1.6-0.7,2.3c-1.1,2.7-3.2,4.4-6.5,4.9l10,14.1h-10L-55.6,413.9z M-56.9,408h3.8
			c1.2,0,2.2-0.2,3-0.5c0.8-0.3,1.3-0.8,1.6-1.5c0.3-0.6,0.4-1.3,0.4-2.2c0-0.8-0.1-1.6-0.4-2.1c-0.3-0.7-0.9-1.2-1.6-1.5
			c-0.8-0.3-1.8-0.4-3-0.4h-3.8V408z"/>
		<path id="XMLID_10_" class="st0" d="M-34.3,393.1h8.9v34.5h-8.9V393.1z"/>
		<path id="XMLID_9_" class="st0" d="M-20.5,393.1h8.9v27h9.3v7.7h-18.2V393.1z"/>
		<path id="XMLID_8_" class="st0" d="M6.7,427.5l14.4-16.9c1.5-1.7,2.5-3.1,3.1-4.1s0.9-2,0.9-3.1c0-0.7-0.1-1.3-0.4-1.8
			c-0.3-0.7-0.8-1.2-1.5-1.6c-0.7-0.4-1.5-0.5-2.5-0.5c-2.1,0-3.5,0.8-4.2,2.4c-0.4,0.9-0.6,2.1-0.6,3.5H7.4c0-2.6,0.4-4.8,1.2-6.7
			c1-2.2,2.5-3.8,4.6-4.9c2.1-1.1,4.6-1.6,7.7-1.6c2.9,0,5.6,0.5,7.7,1.6c2.1,1.1,3.6,2.7,4.6,4.8c0.6,1.4,0.9,3,0.9,4.9
			c0,1.6-0.3,3.1-0.9,4.4c-0.6,1.3-1.6,2.7-2.9,4.1c-2.2,2.4-4.9,5.1-8.1,8.2h12.3v7.5H6.7V427.5z"/>
		<path id="XMLID_7_" class="st0" d="M35.8,427.5l14.4-16.9c1.5-1.7,2.5-3.1,3.1-4.1s0.9-2,0.9-3.1c0-0.7-0.1-1.3-0.4-1.8
			c-0.3-0.7-0.8-1.2-1.5-1.6c-0.7-0.4-1.5-0.5-2.5-0.5c-2.1,0-3.5,0.8-4.2,2.4c-0.4,0.9-0.6,2.1-0.6,3.5h-8.5c0-2.6,0.4-4.8,1.2-6.7
			c1-2.2,2.5-3.8,4.6-4.9c2.1-1.1,4.6-1.6,7.7-1.6c2.9,0,5.6,0.5,7.7,1.6c2.1,1.1,3.6,2.7,4.6,4.8c0.6,1.4,0.9,3,0.9,4.9
			c0,1.6-0.3,3.1-0.9,4.4c-0.6,1.3-1.6,2.7-2.9,4.1c-2.2,2.4-4.9,5.1-8.1,8.2h12.3v7.5h-28v-0.3H35.8z"/>
		<path id="XMLID_6_" class="st0" d="M69.7,419.8h7.8l-5.1,16.6h-5.9L69.7,419.8z"/>
		<path id="XMLID_5_" class="st0" d="M88.3,427.5l14.4-16.9c1.5-1.7,2.5-3.1,3.1-4.1s0.9-2,0.9-3.1c0-0.7-0.1-1.3-0.4-1.8
			c-0.3-0.7-0.8-1.2-1.5-1.6s-1.5-0.5-2.5-0.5c-2.1,0-3.5,0.8-4.2,2.4c-0.4,0.9-0.6,2.1-0.6,3.5H89c0-2.6,0.4-4.8,1.2-6.7
			c1-2.2,2.5-3.8,4.6-4.9c2.1-1.1,4.6-1.6,7.7-1.6c2.9,0,5.6,0.5,7.7,1.6c2.1,1.1,3.6,2.7,4.6,4.8c0.6,1.4,0.9,3,0.9,4.9
			c0,1.6-0.3,3.1-0.9,4.4c-0.6,1.3-1.6,2.7-2.9,4.1c-2.2,2.4-4.9,5.1-8.1,8.2h12.3v7.5h-28v-0.3H88.3z"/>
		<path id="XMLID_4_" class="st0" d="M125.6,426.7c-2.2-1.3-3.9-3.2-5-5.9c-0.6-1.4-1-2.9-1.3-4.5c-0.3-1.7-0.4-3.6-0.4-5.8
			c0-2.2,0.1-4.1,0.4-5.8c0.3-1.7,0.7-3.2,1.3-4.5c1.1-2.6,2.8-4.5,5-5.9c2.2-1.3,5-1.9,8.3-1.9c3.2,0,6,0.6,8.3,1.9
			c2.2,1.3,3.9,3.2,5,5.9c0.6,1.4,1,2.9,1.3,4.6c0.3,1.7,0.5,3.6,0.5,5.8s-0.2,4-0.5,5.8c-0.3,1.7-0.8,3.2-1.3,4.6
			c-1.1,2.6-2.8,4.5-5,5.9s-5,1.9-8.3,1.9C130.6,428.6,127.9,428,125.6,426.7z M139,418.2c0.3-0.7,0.5-1.6,0.6-2.7
			c0.1-1.1,0.1-2.8,0.1-5c0-2.2,0-3.9-0.1-5s-0.3-2.1-0.6-2.8c-0.9-1.9-2.5-2.9-5-2.9c-2.5,0-4.2,1-5,2.9c-0.3,0.7-0.5,1.6-0.6,2.8
			c-0.1,1.2-0.2,2.8-0.2,4.9s0.1,3.8,0.2,4.9s0.3,2.1,0.6,2.8c0.9,1.9,2.6,2.9,5,2.9C136.3,421.1,138,420.1,139,418.2z"/>
		<path id="XMLID_3_" class="st0" d="M150.6,427.5l14.4-16.9c1.5-1.7,2.5-3.1,3.1-4.1s0.9-2,0.9-3.1c0-0.7-0.1-1.3-0.4-1.8
			c-0.3-0.7-0.8-1.2-1.5-1.6s-1.5-0.5-2.5-0.5c-2.1,0-3.5,0.8-4.2,2.4c-0.4,0.9-0.6,2.1-0.6,3.5h-8.5c0-2.6,0.4-4.8,1.2-6.7
			c1-2.2,2.5-3.8,4.6-4.9c2.1-1.1,4.6-1.6,7.7-1.6c2.9,0,5.6,0.5,7.7,1.6c2.1,1.1,3.6,2.7,4.6,4.8c0.6,1.4,0.9,3,0.9,4.9
			c0,1.6-0.3,3.1-0.9,4.4c-0.6,1.3-1.6,2.7-2.9,4.1c-2.2,2.4-4.9,5.1-8.1,8.2h12.3v7.5h-28v-0.3H150.6z"/>
		<path id="XMLID_2_" class="st0" d="M179.5,427.5l14.4-16.9c1.5-1.7,2.5-3.1,3.1-4.1s0.9-2,0.9-3.1c0-0.7-0.1-1.3-0.4-1.8
			c-0.3-0.7-0.8-1.2-1.5-1.6c-0.7-0.4-1.5-0.5-2.5-0.5c-2.1,0-3.5,0.8-4.2,2.4c-0.4,0.9-0.6,2.1-0.6,3.5h-8.4c0-2.6,0.4-4.8,1.2-6.7
			c1-2.2,2.5-3.8,4.6-4.9c2.1-1.1,4.6-1.6,7.7-1.6c2.9,0,5.6,0.5,7.7,1.6c2.1,1.1,3.6,2.7,4.6,4.8c0.6,1.4,0.9,3,0.9,4.9
			c0,1.6-0.3,3.1-0.9,4.4c-0.6,1.3-1.6,2.7-2.9,4.1c-2.2,2.4-4.9,5.1-8.1,8.2h12.3v7.5h-28L179.5,427.5L179.5,427.5z"/>
	</g>
</g>
</svg>
