<svg width="1512" height="236" viewBox="0 0 1512 236" fill="none" xmlns="http://www.w3.org/2000/svg">
<path d="M50.947 50.519H0.331V0.90199H161.503V50.519H111.22V236H50.947V50.519ZM321.692 236L240.773 131.105V236H180.5V0.90199H240.773V86.483L311.036 0.90199H382.298L292.721 106.463L395.951 236H321.692ZM409.112 0.90199H479.042L540.98 142.427L602.918 0.90199H672.515V236H615.572V93.143L553.967 236H527.66L466.055 93.143V236H409.112V0.90199ZM764.298 134.768L687.708 0.90199H752.976L794.268 77.825L835.56 0.90199H900.828L824.571 134.768V236H764.298V134.768ZM916.091 0.90199H976.364V92.81H1062.28V0.90199H1122.55V236H1062.28V142.427H976.364V236H916.091V0.90199ZM1225.02 142.094H1216.03V236H1155.76V0.90199H1259.99C1297.29 0.90199 1321.48 13.001 1332.58 37.199C1336.8 46.967 1338.91 58.4 1338.91 71.498C1338.91 77.936 1338.36 84.152 1337.25 90.146C1336.14 96.14 1334.58 101.468 1332.58 106.13C1325.04 124.778 1310.38 136.1 1288.63 140.096L1356.89 236H1288.63L1225.02 142.094ZM1216.03 102.134H1242.34C1250.78 102.134 1257.66 101.024 1262.99 98.804C1268.31 96.584 1272.09 93.143 1274.31 88.481C1276.31 84.485 1277.31 79.49 1277.31 73.496C1277.31 67.724 1276.31 62.84 1274.31 58.844C1272.09 54.182 1268.31 50.852 1262.99 48.854C1257.66 46.856 1250.78 45.857 1242.34 45.857H1216.03V102.134ZM1401.16 50.519H1350.54V0.90199H1511.71V50.519H1461.43V236H1401.16V50.519Z" fill="white"/>
</svg>
