<svg width="881" height="199" viewBox="0 0 881 199" fill="none" xmlns="http://www.w3.org/2000/svg">
<path fill-rule="evenodd" clip-rule="evenodd" d="M351.8 131.3C336.1 142.9 313.2 149.1 293.5 149.1C267.194 149.227 241.781 139.568 222.2 122C220.7 120.6 222.1 118.8 223.8 119.8C245.537 132.248 270.151 138.798 295.2 138.8C313.861 138.681 332.315 134.875 349.5 127.6C352.2 126.5 354.5 129.4 351.8 131.3Z" fill="#010101"/>
<path fill-rule="evenodd" clip-rule="evenodd" d="M358.4 123.8C356.4 121.2 345.1 122.6 340 123.2C338.4 123.4 338.2 122 339.6 121.1C348.6 114.7 363.4 116.5 365.1 118.7C366.8 120.9 364.7 135.6 356.2 142.7C354.9 143.8 353.7 143.2 354.3 141.8C356.2 137 360.4 126.4 358.4 123.8Z" fill="#010101"/>
<path fill-rule="evenodd" clip-rule="evenodd" d="M340.3 76.3V70.1C340.285 69.8861 340.316 69.6715 340.392 69.4706C340.467 69.2698 340.584 69.0874 340.736 68.9358C340.887 68.7841 341.07 68.6668 341.271 68.5916C341.471 68.5164 341.686 68.4852 341.9 68.5H369.5C369.924 68.5 370.331 68.6686 370.631 68.9686C370.931 69.2687 371.1 69.6757 371.1 70.1V75.4C371.1 76.3 370.4 77.4 369 79.2L354.7 99.7C360 99.6 365.7 100.3 370.5 103.1C370.945 103.317 371.315 103.66 371.564 104.088C371.813 104.515 371.93 105.006 371.9 105.5V112C371.9 112.9 371 114 369.9 113.4C365.374 111.099 360.365 109.908 355.288 109.925C350.211 109.943 345.21 111.168 340.7 113.5C339.8 114 338.8 113 338.8 112.1V105.8C338.702 104.331 339.051 102.867 339.8 101.6L356.4 77.8H341.9C341.492 77.8008 341.1 77.646 340.803 77.3673C340.505 77.0885 340.325 76.7068 340.3 76.3V76.3Z" fill="#010101"/>
<path fill-rule="evenodd" clip-rule="evenodd" d="M239.6 114.7H231.2C230.819 114.701 230.452 114.557 230.173 114.297C229.895 114.037 229.725 113.68 229.7 113.3V70.2C229.7 69.7757 229.869 69.3687 230.169 69.0686C230.469 68.7686 230.876 68.6 231.3 68.6H239.1C239.49 68.6237 239.858 68.7894 240.134 69.0657C240.411 69.342 240.576 69.7099 240.6 70.1V75.7H240.8C242.8 70.3 246.7 67.7 251.9 67.7C257.1 67.7 260.4 70.3 262.8 75.7C263.579 73.6535 264.886 71.8497 266.588 70.4722C268.29 69.0946 270.327 68.1923 272.491 67.857C274.654 67.5218 276.869 67.7655 278.908 68.5635C280.947 69.3614 282.738 70.6851 284.1 72.4C286.8 76.1 286.2 81.3 286.2 86V113.2C286.2 113.406 286.159 113.609 286.077 113.798C285.996 113.987 285.876 114.157 285.726 114.298C285.576 114.438 285.398 114.547 285.205 114.616C285.011 114.685 284.805 114.714 284.6 114.7H276.2C275.802 114.7 275.421 114.542 275.139 114.261C274.858 113.979 274.7 113.598 274.7 113.2V90.3C274.7 88.5 274.9 84 274.5 82.3C274.1 80.6 272 78.5 269.5 78.5C268.409 78.5579 267.358 78.928 266.472 79.5663C265.585 80.2045 264.901 81.084 264.5 82.1C263.6 84.2 263.7 87.9 263.7 90.3V113.2C263.7 113.406 263.659 113.609 263.577 113.798C263.496 113.987 263.376 114.157 263.226 114.298C263.076 114.438 262.898 114.547 262.705 114.616C262.511 114.685 262.305 114.714 262.1 114.7H253.7C253.302 114.7 252.921 114.542 252.639 114.261C252.358 113.979 252.2 113.598 252.2 113.2V90.3C252.2 85.5 253 78.4 247 78.4C241 78.4 241.2 85.3 241.2 90.3V113.2C241.2 113.406 241.159 113.609 241.077 113.798C240.996 113.987 240.876 114.157 240.726 114.298C240.576 114.438 240.398 114.547 240.205 114.616C240.011 114.685 239.805 114.714 239.6 114.7V114.7Z" fill="#010101"/>
<path fill-rule="evenodd" clip-rule="evenodd" d="M394.9 67.7C407.4 67.7 414.1 78.4 414.1 92.1C414.1 105.8 406.7 115.7 394.9 115.7C383.1 115.7 376 104.9 376 91.6C376 78.3 382.7 67.7 394.9 67.7ZM395 76.5C388.8 76.5 388.4 85 388.4 90.2C388.4 95.4 388.3 106.8 394.9 106.8C401.5 106.8 401.7 97.7 401.7 92.1C401.7 88.5 401.6 84.2 400.5 80.7C399.4 77.2 397.6 76.5 395 76.5Z" fill="#010101"/>
<path fill-rule="evenodd" clip-rule="evenodd" d="M430.3 114.7H421.9C421.502 114.7 421.121 114.542 420.839 114.261C420.558 113.979 420.4 113.598 420.4 113.2V70C420.468 69.6195 420.663 69.2735 420.954 69.019C421.245 68.7645 421.614 68.6167 422 68.6H429.8C430.134 68.6487 430.449 68.7856 430.713 68.9965C430.977 69.2074 431.179 69.4848 431.3 69.8V76.4H431.5C433.8 70.5 437.1 67.7 442.9 67.7C444.838 67.6103 446.766 68.0348 448.487 68.9305C450.208 69.8262 451.661 71.1612 452.7 72.8C454.9 76.3 454.9 82.1 454.9 86.2V113.4C454.85 113.78 454.656 114.127 454.359 114.368C454.061 114.61 453.682 114.729 453.3 114.7H444.9C444.535 114.703 444.18 114.573 443.904 114.334C443.628 114.094 443.449 113.762 443.4 113.4V90C443.4 85.2 443.9 78.3 438.1 78.3C437.045 78.3503 436.029 78.7086 435.176 79.3306C434.322 79.9527 433.67 80.8112 433.3 81.8C432.23 84.3954 431.752 87.1966 431.9 90V113.2C431.9 113.406 431.859 113.609 431.777 113.798C431.696 113.987 431.576 114.157 431.426 114.298C431.276 114.438 431.099 114.547 430.905 114.616C430.711 114.685 430.505 114.714 430.3 114.7Z" fill="#010101"/>
<path fill-rule="evenodd" clip-rule="evenodd" d="M318.3 94.1C318.3 97.4 318.4 100.2 316.7 103.1C316.163 104.195 315.341 105.126 314.321 105.795C313.3 106.463 312.119 106.845 310.9 106.9C307.7 106.9 305.8 104.4 305.8 100.8C305.8 93.6 312.2 92.3 318.3 92.3V94.1ZM326.8 114.6C326.531 114.842 326.192 114.991 325.833 115.027C325.473 115.063 325.111 114.984 324.8 114.8C322.862 113.252 321.233 111.352 320 109.2C315.4 113.9 312.1 115.3 306.1 115.3C300.1 115.3 293.6 111 293.6 102.2C293.492 99.2779 294.29 96.3939 295.883 93.9419C297.475 91.4899 299.786 89.5894 302.5 88.5C307.1 86.5 313.4 86.1 318.3 85.6V84.5C318.3 82.5 318.5 80.1 317.3 78.4C316.747 77.6875 316.032 77.1166 315.215 76.7341C314.398 76.3516 313.502 76.1686 312.6 76.2C309.4 76.2 306.5 77.9 305.8 81.3C305.7 82 305.1 82.8 304.4 82.8L296.2 81.9C296.005 81.8768 295.817 81.813 295.649 81.7126C295.48 81.6121 295.335 81.4774 295.222 81.3171C295.108 81.1568 295.03 80.9746 294.992 80.7821C294.954 80.5897 294.957 80.3913 295 80.2C296.8 70.3 305.8 67.3 313.8 67.3C317.8 67.3 323.2 68.4 326.4 71.5C329.6 74.6 330.1 80.4 330.1 86V99.1C330.1 103 331.7 104.7 333.3 106.8C333.568 107.123 333.715 107.53 333.715 107.95C333.715 108.37 333.568 108.777 333.3 109.1C331.5 110.5 328.5 113.2 326.8 114.7V114.6Z" fill="#010101"/>
<path fill-rule="evenodd" clip-rule="evenodd" d="M208.1 94.1C208.1 97.4 208.2 100.2 206.6 103.1C205 106 203.1 106.9 200.8 106.9C198.5 106.9 195.6 104.4 195.6 100.8C195.6 93.6 202.1 92.3 208.1 92.3V94.1ZM216.6 114.6C216.34 114.857 215.999 115.017 215.635 115.053C215.271 115.09 214.906 115 214.6 114.8C212.662 113.252 211.033 111.352 209.8 109.2C205.2 113.9 201.9 115.3 196 115.3C190.1 115.3 183.4 111 183.4 102.2C183.307 99.2808 184.11 96.4031 185.701 93.9539C187.292 91.5047 189.595 89.6014 192.3 88.5C196.9 86.5 203.3 86.1 208.1 85.6V84.5C208.1 82.5 208.3 80.1 207.1 78.4C206.547 77.6875 205.832 77.1166 205.015 76.7341C204.198 76.3516 203.302 76.1686 202.4 76.2C199.2 76.2 196.4 77.9 195.7 81.3C195.5 82 195 82.8 194.2 82.8L186.1 81.9C185.896 81.8902 185.697 81.8361 185.517 81.7415C185.336 81.6468 185.179 81.5139 185.055 81.352C184.931 81.1901 184.844 81.0032 184.8 80.8042C184.756 80.6052 184.756 80.399 184.8 80.2C186.7 70.3 195.6 67.3 203.6 67.3C207.7 67.3 213 68.4 216.2 71.5C219.4 74.6 219.9 80.4 219.9 86V99.1C219.9 103 221.6 104.7 223.1 106.8C223.254 106.949 223.377 107.128 223.461 107.325C223.544 107.523 223.588 107.735 223.588 107.95C223.588 108.165 223.544 108.377 223.461 108.575C223.377 108.772 223.254 108.951 223.1 109.1L216.6 114.7V114.6Z" fill="#010101"/>
<path fill-rule="evenodd" clip-rule="evenodd" d="M625.9 107.3C623.888 108.536 621.561 109.161 619.2 109.1C614.932 109.155 610.682 108.547 606.6 107.3C605.857 107.04 605.084 106.872 604.3 106.8C603.5 106.8 603.3 107.3 603.3 108.3V110.9C603.284 111.536 603.458 112.163 603.8 112.7C604.165 113.202 604.697 113.556 605.3 113.7C609.704 115.517 614.437 116.402 619.2 116.3C624.7 116.3 628.8 115 632.1 112.4C635.4 109.8 637 106.5 637 102.1C637.147 99.4371 636.331 96.8103 634.7 94.7C632.6 92.4288 629.947 90.7406 627 89.8L619.8 86.9C616.9 85.9 614.9 84.9 614.1 83.8C613.568 83.3253 613.148 82.7379 612.871 82.0805C612.594 81.4232 612.468 80.7125 612.5 80C612.5 76.1 615.4 74 621.3 74C624.63 74.0185 627.937 74.5584 631.1 75.6L633.2 76.1C633.389 76.1022 633.576 76.0633 633.748 75.9858C633.921 75.9084 634.074 75.7943 634.198 75.6515C634.322 75.5087 634.413 75.3407 634.465 75.1591C634.517 74.9775 634.529 74.7867 634.5 74.6V72C634.487 71.3531 634.277 70.7255 633.9 70.2C633.7 69.7 633.2 69.4 632.4 69.1C628.656 67.8548 624.745 67.1805 620.8 67.1C616.484 66.9622 612.239 68.2251 608.7 70.7C607.212 71.7904 606.008 73.2228 605.19 74.8762C604.372 76.5297 603.964 78.3556 604 80.2C604 86.2 607.4 90.5 614.1 93.1L621.8 96C623.692 96.6026 625.455 97.5521 627 98.8C627.468 99.2676 627.827 99.8326 628.052 100.455C628.277 101.077 628.361 101.741 628.3 102.4C628.361 103.355 628.171 104.309 627.75 105.169C627.33 106.028 626.692 106.763 625.9 107.3V107.3ZM653.5 50.8C652.903 50.2699 652.207 49.8641 651.451 49.6066C650.696 49.349 649.896 49.2448 649.1 49.3C648.367 49.2428 647.63 49.3417 646.939 49.5901C646.247 49.8385 645.615 50.2308 645.086 50.7411C644.557 51.2513 644.142 51.868 643.868 52.5504C643.595 53.2329 643.47 53.9655 643.5 54.7C643.461 55.4191 643.574 56.1385 643.832 56.8107C644.091 57.4829 644.489 58.0927 645 58.6C645.548 59.1118 646.194 59.5083 646.898 59.766C647.602 60.0237 648.351 60.1372 649.1 60.1C649.865 60.1451 650.631 60.0355 651.353 59.7778C652.074 59.5201 652.737 59.1195 653.3 58.6C654.284 57.5422 654.822 56.1448 654.8 54.7C654.8 53.2 654.6 51.6 653.5 50.8V50.8ZM652 68.4H646.6C645.3 68.4 644.8 68.9 644.8 70.2V113C644.8 114.3 645.3 114.8 646.6 114.8H652C653.3 114.8 653.8 114.3 653.8 113V70.2C653.833 69.9558 653.809 69.7074 653.73 69.4739C653.652 69.2405 653.52 69.0284 653.346 68.8542C653.172 68.68 652.96 68.5484 652.726 68.4696C652.493 68.3908 652.244 68.367 652 68.4V68.4ZM676.2 78.7C678.5 76.1 682.1 74.8 687.3 74.8C689.835 74.7673 692.362 75.1041 694.8 75.8C695.27 76.0161 695.783 76.1189 696.3 76.1C697.1 76.1 697.6 75.6 697.6 74.3V71.7C697.644 71.0604 697.468 70.4251 697.1 69.9C696.706 69.5189 696.27 69.1834 695.8 68.9C692.605 67.9943 689.317 67.4575 686 67.3C678.8 67.3 673.4 69.4 669.3 73.8C665.2 78.2 663.3 84.1 663.3 91.8C663.3 99.5 665.1 105.5 669 109.6C672.9 113.7 678.3 115.8 685.5 115.8C689.022 115.933 692.532 115.319 695.8 114C696.6 113.7 697.1 113.5 697.4 113C697.591 112.42 697.659 111.807 697.6 111.2V108.6C697.6 107.3 697.1 106.8 696.3 106.8C695.859 106.794 695.419 106.862 695 107C692.339 107.806 689.58 108.244 686.8 108.3C681.9 108.3 678.3 107 676 104.5C673.7 102 672.6 97.8 672.6 92.3V91.1C672.9 85.4 673.9 81.3 676.2 78.7V78.7ZM536.5 114.8H541.9C543.2 114.8 543.7 114.3 543.7 113V80.7C543.7 76.4 542.7 73 540.4 70.7C539.091 69.4747 537.548 68.5247 535.865 67.9063C534.182 67.2879 532.391 67.0137 530.6 67.1C524.03 67.2005 517.673 69.4482 512.5 73.5C510.5 69.1 506.6 67.1 500.9 67.1C495.2 67.1 489.6 69.1 483.9 73L483.4 70.2C483.438 69.9241 483.379 69.6436 483.233 69.4064C483.087 69.1692 482.864 68.9902 482.6 68.9C482.4 68.6 481.8 68.6 481.3 68.6H477.2C475.9 68.6 475.4 69.1 475.4 70.4V113.2C475.4 114.5 475.9 115 477.2 115H482.6C483.9 115 484.4 114.5 484.4 113.2V78.4C488.412 75.842 493.044 74.4246 497.8 74.3C500.4 74.3 502.2 75.1 503.2 76.6C504.494 78.5865 505.124 80.9324 505 83.3V113C505 114.3 505.6 114.8 506.8 114.8H512.3C513.5 114.8 514.1 114.3 514.1 113V78.4C518.094 75.8039 522.737 74.3831 527.5 74.3C530 74.3 531.8 75.1 532.9 76.6C534.152 78.605 534.779 80.9375 534.7 83.3V113C534.7 114.3 535.2 114.8 536.5 114.8V114.8ZM585.5 70.2V104.5C581.604 107.171 577.022 108.664 572.3 108.8C569.5 108.8 567.4 108.1 566.1 106.5C564.8 104.9 564.3 102.7 564.3 99.3V70.2C564.3 68.9 563.8 68.4 562.5 68.4H557.1C555.8 68.4 555.3 68.9 555.3 70.2V102.1C555.3 106.5 556.3 110.1 558.7 112.4C561.1 114.7 564.3 116.1 568.7 116.1C573.1 116.1 580.6 114 586.2 109.9L586.8 113C586.771 113.262 586.823 113.527 586.948 113.759C587.073 113.991 587.265 114.18 587.5 114.3C588.008 114.502 588.558 114.571 589.1 114.5H592.9C594.2 114.5 594.8 114 594.8 112.7V70.2C594.8 68.9 594.2 68.4 592.9 68.4H587.5C586 68.4 585.5 69.1 585.5 70.2V70.2Z" fill="#010101"/>
</svg>
