<svg width="881" height="199" viewBox="0 0 881 199" fill="none" xmlns="http://www.w3.org/2000/svg">
<path d="M264.5 102.9C264.4 93 268.7 85.2 277.4 79.7C272.5 72.5 265.2 68.5 255.6 67.6C252.2 67.3 247.8 68.1 242.5 70C237.2 71.9 233.5 73.2 232.8 73.2C232.1 73.2 228.4 72.3 224.1 70.5C220.641 68.9003 216.906 67.9835 213.1 67.8C208.073 67.8854 203.164 69.3373 198.9 72C194.505 74.7804 190.891 78.6351 188.4 83.2C185.1 89.1 183.4 96.1 183.4 104.3C183.417 111.787 184.667 119.219 187.1 126.3C189.158 132.846 192.12 139.073 195.9 144.8C198.293 148.607 201.111 152.13 204.3 155.3C207.7 158.7 211.2 160.3 214.8 160.2C218.4 160.1 220.1 159.2 223.8 157.6C227.091 156.078 230.674 155.293 234.3 155.3C237.827 155.317 241.307 156.102 244.5 157.6C248.4 159.2 251.6 160 254 160C256.4 160 261.1 158.3 264.3 155.3C265.616 154.04 266.82 152.668 267.9 151.2C269.4 149.2 270.9 147.2 272.3 145.1L275.6 139.6C276.7 137.6 277.6 135.5 278.5 133.4C278.893 132.489 279.227 131.554 279.5 130.6C279.9 129.7 280.2 128.7 280.5 127.8C275.736 125.607 271.699 122.098 268.864 117.686C266.029 113.274 264.515 108.144 264.5 102.9V102.9ZM351 124.7H350.4L326.2 69.4H307.2V158.7H323.8V100.8H324.5L344.8 146.8H356.4L376.6 100.8H377.4V158.7H394.1V69.4H375.3L351 124.7ZM249.5 57.7C253.518 52.9024 255.745 46.8579 255.8 40.6V39.3C255.816 38.8974 255.782 38.4944 255.7 38.1C252.409 38.3875 249.211 39.34 246.3 40.9C243.175 42.4758 240.415 44.6902 238.2 47.4C233.9 52.5 231.7 58 231.7 63.9V65.1C231.7 65.4 231.8 65.8 231.8 66.2C238.4 66.9 244.3 64 249.5 57.7V57.7ZM587.9 69.4H606.6V158.7H587.9V69.4ZM662.9 83.6C673.9 83.6 679.8 92.1 679.8 101.2H697.6V99.3C697.6 82.1 684.5 67.7 662.7 67.7C640.9 67.7 625.6 83 625.6 109.1V119.2C625.6 145.3 639.3 160.4 662.7 160.4C686.1 160.4 697.6 145.8 697.6 129.6V127.6H679.8C679.8 136.8 674 144.5 663 144.5C652 144.5 644.5 136.4 644.5 119.2V109.2C644.5 92 651.7 83.6 662.9 83.6V83.6ZM465.4 125.8C465.4 137.8 458.4 144.4 448.1 144.4C437.8 144.4 430.8 137.8 430.8 125.8V69.4H412.3V128.4C412.3 147.4 425.8 160.4 448.1 160.4C470.4 160.4 484 147.4 484 128.4V69.4H465.4V125.8ZM545.7 106.7L532.4 103.7C524.5 102 520.4 98.6 520.4 93.4C520.4 86.5 526 82.2 535 82.2C544 82.2 550.2 88 550.7 94.3H568C567.8 78.5 554.7 67.5 535.1 67.5C515.5 67.5 501.8 77.3 501.8 94.8C501.8 110 512.1 117.1 524.5 119.8L537.6 122.8C546.5 124.9 551 127.8 551 133.9C551 140 545.5 145.5 535.1 145.5C524.7 145.5 518.2 139.7 517.6 133H499.8C500 145.7 508.4 160.4 534.2 160.4C555.9 160.4 569.4 149.6 569.4 132.1C569.4 114.6 558.5 109.5 545.7 106.7V106.7Z" fill="#010101"/>
</svg>
