<svg width="881" height="199" viewBox="0 0 881 199" fill="none" xmlns="http://www.w3.org/2000/svg">
<path d="M303.9 115.3C303.9 135.9 316.6 148.2 335.4 148.2C344.8 148.2 352.7 145.6 357.1 138.7V148.2H374.4V50.1H356.5V91.8C352.4 84.9 344.9 81.8 335.5 81.8C317.2 81.8 303.9 94.4 303.9 115.3ZM357 115.3C357 127.1 349.1 134.4 339.5 134.4C329.9 134.4 321.9 127.1 321.9 115.3C321.9 103.5 329.6 95.8 339.5 95.8C349.4 95.8 357 103.4 357 115.3V115.3Z" fill="#010101"/>
<path d="M430 122.9C427.9 130.5 422.7 134.3 414.5 134.3C406.3 134.3 397.2 128.6 397 118.4H442.1C442.717 115.745 443.019 113.026 443 110.3C443 92.1 430.5 81.8 412.2 81.8C393.9 81.8 379.2 95.7 379.2 114.6C379.2 135.7 394 148.3 414.5 148.3C430.1 148.3 440.6 141.8 445.2 128.9L430 122.9ZM397 106.5C398.7 99.1 404.8 94.8 412.2 94.8C419.6 94.8 425.6 99.1 425.6 105.9V106.5H397Z" fill="#010101"/>
<path d="M496.3 122.9C494.2 130.5 489.1 134.3 480.9 134.3C472.7 134.3 463.6 128.6 463.4 118.4H508.4C509.017 115.745 509.319 113.026 509.3 110.3C509.3 92.1 496.9 81.8 478.5 81.8C460.1 81.8 445.5 95.7 445.5 114.6C445.5 135.7 460.4 148.3 480.9 148.3C496.4 148.3 506.9 141.8 511.5 128.9L496.3 122.9ZM463.4 106.5C465.1 99.1 471.2 94.8 478.5 94.8C485.8 94.8 492 99.1 492 105.9V106.5H463.4Z" fill="#010101"/>
<path d="M572.3 148.3V132.1H534.8L571.3 96.6V81.8H513.5V97.2H548.8L512.4 132.9V148.3H572.3Z" fill="#010101"/>
<path d="M624.5 122.9C622.5 130.5 617.3 134.3 609.1 134.3C600.9 134.3 591.8 128.6 591.6 118.4H636.7C637.233 115.733 637.501 113.02 637.5 110.3C637.5 92.1 625.1 81.8 606.8 81.8C588.5 81.8 573.7 95.7 573.7 114.6C573.7 135.7 588.6 148.3 609.1 148.3C624.6 148.3 635.2 141.8 639.8 128.9L624.5 122.9ZM591.6 106.5C593.3 99.1 599.4 94.8 606.8 94.8C614.2 94.8 620.2 99.1 620.2 105.9V106.5H591.6Z" fill="#010101"/>
<path d="M679.9 104.8V106.6H697.3V101.6C697.3 90.2 690.1 81.9 678.2 81.9C670.5 81.9 665 85.7 662.2 91.9V81.9H644.2V148.3H662.2V105.5C662.2 98.7 665.8 95 671.4 95C677 95 679.9 99.9 679.9 104.8Z" fill="#010101"/>
<path d="M285.6 81.8H263.6V94.69H285.6V81.8Z" fill="#010101"/>
<path d="M285.6 99.7H263.6V112.59H285.6V99.7Z" fill="#010101"/>
<path d="M285.6 117.6H263.6V130.49H285.6V117.6Z" fill="#010101"/>
<path d="M205.7 135.4H183.7V148.29H205.7V135.4Z" fill="#010101"/>
<path d="M232.3 135.4H210.3V148.29H232.3V135.4Z" fill="#010101"/>
<path d="M258.9 135.4H236.9V148.29H258.9V135.4Z" fill="#010101"/>
<path d="M285.6 135.4H263.6V148.29H285.6V135.4Z" fill="#010101"/>
<path d="M258.9 117.6H236.9V130.49H258.9V117.6Z" fill="#010101"/>
<path d="M232.3 117.6H210.3V130.49H232.3V117.6Z" fill="#010101"/>
<path d="M232.3 99.7H210.3V112.59H232.3V99.7Z" fill="#010101"/>
</svg>
