<svg width="881" height="199" viewBox="0 0 881 199" fill="none" xmlns="http://www.w3.org/2000/svg">
<path d="M388.1 63.3C390.4 63.3 400.7 62.5 413.2 72C413.476 72.2005 413.663 72.5017 413.719 72.8385C413.775 73.1753 413.696 73.5207 413.5 73.8L407.5 82.2C407.393 82.3439 407.257 82.464 407.101 82.5528C406.945 82.6416 406.772 82.6972 406.594 82.7159C406.415 82.7347 406.235 82.7164 406.064 82.662C405.893 82.6076 405.735 82.5184 405.6 82.4C403.961 81.1574 402.222 80.0536 400.4 79.1C396.592 77.1115 392.392 75.9849 388.1 75.8C384 75.8 377.4 77.1 377.4 83.5C377.4 89.9 382 90.6 396.1 94.1C405.2 96.5 415.9 100.9 415.9 114.9C415.9 128.9 405.2 136 390.4 136C381.5 136 369.2 132.6 361.5 124.8C361.274 124.56 361.14 124.248 361.122 123.918C361.103 123.589 361.202 123.264 361.4 123L368.2 115.1C368.298 114.959 368.425 114.84 368.572 114.752C368.719 114.664 368.884 114.609 369.054 114.59C369.225 114.571 369.398 114.589 369.561 114.642C369.724 114.696 369.874 114.784 370 114.9C372.6 117.4 380.1 123.4 390.4 123.4C402.5 123.4 402.1 116.1 402.1 115C402.1 113.9 400.4 109.4 394.3 107.7C388.2 106 373.2 103.2 367.6 96.6C364.827 93.194 363.404 88.8875 363.6 84.5C363.6 76.7 368.6 63.3 388.1 63.3Z" fill="#010101"/>
<path d="M450.9 80.1C447.701 80.1327 444.548 80.866 441.663 82.2481C438.778 83.6302 436.23 85.6277 434.2 88.1V82.6C434.2 82.2552 434.063 81.9245 433.819 81.6807C433.575 81.4369 433.245 81.3 432.9 81.3H421.7C421.355 81.3 421.024 81.4369 420.781 81.6807C420.537 81.9245 420.4 82.2552 420.4 82.6V149.5C420.4 149.671 420.434 149.84 420.499 149.997C420.564 150.155 420.66 150.298 420.781 150.419C420.901 150.54 421.045 150.636 421.202 150.701C421.36 150.766 421.529 150.8 421.7 150.8H432.9C433.074 150.815 433.25 150.792 433.415 150.732C433.58 150.672 433.729 150.577 433.853 150.453C433.977 150.329 434.072 150.18 434.132 150.015C434.192 149.85 434.215 149.675 434.2 149.5V128.7C434.2 128.7 439.7 136 451.5 136C460.9 136 476 128.4 476 108.3C476 88.2 461.8 80.1 450.9 80.1ZM448.1 124.1C440.5 124.1 434 117.5 434 108C434 102.3 437.6 92.2 447.9 92.2C458.2 92.2 462.1 100.5 462.1 108C462.1 115.5 457.9 124.1 448.1 124.1Z" fill="#010101"/>
<path d="M508.3 80.1C504.58 80.0604 500.889 80.7573 497.439 82.1504C493.99 83.5436 490.85 85.6056 488.201 88.2176C485.552 90.8295 483.446 93.9398 482.004 97.3694C480.562 100.799 479.813 104.48 479.8 108.2C479.8 123.1 491.4 136.1 508.4 136.1C512.111 136.166 515.797 135.494 519.246 134.123C522.694 132.752 525.836 130.709 528.487 128.113C531.139 125.517 533.249 122.42 534.693 119.001C536.137 115.583 536.887 111.911 536.9 108.2C536.9 93.6 525.8 80.1 508.3 80.1ZM508.4 124.1C501.2 124.1 493.4 118.1 493.4 108.1C493.4 98.1 500.4 92.2 508.4 92.2C514.5 92.2 523.1 97.3 523.1 108.1C523.1 118.9 515.5 124.1 508.4 124.1V124.1Z" fill="#010101"/>
<path d="M572.1 91.9V82.4C572.1 82.0552 571.963 81.7246 571.719 81.4808C571.476 81.237 571.145 81.1 570.8 81.1H558V68.2C558 67.8552 557.863 67.5246 557.619 67.2808C557.376 67.037 557.045 66.9 556.7 66.9H545.8C545.455 66.9 545.125 67.037 544.881 67.2808C544.637 67.5246 544.5 67.8552 544.5 68.2V81.1H539.1C538.755 81.1 538.425 81.237 538.181 81.4808C537.937 81.7246 537.8 82.0552 537.8 82.4V91.9C537.8 92.2448 537.937 92.5754 538.181 92.8192C538.425 93.063 538.755 93.2 539.1 93.2H544.5V120.2C544.5 126.2 547.2 135.8 559.3 135.8C563.456 135.75 567.551 134.794 571.3 133C571.529 132.919 571.728 132.771 571.871 132.574C572.014 132.378 572.094 132.143 572.1 131.9V122.5C572.08 122.312 572.012 122.133 571.902 121.979C571.793 121.826 571.646 121.703 571.475 121.622C571.304 121.542 571.116 121.507 570.927 121.521C570.739 121.534 570.558 121.596 570.4 121.7C568.526 122.915 566.333 123.541 564.1 123.5C558.3 123.5 558 119.6 558 116.8V93.2H570.8C570.971 93.2 571.14 93.1664 571.298 93.101C571.455 93.0357 571.599 92.94 571.719 92.8192C571.84 92.6985 571.936 92.5552 572.001 92.3975C572.066 92.2398 572.1 92.0707 572.1 91.9V91.9Z" fill="#010101"/>
<path d="M584.6 74.6C589.295 74.6 593.1 70.7944 593.1 66.1C593.1 61.4056 589.295 57.6 584.6 57.6C579.906 57.6 576.1 61.4056 576.1 66.1C576.1 70.7944 579.906 74.6 584.6 74.6Z" fill="#010101"/>
<path d="M590 81.1H579C578.282 81.1 577.7 81.682 577.7 82.4V133.57C577.7 134.288 578.282 134.87 579 134.87H590C590.718 134.87 591.3 134.288 591.3 133.57V82.4C591.3 81.682 590.718 81.1 590 81.1Z" fill="#010101"/>
<path d="M603.4 93.2H598.2C598.026 93.2153 597.85 93.1921 597.685 93.1322C597.52 93.0723 597.371 92.977 597.247 92.8531C597.123 92.7292 597.028 92.5797 596.968 92.415C596.908 92.2503 596.885 92.0746 596.9 91.9V82.4C596.9 82.0552 597.037 81.7246 597.281 81.4808C597.525 81.237 597.855 81.1 598.2 81.1H603.4V77.7C603.4 75.4 603.8 60.9 620.1 60.9C628.1 60.9 630.8 62.7 630.8 62.7V72.5C630.8 73.4 630.4 74.2 629.4 73.8C627.274 73.068 625.048 72.6634 622.8 72.6C622.031 72.572 621.264 72.7029 620.548 72.9844C619.831 73.266 619.181 73.6922 618.637 74.2365C618.092 74.7808 617.666 75.4314 617.385 76.1477C617.103 76.8641 616.972 77.6308 617 78.4V81.1H636.9C637.165 81.1207 637.418 81.2164 637.631 81.3757C637.843 81.5351 638.006 81.7516 638.1 82L652.1 118L664.6 82.1C664.694 81.8516 664.857 81.6351 665.069 81.4757C665.282 81.3164 665.535 81.2207 665.8 81.2H678.1C678.228 81.2066 678.352 81.2435 678.462 81.3078C678.572 81.3721 678.665 81.4618 678.734 81.5694C678.802 81.6771 678.844 81.7996 678.856 81.9267C678.867 82.0538 678.848 82.1818 678.8 82.3C676 89.8 659.7 131.9 657.6 137.2C655.5 142.5 651.4 151.1 640.2 151.1C635.804 151.218 631.466 150.072 627.7 147.8C627.459 147.597 627.282 147.328 627.193 147.026C627.104 146.723 627.107 146.401 627.2 146.1L631.2 137.6C631.242 137.511 631.302 137.431 631.377 137.367C631.451 137.302 631.539 137.255 631.633 137.226C631.727 137.198 631.827 137.19 631.924 137.203C632.022 137.215 632.116 137.248 632.2 137.3C634.215 138.552 636.528 139.243 638.9 139.3C643.4 139.3 645.4 134.1 645.4 134.1L628.3 93.2H617.1V133.7C617.101 133.879 617.064 134.057 616.992 134.222C616.921 134.386 616.816 134.534 616.685 134.656C616.553 134.779 616.398 134.872 616.228 134.931C616.059 134.99 615.879 135.014 615.7 135H604.7C604.355 135 604.025 134.863 603.781 134.619C603.537 134.375 603.4 134.045 603.4 133.7V93.2Z" fill="#010101"/>
<path d="M685.5 84.8H689.6C690.078 84.7856 690.554 84.8666 691.001 85.0383C691.447 85.21 691.855 85.4689 692.2 85.8C692.474 86.0526 692.688 86.3633 692.826 86.7094C692.965 87.0554 693.024 87.4281 693 87.8V87.8C693.032 88.4101 692.864 89.0139 692.521 89.5194C692.178 90.025 691.679 90.4044 691.1 90.6L693.2 93.8H690.9L689 90.9H687.5V93.8H685.5V84.8ZM689.5 89.2C689.687 89.2291 689.877 89.2171 690.059 89.1649C690.241 89.1127 690.409 89.0216 690.552 88.8979C690.694 88.7741 690.808 88.6207 690.886 88.4484C690.963 88.2761 691.002 88.0889 691 87.9V87.9C691 87 690.4 86.6 689.4 86.6H687.5V89.2H689.5Z" fill="#010101"/>
<path d="M689.1 97.9C687.439 97.9 685.815 97.4073 684.433 96.4843C683.052 95.5613 681.975 94.2494 681.339 92.7145C680.704 91.1796 680.537 89.4907 680.861 87.8612C681.185 86.2318 681.986 84.735 683.16 83.5603C684.335 82.3855 685.832 81.5855 687.461 81.2614C689.091 80.9373 690.78 81.1036 692.315 81.7394C693.849 82.3752 695.161 83.4518 696.084 84.8332C697.007 86.2146 697.5 87.8386 697.5 89.5C697.5 90.6031 697.283 91.6954 696.861 92.7145C696.438 93.7337 695.82 94.6597 695.04 95.4397C694.26 96.2197 693.334 96.8384 692.315 97.2606C691.295 97.6827 690.203 97.9 689.1 97.9V97.9ZM689.1 82C687.617 82 686.167 82.4399 684.933 83.264C683.7 84.0881 682.739 85.2594 682.171 86.6299C681.603 88.0003 681.455 89.5083 681.744 90.9632C682.033 92.418 682.748 93.7544 683.797 94.8033C684.846 95.8522 686.182 96.5665 687.637 96.8559C689.092 97.1453 690.6 96.9967 691.97 96.4291C693.341 95.8614 694.512 94.9001 695.336 93.6668C696.16 92.4334 696.6 90.9833 696.6 89.5C696.574 87.5189 695.776 85.6263 694.375 84.2253C692.974 82.8244 691.081 82.0259 689.1 82V82Z" fill="#010101"/>
<path d="M260.5 22.2C245.247 22.2 230.336 26.7244 217.655 35.2007C204.974 43.6769 195.092 55.7242 189.259 69.8182C183.427 83.9122 181.906 99.4196 184.889 114.378C187.872 129.337 195.225 143.075 206.017 153.853C216.81 164.632 230.557 171.967 245.52 174.931C260.482 177.894 275.988 176.353 290.074 170.502C304.161 164.652 316.195 154.754 324.655 142.062C333.115 129.369 337.62 114.453 337.6 99.2C337.6 89.0798 335.605 79.0588 331.729 69.7103C327.853 60.3617 322.172 51.8688 315.012 44.7174C307.851 37.566 299.351 31.8963 289.997 28.0325C280.644 24.1688 270.62 22.1868 260.5 22.2V22.2ZM295.8 133.4C295.364 134.156 294.737 134.784 293.983 135.223C293.228 135.661 292.372 135.895 291.5 135.9C290.584 135.919 289.682 135.677 288.9 135.2C258.5 116.9 222.6 127.5 222.2 127.6C220.958 127.857 219.665 127.643 218.573 126.998C217.481 126.353 216.668 125.325 216.293 124.113C215.918 122.901 216.009 121.594 216.546 120.445C217.083 119.296 218.03 118.389 219.2 117.9C220.9 117.4 259.8 105.9 294.1 126.5C294.677 126.829 295.182 127.272 295.583 127.803C295.984 128.333 296.272 128.939 296.431 129.585C296.59 130.23 296.616 130.902 296.508 131.557C296.399 132.213 296.158 132.84 295.8 133.4ZM305.4 112.1C304.873 113.013 304.115 113.77 303.202 114.297C302.289 114.824 301.254 115.101 300.2 115.1C299.151 115.072 298.123 114.798 297.2 114.3C259.1 92.4 220.7 105.1 220.3 105.3C218.801 105.811 217.161 105.709 215.738 105.016C214.314 104.322 213.222 103.095 212.7 101.6C212.433 100.859 212.317 100.071 212.36 99.2847C212.402 98.498 212.602 97.7278 212.947 97.0194C213.291 96.311 213.775 95.6789 214.368 95.1603C214.961 94.6418 215.652 94.2472 216.4 94C218.2 93.4 260.4 79.3 303.2 103.9C303.883 104.294 304.482 104.818 304.962 105.443C305.443 106.069 305.795 106.782 305.999 107.544C306.204 108.306 306.256 109.1 306.153 109.882C306.05 110.663 305.794 111.417 305.4 112.1V112.1ZM309.7 91.5C308.522 91.4838 307.362 91.2107 306.3 90.7C262.3 67.6 217.2 81.4 216.7 81.6C214.872 82.0462 212.942 81.7792 211.304 80.8532C209.666 79.9272 208.442 78.4119 207.881 76.6154C207.32 74.819 207.465 72.8765 208.286 71.1831C209.107 69.4897 210.542 68.1727 212.3 67.5C214.4 66.9 263.8 51.7 313.1 77.6C313.96 78.0528 314.723 78.6706 315.345 79.4183C315.966 80.166 316.434 81.0289 316.722 81.9576C317.01 82.8863 317.112 83.8626 317.022 84.8308C316.933 85.7989 316.653 86.7399 316.2 87.6C315.577 88.7829 314.642 89.7721 313.496 90.4598C312.35 91.1475 311.037 91.5073 309.7 91.5V91.5Z" fill="#010101"/>
</svg>
