<svg width="881" height="199" viewBox="0 0 881 199" fill="none" xmlns="http://www.w3.org/2000/svg">
<path d="M370.5 131.9H357.3V85H340.2V73.7H387.6V85H370.5V131.9Z" fill="#010101"/>
<path d="M440.4 73.7H427.1V131.83H440.4V73.7Z" fill="#010101"/>
<path d="M674.6 120.4H697.6V131.9H661.4V73.7H674.6V120.4Z" fill="#010101"/>
<path d="M497.4 120.5H505.6C516.7 120.5 524.1 113.6 524.1 102.6C524.1 91.6 516.6 85.1 505.9 85.1H497.4V120.5ZM484.5 73.8H506C521.9 73.8 537.7 82.2 537.7 102.7C537.7 123.2 522.2 131.9 506.8 131.9H484.5V73.8Z" fill="#010101"/>
<path d="M586.2 110.1L594.9 87.4L603.6 110.1H586.2ZM611.4 131.9H626L602 73.8H588.3L564.1 131.9H578.3L582.6 120.4H607.1L611.4 131.9Z" fill="#010101"/>
<path d="M251.4 82.2L234.4 99.2L217.4 82.2L234.4 65.2L251.4 82.2Z" fill="#010101"/>
<path d="M234.444 99.1323L217.403 116.174L234.416 133.187L251.457 116.145L234.444 99.1323Z" fill="#010101"/>
<path d="M200.39 65.203L183.349 82.2443L200.362 99.2573L217.403 82.216L200.39 65.203Z" fill="#010101"/>
<path d="M268.544 65.149L251.503 82.1903L268.516 99.2033L285.557 82.162L268.544 65.149Z" fill="#010101"/>
</svg>
